<svg xmlns="http://www.w3.org/2000/svg" xmlns:xlink="http://www.w3.org/1999/xlink" width="500" zoomAndPan="magnify" viewBox="0 0 375 374.999991" height="500" preserveAspectRatio="xMidYMid meet" version="1.0"><defs><g/><clipPath id="682f484fd8"><path d="M 120 94 L 273 94 L 273 290.933594 L 120 290.933594 Z M 120 94 " clip-rule="nonzero"/></clipPath><clipPath id="718782933b"><path d="M 2.722656 2.722656 L 372.273438 2.722656 L 372.273438 372.273438 L 2.722656 372.273438 Z M 2.722656 2.722656 " clip-rule="nonzero"/></clipPath><clipPath id="72e813ca04"><path d="M 187.5 2.722656 C 85.449219 2.722656 2.722656 85.449219 2.722656 187.5 C 2.722656 289.546875 85.449219 372.273438 187.5 372.273438 C 289.546875 372.273438 372.273438 289.546875 372.273438 187.5 C 372.273438 85.449219 289.546875 2.722656 187.5 2.722656 Z M 187.5 2.722656 " clip-rule="nonzero"/></clipPath><clipPath id="467e15a351"><rect x="0" width="215" y="0" height="85"/></clipPath><clipPath id="9caf176445"><rect x="0" width="175" y="0" height="64"/></clipPath><clipPath id="3d06f6e34e"><rect x="0" width="50" y="0" height="25"/></clipPath><clipPath id="e5e99e2007"><rect x="0" width="46" y="0" height="24"/></clipPath></defs><g clip-path="url(#682f484fd8)"><path fill="#4d4d4d" d="M 243.546875 223.515625 C 246.46875 201.886719 274.527344 186.34375 256.816406 167.113281 C 256.816406 167.113281 265.664062 170.234375 265.300781 181.480469 C 265.300781 181.480469 276.890625 167.953125 269.210938 152.980469 L 269.214844 152.980469 C 285.992188 89.257812 226.460938 113.726562 204.851562 94.265625 C 205.132812 95.238281 205.492188 96.15625 205.929688 97.050781 C 216.863281 124.167969 233.808594 131.5 233.808594 131.5 C 214.488281 130.394531 208.316406 102.476562 185.5 105.230469 C 195.898438 106.671875 211.441406 124.566406 211.441406 124.566406 C 202.75 120.628906 195.339844 114.613281 195.339844 114.613281 C 197.242188 118.75 202.941406 123.003906 202.941406 123.003906 C 189.226562 120.832031 181.972656 96.589844 153.964844 103.105469 C 183.277344 99.28125 182.96875 130.058594 222.289062 135.753906 C 181.046875 139.382812 167.289062 78.425781 129.589844 120.773438 C 137.195312 113.277344 151.167969 114.738281 151.167969 114.738281 C 120.53125 128.820312 120.757812 158.332031 120.757812 158.332031 C 129.253906 132.394531 149.160156 123.003906 149.160156 123.003906 C 116.285156 148.5 125.230469 181.378906 125.230469 181.378906 C 125.453125 140.675781 156.089844 131.050781 156.089844 131.050781 C 138.199219 144.25 134.621094 175.335938 134.621094 175.335938 C 145.804688 134.417969 170.964844 130.5 170.964844 130.5 C 145.242188 141.347656 144.574219 171.425781 144.574219 171.425781 C 152.292969 136.765625 173.644531 134.964844 173.644531 134.964844 C 154.082031 143.351562 153.742188 163.15625 153.742188 163.15625 C 158.328125 142.238281 174.539062 139.664062 174.539062 139.664062 C 164.59375 144.144531 161.90625 153.082031 161.90625 153.082031 C 169.175781 144.695312 178.34375 142.121094 187.625 143.695312 C 212.605469 147.910156 223.285156 141.730469 244.933594 142.535156 C 244.933594 142.535156 245.144531 133.835938 236.109375 124.003906 C 236.109375 124.003906 249.363281 130.8125 249.808594 144.324219 C 249.808594 144.324219 256.46875 145.230469 260.988281 150.035156 C 260.988281 150.035156 243.011719 145.050781 229.644531 148.917969 C 229.644531 148.917969 236.148438 145.792969 243.195312 146.300781 C 243.195312 146.300781 230.597656 143.21875 216.03125 152.8125 C 213.082031 154.972656 210.453125 157.160156 208.402344 158.972656 L 208.355469 159.019531 L 208.363281 159 C 205.554688 161.488281 203.835938 163.261719 203.835938 163.261719 C 203.835938 163.261719 223.097656 158.464844 238.675781 167.210938 C 238.675781 167.210938 224.761719 162.242188 213.050781 165.015625 C 213.050781 165.015625 217.265625 170.335938 220.03125 178.042969 L 188.367188 177.820312 C 188.367188 177.820312 170.769531 170.308594 160.261719 178.605469 C 155.636719 181.777344 150.558594 172.824219 145.335938 179.453125 C 143.476562 181.835938 141.414062 196.863281 155.289062 197.320312 C 155.289062 197.320312 153.8125 201.738281 152.058594 202.375 C 152.058594 202.375 159.160156 201.277344 158.601562 185.613281 C 158.601562 185.613281 160.839844 183.5625 161.28125 186.582031 C 165.394531 214.753906 191.226562 202.632812 189.433594 184.589844 L 221.761719 184.289062 C 223.015625 190.847656 222.644531 198.332031 218.21875 205.472656 C 218.21875 205.472656 223.929688 198.925781 224.113281 192.839844 C 224.113281 192.839844 230.011719 225.195312 200.699219 213.578125 C 200.699219 213.578125 204.109375 217.449219 210.105469 219.289062 C 210.105469 219.289062 200.605469 219.289062 197.015625 210.8125 C 197.015625 210.8125 197.566406 216.066406 200.144531 219.378906 C 202.726562 222.695312 201.902344 229.617188 194.433594 229.246094 C 194.433594 229.246094 204.941406 232.839844 205.679688 241.785156 C 205.679688 241.785156 203.882812 236.445312 198.210938 234.222656 C 198.210938 234.222656 207.519531 240.773438 203.464844 250.632812 C 203.464844 250.632812 204.753906 238.644531 192.5 233.945312 C 192.5 233.945312 196.277344 237.082031 198.582031 240.859375 C 198.582031 240.859375 192.679688 232.289062 179.773438 232.113281 C 179.773438 232.113281 190.472656 235.605469 182.726562 249.992188 C 182.726562 249.992188 188.4375 243.03125 187.378906 237.082031 C 187.378906 237.082031 190.976562 249.753906 177.054688 255.007812 C 177.054688 255.007812 184.660156 246.570312 182.222656 239.34375 C 182.222656 239.34375 182.308594 242.566406 181.484375 244.875 C 181.484375 244.875 182.820312 237.125 177.519531 234.003906 C 177.519531 234.003906 184.109375 246.214844 165.261719 245.007812 C 165.261719 245.007812 173.230469 244.414062 175.71875 240.085938 C 175.71875 240.085938 168.992188 240.859375 165.167969 237.40625 C 161.34375 233.945312 153.460938 235.328125 154.011719 242.0625 C 154.011719 242.0625 152.214844 236.949219 156.410156 234.597656 C 156.410156 234.597656 149.914062 229.941406 153.140625 224.542969 C 156.363281 219.15625 162.765625 221.09375 165.90625 224.144531 C 169.035156 227.175781 178.53125 232.621094 187.699219 226.433594 C 187.699219 226.433594 183.644531 227.726562 179.175781 226.625 C 179.175781 226.625 197.289062 227.414062 194.15625 211.273438 C 194.15625 211.273438 192.539062 223.636719 176.960938 220.628906 C 176.960938 220.628906 184.242188 220.585938 187.746094 216.945312 C 187.746094 216.945312 178.664062 220.15625 171.203125 211.394531 C 171.203125 211.394531 172.121094 214.382812 173.921875 216.554688 C 173.921875 216.554688 168.898438 214.753906 168.160156 210.382812 C 168.160156 210.382812 167.972656 202.910156 160.601562 204.300781 C 160.601562 204.300781 165.253906 205.445312 164.148438 208.761719 C 164.148438 208.761719 158.664062 204.980469 154.886719 208.296875 C 154.886719 208.296875 156.085938 205.636719 157.46875 205.3125 C 157.46875 205.3125 155.289062 205.816406 153.214844 207.925781 C 151.03125 206.398438 151.226562 203.957031 151.226562 203.957031 C 149.222656 206.496094 151.796875 209.679688 151.796875 209.679688 C 151.113281 210.738281 150.507812 212.035156 150.09375 213.609375 C 150.09375 213.609375 151.65625 211.613281 152.5 211.09375 C 152.5 211.09375 152.871094 219.15625 143.558594 217.488281 C 143.558594 217.488281 145.609375 219.949219 149.230469 219.75 C 149.230469 219.75 144.25 222.085938 141.390625 217.9375 C 141.390625 217.9375 142.199219 224.957031 150.496094 225.328125 C 150.496094 225.328125 152.570312 246.484375 139.757812 252.65625 C 139.757812 252.65625 146.757812 252.609375 149.945312 246.066406 C 149.945312 246.066406 148.496094 257.269531 139.664062 259.300781 C 139.664062 259.300781 143.765625 260.863281 148.234375 258.144531 C 148.234375 258.144531 138.421875 277.140625 164.046875 289.753906 C 164.046875 289.753906 151.40625 275.445312 159.160156 260.273438 C 159.160156 260.273438 151.320312 283.671875 178.234375 290.5 C 178.234375 290.5 185.980469 280.171875 178.515625 267.082031 C 178.515625 267.082031 188.652344 277.597656 181.832031 289.488281 C 181.832031 289.488281 206.4375 283.03125 210.496094 250.585938 C 210.496094 250.585938 210.496094 264.78125 206.625 272.15625 C 206.625 272.15625 231.859375 257.726562 226.992188 228.644531 C 226.992188 228.644531 230.773438 241.183594 228.46875 250.214844 C 228.46875 250.214844 238.148438 239.429688 232.800781 218.429688 C 227.457031 197.410156 230.222656 183.679688 234.738281 179.710938 C 234.738281 179.710938 230.40625 181.921875 228.652344 186.996094 C 231.238281 167.078125 258.757812 169.429688 251.925781 189.347656 C 247.007812 203.671875 242.0625 205.949219 243.546875 223.515625 " fill-opacity="1" fill-rule="evenodd"/></g><g clip-path="url(#718782933b)"><g clip-path="url(#72e813ca04)"><path stroke-linecap="butt" transform="matrix(0.75, 0, 0, 0.75, 2.724203, 2.724198)" fill="none" stroke-linejoin="miter" d="M 246.36773 -0.00205613 C 110.300021 -0.00205613 -0.00206213 110.300027 -0.00206213 246.367736 C -0.00206213 382.430236 110.300021 492.73232 246.36773 492.73232 C 382.43023 492.73232 492.732314 382.430236 492.732314 246.367736 C 492.732314 110.300027 382.43023 -0.00205613 246.36773 -0.00205613 Z M 246.36773 -0.00205613 " stroke="#000000" stroke-width="4" stroke-opacity="1" stroke-miterlimit="4"/></g></g><g transform="matrix(1, 0, 0, 1, 83, 17)"><g clip-path="url(#467e15a351)"><g fill="#4d4d4d" fill-opacity="1"><g transform="translate(24.767493, 73.952226)"><g><path d="M 10.125 -7.171875 C 9.757812 -6.359375 9.1875 -5.6875 8.40625 -5.15625 C 7.625 -4.625 6.789062 -4.34375 5.90625 -4.3125 C 5.550781 -3.507812 5.109375 -2.925781 4.578125 -2.5625 C 4.054688 -2.207031 3.59375 -1.957031 3.1875 -1.8125 C 2.789062 -1.675781 2.414062 -1.601562 2.0625 -1.59375 C 1.3125 -1.5625 0.773438 -1.78125 0.453125 -2.25 C 0.296875 -2.5 0.222656 -2.757812 0.234375 -3.03125 C 0.640625 -3 1.046875 -3.117188 1.453125 -3.390625 C 2.535156 -4.128906 2.96875 -5.097656 2.75 -6.296875 L -3.25 -15.1875 C -3.625 -15.738281 -4.007812 -16.078125 -4.40625 -16.203125 C -5.082031 -16.398438 -6.007812 -16.421875 -7.1875 -16.265625 C -6.625 -17.191406 -6.316406 -17.882812 -6.265625 -18.34375 C -6.179688 -19.082031 -6.335938 -19.75 -6.734375 -20.34375 L -11.921875 -28.015625 C -12.953125 -28.679688 -14.007812 -28.644531 -15.09375 -27.90625 C -15.5 -27.632812 -15.769531 -27.3125 -15.90625 -26.9375 C -16.164062 -27.019531 -16.375 -27.175781 -16.53125 -27.40625 C -16.6875 -27.644531 -16.765625 -27.914062 -16.765625 -28.21875 C -16.765625 -28.519531 -16.691406 -28.828125 -16.546875 -29.140625 C -16.222656 -29.847656 -15.695312 -30.445312 -14.96875 -30.9375 C -14.25 -31.425781 -13.453125 -31.675781 -12.578125 -31.6875 C -12.222656 -32.507812 -11.660156 -33.175781 -10.890625 -33.6875 C -10.117188 -34.207031 -9.289062 -34.488281 -8.40625 -34.53125 C -7.539062 -35.851562 -6.351562 -37.019531 -4.84375 -38.03125 C -3.332031 -39.050781 -1.910156 -39.753906 -0.578125 -40.140625 C 0.753906 -40.535156 2.078125 -40.722656 3.390625 -40.703125 C 6.128906 -40.640625 8.515625 -39.738281 10.546875 -38 C 11.347656 -37.3125 12.390625 -37.015625 13.671875 -37.109375 C 13.097656 -35.941406 13.003906 -34.722656 13.390625 -33.453125 C 13.785156 -32.191406 13.921875 -30.863281 13.796875 -29.46875 C 13.671875 -28.070312 13.34375 -26.75 12.8125 -25.5 C 11.71875 -22.957031 10.082031 -20.953125 7.90625 -19.484375 C 6.96875 -18.847656 5.90625 -18.304688 4.71875 -17.859375 L 9.40625 -10.921875 C 10.195312 -10.429688 11.175781 -10.421875 12.34375 -10.890625 C 12.65625 -11.003906 12.972656 -11.171875 13.296875 -11.390625 C 13.628906 -11.617188 13.859375 -11.925781 13.984375 -12.3125 C 14.242188 -12.226562 14.453125 -12.066406 14.609375 -11.828125 C 14.765625 -11.585938 14.828125 -11.300781 14.796875 -10.96875 C 14.765625 -10.644531 14.648438 -10.3125 14.453125 -9.96875 C 14.035156 -9.195312 13.445312 -8.550781 12.6875 -8.03125 C 11.925781 -7.519531 11.070312 -7.234375 10.125 -7.171875 Z M 1.5 -22.609375 C 2.0625 -21.773438 2.8125 -21.316406 3.75 -21.234375 C 4.625 -21.140625 5.492188 -21.390625 6.359375 -21.984375 C 7.703125 -22.878906 8.328125 -24.039062 8.234375 -25.46875 C 8.191406 -25.957031 8 -26.457031 7.65625 -26.96875 L 2.109375 -35.1875 C 1.515625 -36.0625 0.71875 -36.523438 -0.28125 -36.578125 C -1.195312 -36.628906 -1.953125 -36.453125 -2.546875 -36.046875 C -3.148438 -35.640625 -3.609375 -35.25 -3.921875 -34.875 C -4.234375 -34.5 -4.445312 -34.101562 -4.5625 -33.6875 C -4.863281 -32.738281 -4.707031 -31.804688 -4.09375 -30.890625 Z M 10.203125 -25.75 C 10.453125 -25.988281 10.507812 -26.523438 10.375 -27.359375 C 10.25 -28.191406 9.972656 -29.085938 9.546875 -30.046875 C 9.117188 -31.003906 8.882812 -31.757812 8.84375 -32.3125 C 8.800781 -32.875 8.976562 -33.410156 9.375 -33.921875 C 8.351562 -33.648438 7.320312 -34.039062 6.28125 -35.09375 C 5.25 -36.15625 4.390625 -36.867188 3.703125 -37.234375 C 3.023438 -37.597656 2.53125 -37.707031 2.21875 -37.5625 C 3.34375 -36.875 4.878906 -35.09375 6.828125 -32.21875 C 8.117188 -30.300781 8.992188 -28.789062 9.453125 -27.6875 C 9.921875 -26.582031 10.171875 -25.9375 10.203125 -25.75 Z M 3.3125 -9.25 C 3.757812 -9.894531 3.554688 -10.914062 2.703125 -12.3125 C 1.847656 -13.726562 0.613281 -15.632812 -1 -18.03125 C -2.625 -20.425781 -3.707031 -22.019531 -4.25 -22.8125 C -4.789062 -23.601562 -5.226562 -24.234375 -5.5625 -24.703125 C -6.5625 -26.117188 -7.28125 -26.894531 -7.71875 -27.03125 C -8.164062 -27.164062 -8.523438 -27.210938 -8.796875 -27.171875 C -5.941406 -22.953125 -4.394531 -20.5 -4.15625 -19.8125 C -3.988281 -19.21875 -4.164062 -18.597656 -4.6875 -17.953125 C -3.78125 -18.179688 -3.160156 -18.144531 -2.828125 -17.84375 C -2.285156 -17.375 -0.773438 -15.300781 1.703125 -11.625 Z M 3.3125 -9.25 "/></g></g></g><g fill="#4d4d4d" fill-opacity="1"><g transform="translate(54.57499, 54.353537)"><g><path d="M 11.78125 -3.890625 C 11.195312 -3.222656 10.445312 -2.75 9.53125 -2.46875 C 8.625 -2.1875 7.75 -2.164062 6.90625 -2.40625 C 6.332031 -1.726562 5.738281 -1.296875 5.125 -1.109375 C 4.519531 -0.929688 4.003906 -0.832031 3.578125 -0.8125 C 3.148438 -0.789062 2.769531 -0.832031 2.4375 -0.9375 C 1.707031 -1.113281 1.257812 -1.472656 1.09375 -2.015625 C 1.007812 -2.296875 1.015625 -2.566406 1.109375 -2.828125 C 1.484375 -2.679688 1.90625 -2.675781 2.375 -2.8125 C 3.632812 -3.207031 4.335938 -4.007812 4.484375 -5.21875 L 1.328125 -15.46875 C 1.128906 -16.101562 0.851562 -16.539062 0.5 -16.78125 C -0.0820312 -17.164062 -0.960938 -17.457031 -2.140625 -17.65625 C -1.328125 -18.375 -0.828125 -18.945312 -0.640625 -19.375 C -0.335938 -20.0625 -0.289062 -20.742188 -0.5 -21.421875 L -3.21875 -30.265625 C -4.019531 -31.210938 -5.050781 -31.488281 -6.3125 -31.09375 C -6.78125 -30.957031 -7.128906 -30.726562 -7.359375 -30.40625 C -7.585938 -30.5625 -7.742188 -30.769531 -7.828125 -31.03125 C -7.910156 -31.300781 -7.90625 -31.582031 -7.8125 -31.875 C -7.71875 -32.164062 -7.554688 -32.441406 -7.328125 -32.703125 C -6.816406 -33.285156 -6.144531 -33.703125 -5.3125 -33.953125 C -4.476562 -34.210938 -3.640625 -34.222656 -2.796875 -33.984375 C -2.210938 -34.660156 -1.472656 -35.132812 -0.578125 -35.40625 C 0.316406 -35.6875 1.203125 -35.707031 2.078125 -35.46875 C 3.460938 -36.550781 5.117188 -37.390625 7.046875 -37.984375 C 8.972656 -38.578125 10.640625 -38.894531 12.046875 -38.9375 C 13.453125 -38.988281 14.71875 -38.84375 15.84375 -38.5 C 18.144531 -37.78125 19.878906 -36.328125 21.046875 -34.140625 C 21.546875 -33.160156 22.457031 -32.582031 23.78125 -32.40625 C 22.875 -31.457031 22.453125 -30.257812 22.515625 -28.8125 C 22.691406 -25.832031 21.507812 -23.578125 18.96875 -22.046875 C 20.507812 -22.109375 21.90625 -21.6875 23.15625 -20.78125 C 24.457031 -19.851562 25.363281 -18.566406 25.875 -16.921875 L 26.515625 -14.8125 C 27.140625 -12.800781 28.1875 -11.703125 29.65625 -11.515625 C 30.113281 -11.453125 30.566406 -11.488281 31.015625 -11.625 C 31.472656 -11.769531 31.820312 -12.007812 32.0625 -12.34375 C 32.289062 -12.175781 32.445312 -11.957031 32.53125 -11.6875 C 32.613281 -11.414062 32.625 -11.140625 32.5625 -10.859375 C 32.5 -10.578125 32.375 -10.316406 32.1875 -10.078125 C 31.789062 -9.523438 31.253906 -9.144531 30.578125 -8.9375 C 29.910156 -8.738281 29.207031 -8.722656 28.46875 -8.890625 C 27.476562 -7.878906 26.390625 -7.476562 25.203125 -7.6875 C 24.890625 -7.320312 24.515625 -7.070312 24.078125 -6.9375 C 23.648438 -6.8125 23.207031 -6.785156 22.75 -6.859375 C 22.300781 -6.929688 21.851562 -7.144531 21.40625 -7.5 C 20.445312 -8.257812 19.660156 -9.640625 19.046875 -11.640625 L 18.5625 -13.203125 C 17.570312 -16.421875 16.003906 -18.226562 13.859375 -18.625 C 13.140625 -18.769531 12.367188 -18.71875 11.546875 -18.46875 L 9.09375 -17.703125 L 12.234375 -7.484375 C 12.910156 -6.597656 13.78125 -6.320312 14.84375 -6.65625 C 15.320312 -6.800781 15.679688 -7.039062 15.921875 -7.375 C 16.140625 -7.21875 16.3125 -6.9375 16.4375 -6.53125 C 16.5625 -6.125 16.460938 -5.660156 16.140625 -5.140625 C 15.816406 -4.617188 15.210938 -4.222656 14.328125 -3.953125 C 13.453125 -3.679688 12.601562 -3.660156 11.78125 -3.890625 Z M 8.109375 -35.265625 C 5.421875 -34.429688 4.394531 -32.972656 5.03125 -30.890625 L 7.671875 -22.3125 C 7.898438 -21.582031 8.335938 -21.175781 8.984375 -21.09375 C 9.609375 -21.03125 10.453125 -21.164062 11.515625 -21.5 C 12.585938 -21.832031 13.316406 -22.117188 13.703125 -22.359375 C 14.085938 -22.609375 14.390625 -22.929688 14.609375 -23.328125 C 15.054688 -24.109375 15.0625 -25.207031 14.625 -26.625 L 12.75 -32.75 C 12.207031 -34.5 11.132812 -35.394531 9.53125 -35.4375 C 9.0625 -35.46875 8.585938 -35.410156 8.109375 -35.265625 Z M 13.453125 -35.4375 C 14.191406 -34.59375 14.894531 -33.09375 15.5625 -30.9375 C 16.695312 -27.238281 17.207031 -24.972656 17.09375 -24.140625 C 17.800781 -24.515625 18.035156 -25.707031 17.796875 -27.71875 L 17.6875 -28.625 C 17.570312 -29.582031 17.84375 -30.300781 18.5 -30.78125 C 17.894531 -30.800781 17.484375 -30.910156 17.265625 -31.109375 C 16.992188 -31.347656 16.679688 -31.800781 16.328125 -32.46875 C 15.984375 -33.132812 15.675781 -33.660156 15.40625 -34.046875 C 15.132812 -34.441406 14.878906 -34.75 14.640625 -34.96875 C 14.242188 -35.332031 13.847656 -35.488281 13.453125 -35.4375 Z M 5.875 -7.890625 C 6.488281 -8.367188 6.585938 -9.398438 6.171875 -10.984375 C 5.773438 -12.578125 5.148438 -14.757812 4.296875 -17.53125 C 3.453125 -20.300781 2.882812 -22.144531 2.59375 -23.0625 C 2.300781 -23.976562 2.0625 -24.707031 1.875 -25.25 C 1.320312 -26.894531 0.859375 -27.847656 0.484375 -28.109375 C 0.109375 -28.367188 -0.210938 -28.515625 -0.484375 -28.546875 C 1.015625 -23.679688 1.773438 -20.890625 1.796875 -20.171875 C 1.785156 -19.546875 1.441406 -19.003906 0.765625 -18.546875 C 1.691406 -18.503906 2.269531 -18.289062 2.5 -17.90625 C 2.882812 -17.289062 3.726562 -14.859375 5.03125 -10.609375 Z M 18.578125 -18.09375 C 19.328125 -17.632812 19.84375 -16.953125 20.125 -16.046875 L 20.96875 -13.28125 C 21.6875 -10.957031 22.523438 -9.863281 23.484375 -10 C 23.765625 -10.019531 24.015625 -10.09375 24.234375 -10.21875 C 23.484375 -10.851562 22.972656 -11.601562 22.703125 -12.46875 L 21.8125 -15.390625 C 21.46875 -16.503906 21.070312 -17.25 20.625 -17.625 C 19.851562 -18.238281 19.171875 -18.394531 18.578125 -18.09375 Z M 18.578125 -18.09375 "/></g></g></g><g fill="#4d4d4d" fill-opacity="1"><g transform="translate(92.214316, 44.289034)"><g><path d="M 13.375 -0.578125 L 1.796875 -0.078125 L 1.6875 -2.421875 L 5.4375 -3.4375 L 4.3125 -29.078125 L 0.5 -29.8125 L 0.390625 -32.140625 L 11.96875 -32.640625 L 12.078125 -30.3125 L 8.34375 -29.25 L 9.46875 -3.609375 L 13.265625 -2.921875 Z M 5.984375 -41.421875 C 6.566406 -41.441406 7.097656 -41.265625 7.578125 -40.890625 C 8.054688 -40.515625 8.316406 -39.890625 8.359375 -39.015625 C 8.398438 -38.148438 8.195312 -37.503906 7.75 -37.078125 C 7.300781 -36.648438 6.785156 -36.425781 6.203125 -36.40625 C 5.535156 -36.375 4.96875 -36.550781 4.5 -36.9375 C 4.039062 -37.320312 3.789062 -37.945312 3.75 -38.8125 C 3.707031 -39.6875 3.898438 -40.332031 4.328125 -40.75 C 4.765625 -41.164062 5.316406 -41.390625 5.984375 -41.421875 Z M 5.984375 -41.421875 "/></g></g></g><g fill="#4d4d4d" fill-opacity="1"><g transform="translate(116.503663, 42.053871)"><g><path d="M 5.46875 1.25 C 4.832031 1.5 4.175781 1.535156 3.5 1.359375 C 2.832031 1.179688 2.34375 0.863281 2.03125 0.40625 C 1.71875 -0.0390625 1.617188 -0.488281 1.734375 -0.9375 C 1.859375 -1.394531 2.019531 -1.707031 2.21875 -1.875 C 2.5625 -1.53125 3.175781 -1.242188 4.0625 -1.015625 C 4.414062 -0.921875 4.851562 -1 5.375 -1.25 C 5.894531 -1.5 6.367188 -1.914062 6.796875 -2.5 L 9.375 -12.46875 C 9.550781 -13.125 9.539062 -13.648438 9.34375 -14.046875 C 9.03125 -14.660156 8.429688 -15.351562 7.546875 -16.125 C 8.710938 -16.351562 9.472656 -16.59375 9.828125 -16.84375 C 10.390625 -17.269531 10.757812 -17.816406 10.9375 -18.484375 L 13.34375 -27.734375 C 13.226562 -28.722656 12.59375 -29.367188 11.4375 -29.671875 C 10.832031 -29.816406 10.363281 -29.804688 10.03125 -29.640625 C 9.9375 -29.867188 9.925781 -30.128906 10 -30.421875 C 10.082031 -30.722656 10.21875 -30.976562 10.40625 -31.1875 C 10.59375 -31.394531 10.820312 -31.5625 11.09375 -31.6875 C 11.675781 -31.925781 12.367188 -31.941406 13.171875 -31.734375 C 13.984375 -31.523438 14.59375 -31.117188 15 -30.515625 C 15.570312 -30.859375 16.171875 -30.945312 16.796875 -30.78125 C 17.429688 -30.625 17.894531 -30.222656 18.1875 -29.578125 C 18.875 -29.972656 19.429688 -30.113281 19.859375 -30 C 20.285156 -29.894531 20.601562 -29.773438 20.8125 -29.640625 C 21.019531 -29.503906 21.21875 -29.316406 21.40625 -29.078125 C 21.757812 -28.597656 22.050781 -27.753906 22.28125 -26.546875 L 26.03125 -7.546875 L 37.03125 -22.359375 L 37.984375 -23.59375 C 38.535156 -24.269531 38.984375 -24.644531 39.328125 -24.71875 C 39.679688 -24.789062 40.066406 -24.769531 40.484375 -24.65625 C 40.898438 -24.550781 41.289062 -24.285156 41.65625 -23.859375 C 42.269531 -24.035156 43.015625 -24.007812 43.890625 -23.78125 C 44.765625 -23.550781 45.460938 -23.125 45.984375 -22.5 C 46.660156 -22.820312 47.304688 -22.898438 47.921875 -22.734375 C 48.535156 -22.578125 49.003906 -22.40625 49.328125 -22.21875 C 49.660156 -22.03125 49.925781 -21.820312 50.125 -21.59375 C 50.570312 -21.0625 50.722656 -20.515625 50.578125 -19.953125 C 50.503906 -19.671875 50.363281 -19.441406 50.15625 -19.265625 C 49.894531 -19.585938 49.523438 -19.8125 49.046875 -19.9375 C 47.972656 -20.207031 47.117188 -19.894531 46.484375 -19 L 44.125 -9.890625 C 43.945312 -9.203125 43.957031 -8.648438 44.15625 -8.234375 C 44.476562 -7.554688 45.066406 -6.875 45.921875 -6.1875 C 44.765625 -5.945312 44.003906 -5.703125 43.640625 -5.453125 C 43.085938 -5.046875 42.726562 -4.519531 42.5625 -3.875 L 39.875 6.515625 C 40.070312 7.722656 40.800781 8.488281 42.0625 8.8125 C 42.550781 8.9375 42.976562 8.921875 43.34375 8.765625 C 43.445312 9.015625 43.460938 9.273438 43.390625 9.546875 C 43.316406 9.828125 43.164062 10.066406 42.9375 10.265625 C 42.71875 10.472656 42.441406 10.625 42.109375 10.71875 C 41.359375 10.945312 40.566406 10.953125 39.734375 10.734375 C 38.898438 10.515625 38.175781 10.085938 37.5625 9.453125 C 36.78125 9.734375 35.96875 9.757812 35.125 9.53125 C 34.21875 9.300781 33.472656 8.875 32.890625 8.25 C 32.054688 8.507812 31.332031 8.554688 30.71875 8.390625 C 30.101562 8.234375 29.609375 8.050781 29.234375 7.84375 C 28.859375 7.644531 28.546875 7.410156 28.296875 7.140625 C 27.785156 6.617188 27.601562 6.078125 27.75 5.515625 C 27.820312 5.234375 27.960938 5.007812 28.171875 4.84375 C 28.421875 5.15625 28.785156 5.378906 29.265625 5.515625 C 30.523438 5.835938 31.539062 5.519531 32.3125 4.5625 L 38.3125 -18.65625 L 24.703125 -0.265625 L 23.265625 1.59375 C 22.566406 2.46875 22.113281 2.941406 21.90625 3.015625 C 21.695312 3.097656 21.535156 3.125 21.421875 3.09375 C 21.066406 3 20.832031 2.898438 20.71875 2.796875 L 15.140625 -22.515625 L 9.765625 -1.734375 C 9.867188 -1.015625 10.109375 -0.414062 10.484375 0.0625 C 10.859375 0.550781 11.332031 0.867188 11.90625 1.015625 C 12.488281 1.160156 13.019531 1.171875 13.5 1.046875 C 13.582031 1.335938 13.566406 1.703125 13.453125 2.140625 C 13.335938 2.585938 13.015625 2.921875 12.484375 3.140625 C 11.960938 3.367188 11.351562 3.390625 10.65625 3.203125 C 9.957031 3.023438 9.367188 2.6875 8.890625 2.1875 C 8.285156 2.40625 7.65625 2.425781 7 2.25 C 6.34375 2.082031 5.832031 1.75 5.46875 1.25 Z M 18.59375 -23.546875 C 18.40625 -23.367188 18.257812 -23.082031 18.15625 -22.6875 C 17.863281 -21.53125 17.953125 -19.878906 18.421875 -17.734375 L 22.15625 -0.296875 C 22.289062 -0.398438 22.410156 -0.65625 22.515625 -1.0625 C 22.835938 -2.289062 22.71875 -4.25 22.15625 -6.9375 Z M 34.875 3.03125 C 35.65625 2.9375 36.285156 2.109375 36.765625 0.546875 C 37.265625 -1.023438 37.875 -3.210938 38.59375 -6.015625 C 39.320312 -8.816406 39.800781 -10.679688 40.03125 -11.609375 C 40.269531 -12.546875 40.457031 -13.300781 40.59375 -13.875 C 40.976562 -15.5625 41.078125 -16.609375 40.890625 -17.015625 C 40.710938 -17.429688 40.515625 -17.726562 40.296875 -17.90625 Z M 9.828125 -3.171875 C 9.796875 -3.054688 9.773438 -2.96875 9.765625 -2.90625 Z M 7.4375 -3.796875 C 7.40625 -3.734375 7.375 -3.644531 7.34375 -3.53125 Z M 7.4375 -3.796875 "/></g></g></g><g fill="#4d4d4d" fill-opacity="1"><g transform="translate(164.050675, 56.271952)"><g><path d="M 7.9375 5.875 C 7.132812 5.332031 6.554688 4.660156 6.203125 3.859375 C 5.316406 3.828125 4.609375 3.632812 4.078125 3.28125 C 3.554688 2.925781 3.15625 2.585938 2.875 2.265625 C 2.601562 1.953125 2.394531 1.632812 2.25 1.3125 C 1.9375 0.632812 1.941406 0.0625 2.265625 -0.40625 C 2.421875 -0.65625 2.628906 -0.820312 2.890625 -0.90625 C 3.023438 -0.519531 3.296875 -0.191406 3.703125 0.078125 C 4.796875 0.816406 5.851562 0.859375 6.875 0.203125 L 12.875 -8.703125 C 13.25 -9.253906 13.410156 -9.742188 13.359375 -10.171875 C 13.285156 -10.867188 12.960938 -11.734375 12.390625 -12.765625 C 13.460938 -12.585938 14.222656 -12.554688 14.671875 -12.671875 C 15.390625 -12.867188 15.945312 -13.265625 16.34375 -13.859375 L 21.53125 -21.546875 C 21.75 -22.742188 21.3125 -23.710938 20.21875 -24.453125 C 19.8125 -24.722656 19.40625 -24.847656 19 -24.828125 C 18.988281 -25.109375 19.0625 -25.363281 19.21875 -25.59375 C 19.375 -25.820312 19.59375 -25.992188 19.875 -26.109375 C 20.15625 -26.222656 20.46875 -26.269531 20.8125 -26.25 C 21.59375 -26.226562 22.34375 -25.972656 23.0625 -25.484375 C 23.789062 -24.992188 24.320312 -24.34375 24.65625 -23.53125 C 25.5625 -23.507812 26.421875 -23.222656 27.234375 -22.671875 C 28.046875 -22.128906 28.628906 -21.398438 28.984375 -20.484375 C 30.578125 -20.078125 32.222656 -19.304688 33.921875 -18.171875 C 35.160156 -17.335938 36.148438 -16.492188 36.890625 -15.640625 L 38.203125 -14.125 C 38.359375 -13.945312 38.53125 -13.796875 38.71875 -13.671875 C 39.0625 -13.441406 39.394531 -13.566406 39.71875 -14.046875 C 39.800781 -14.171875 39.898438 -14.40625 40.015625 -14.75 C 40.390625 -14.59375 40.835938 -14.335938 41.359375 -13.984375 C 41.878906 -13.628906 42.203125 -13.15625 42.328125 -12.5625 C 42.460938 -11.976562 42.3125 -11.359375 41.875 -10.703125 C 41.4375 -10.054688 41.003906 -9.65625 40.578125 -9.5 C 40.578125 -8.789062 40.34375 -8.085938 39.875 -7.390625 C 39.40625 -6.703125 38.769531 -6.28125 37.96875 -6.125 C 37.882812 -5.664062 37.722656 -5.265625 37.484375 -4.921875 C 37.253906 -4.578125 36.984375 -4.300781 36.671875 -4.09375 C 36.359375 -3.882812 36.050781 -3.738281 35.75 -3.65625 C 35.164062 -3.53125 34.695312 -3.585938 34.34375 -3.828125 C 33.832031 -4.171875 33.445312 -4.585938 33.1875 -5.078125 C 33.53125 -5.273438 33.898438 -5.660156 34.296875 -6.234375 C 35.191406 -7.566406 35.644531 -8.960938 35.65625 -10.421875 C 35.6875 -12.421875 34.789062 -14.03125 32.96875 -15.25 C 32.039062 -15.875 31.046875 -16.210938 29.984375 -16.265625 C 28.929688 -16.328125 27.972656 -16.035156 27.109375 -15.390625 L 22.359375 -8.34375 C 22.609375 -7.789062 22.914062 -7.390625 23.28125 -7.140625 C 23.65625 -6.890625 23.941406 -6.707031 24.140625 -6.59375 C 24.347656 -6.476562 24.554688 -6.375 24.765625 -6.28125 C 25.316406 -6.03125 25.769531 -5.867188 26.125 -5.796875 C 26.789062 -5.691406 27.441406 -6.113281 28.078125 -7.0625 C 28.441406 -7.59375 28.59375 -8.09375 28.53125 -8.5625 C 28.882812 -8.582031 29.242188 -8.46875 29.609375 -8.21875 C 30.421875 -7.675781 30.796875 -6.953125 30.734375 -6.046875 C 30.703125 -5.722656 30.59375 -5.421875 30.40625 -5.140625 C 30.21875 -4.859375 29.910156 -4.566406 29.484375 -4.265625 C 29.597656 -3.347656 29.390625 -2.5 28.859375 -1.71875 C 28.335938 -0.9375 27.632812 -0.425781 26.75 -0.1875 C 26.613281 0.320312 26.429688 0.742188 26.203125 1.078125 C 25.984375 1.410156 25.703125 1.6875 25.359375 1.90625 C 25.023438 2.125 24.703125 2.253906 24.390625 2.296875 C 23.785156 2.378906 23.242188 2.257812 22.765625 1.9375 C 22.429688 1.707031 22.191406 1.410156 22.046875 1.046875 C 22.597656 0.796875 23.066406 0.390625 23.453125 -0.171875 C 24.210938 -1.304688 24.367188 -2.222656 23.921875 -2.921875 C 23.523438 -3.492188 22.972656 -4.015625 22.265625 -4.484375 C 21.566406 -4.960938 20.910156 -5.222656 20.296875 -5.265625 L 14.15625 3.84375 C 14.03125 5.539062 14.976562 7.070312 17 8.4375 C 19.28125 9.96875 21.304688 10.3125 23.078125 9.46875 C 25.128906 8.5 26.773438 7.09375 28.015625 5.25 C 28.378906 4.71875 28.609375 4.269531 28.703125 3.90625 C 29.203125 3.8125 29.613281 3.875 29.9375 4.09375 C 30.269531 4.3125 30.492188 4.519531 30.609375 4.71875 C 30.722656 4.925781 30.800781 5.144531 30.84375 5.375 C 30.914062 5.894531 30.832031 6.328125 30.59375 6.671875 L 29.890625 7.484375 C 29.734375 7.710938 29.664062 7.941406 29.6875 8.171875 C 29.757812 8.585938 29.71875 8.90625 29.5625 9.125 C 29.414062 9.351562 29.164062 9.578125 28.8125 9.796875 C 28.988281 10.140625 29.082031 10.539062 29.09375 11 C 29.113281 11.46875 29.007812 11.863281 28.78125 12.1875 C 28.320312 12.882812 27.617188 13.304688 26.671875 13.453125 C 26.671875 13.992188 26.4375 14.601562 25.96875 15.28125 C 25.507812 15.96875 24.921875 16.421875 24.203125 16.640625 C 23.492188 16.859375 22.820312 16.753906 22.1875 16.328125 C 21.84375 16.097656 21.515625 15.828125 21.203125 15.515625 C 21.429688 15.273438 21.632812 15.019531 21.8125 14.75 C 22.195312 14.195312 22.132812 13.75 21.625 13.40625 C 21.0625 13.019531 20.414062 12.75 19.6875 12.59375 C 17.96875 12.226562 16.242188 11.46875 14.515625 10.3125 C 12.796875 9.15625 11.488281 7.945312 10.59375 6.6875 C 9.664062 6.707031 8.78125 6.4375 7.9375 5.875 Z M 9.828125 -0.40625 C 10.585938 -0.226562 11.453125 -0.796875 12.421875 -2.109375 C 13.421875 -3.421875 14.726562 -5.273438 16.34375 -7.671875 C 17.957031 -10.078125 19.023438 -11.679688 19.546875 -12.484375 C 20.078125 -13.285156 20.503906 -13.925781 20.828125 -14.40625 C 21.753906 -15.875 22.195312 -16.832031 22.15625 -17.28125 C 22.125 -17.738281 22.039062 -18.085938 21.90625 -18.328125 C 19.0625 -14.109375 17.363281 -11.753906 16.8125 -11.265625 C 16.332031 -10.890625 15.695312 -10.820312 14.90625 -11.0625 C 15.445312 -10.3125 15.640625 -9.722656 15.484375 -9.296875 C 15.253906 -8.628906 13.898438 -6.453125 11.421875 -2.765625 Z M 14.53125 2.515625 C 14.5 2.546875 14.488281 2.582031 14.5 2.625 Z M 14.53125 2.515625 "/></g></g></g></g></g><g transform="matrix(1, 0, 0, 1, 103, 287)"><g clip-path="url(#9caf176445)"><g fill="#4d4d4d" fill-opacity="1"><g transform="translate(5.497742, 30.159893)"><g><path d="M 6.203125 3.625 C 5.585938 3.289062 5.117188 2.847656 4.796875 2.296875 C 4.160156 2.347656 3.632812 2.265625 3.21875 2.046875 C 2.8125 1.835938 2.492188 1.625 2.265625 1.40625 C 2.046875 1.195312 1.863281 0.984375 1.71875 0.765625 C 1.4375 0.296875 1.390625 -0.117188 1.578125 -0.484375 C 1.679688 -0.671875 1.828125 -0.800781 2.015625 -0.875 C 2.128906 -0.613281 2.347656 -0.398438 2.671875 -0.234375 C 3.515625 0.210938 4.28125 0.164062 4.96875 -0.375 L 8.59375 -7.28125 C 8.820312 -7.707031 8.90625 -8.078125 8.84375 -8.390625 C 8.75 -8.921875 8.445312 -9.523438 7.9375 -10.203125 C 8.71875 -10.160156 9.269531 -10.195312 9.59375 -10.3125 C 10.09375 -10.507812 10.460938 -10.832031 10.703125 -11.28125 L 13.828125 -17.25 C 13.890625 -18.132812 13.5 -18.800781 12.65625 -19.25 C 12.332031 -19.414062 12.035156 -19.472656 11.765625 -19.421875 C 11.722656 -19.617188 11.75 -19.804688 11.84375 -19.984375 C 11.9375 -20.171875 12.082031 -20.3125 12.28125 -20.40625 C 12.476562 -20.5 12.695312 -20.5625 12.9375 -20.59375 C 13.507812 -20.625 14.078125 -20.492188 14.640625 -20.203125 C 15.203125 -19.910156 15.640625 -19.484375 15.953125 -18.921875 C 16.597656 -18.972656 17.21875 -18.84375 17.8125 -18.53125 C 18.46875 -18.1875 18.953125 -17.710938 19.265625 -17.109375 C 20.535156 -16.992188 21.6875 -16.660156 22.71875 -16.109375 C 23.757812 -15.566406 24.648438 -14.972656 25.390625 -14.328125 C 26.140625 -13.679688 26.765625 -13 27.265625 -12.28125 C 28.335938 -10.695312 28.726562 -9.179688 28.4375 -7.734375 C 28.269531 -6.921875 28.4375 -6.164062 28.9375 -5.46875 C 27.914062 -5.34375 27.132812 -4.988281 26.59375 -4.40625 C 25.425781 -3.132812 24.117188 -2.585938 22.671875 -2.765625 C 24.179688 -1.359375 24.722656 0.398438 24.296875 2.515625 C 24.148438 3.265625 24.320312 4.035156 24.8125 4.828125 C 23.863281 4.835938 23.050781 5.1875 22.375 5.875 C 21.707031 6.5625 20.894531 7.070312 19.9375 7.40625 C 18.988281 7.738281 17.992188 7.90625 16.953125 7.90625 C 14.941406 7.875 12.941406 7.335938 10.953125 6.296875 C 9.773438 5.671875 8.832031 4.90625 8.125 4 C 7.46875 4.070312 6.828125 3.945312 6.203125 3.625 Z M 17.96875 -6.109375 C 18.800781 -5.671875 19.488281 -5.5625 20.03125 -5.78125 C 20.613281 -5.988281 21.164062 -6.585938 21.6875 -7.578125 L 23.390625 -10.828125 C 23.691406 -11.390625 23.644531 -12.035156 23.25 -12.765625 C 22.914062 -13.378906 22.523438 -13.800781 22.078125 -14.03125 C 21.628906 -14.269531 21.234375 -14.410156 20.890625 -14.453125 C 20.546875 -14.492188 20.207031 -14.484375 19.875 -14.421875 C 19.1875 -14.273438 18.703125 -13.925781 18.421875 -13.375 L 15.328125 -7.5 Z M 25.0625 -12.046875 C 25.007812 -11.171875 24.625 -10.046875 23.90625 -8.671875 C 22.84375 -6.648438 22.023438 -5.410156 21.453125 -4.953125 C 21.878906 -4.828125 22.410156 -5.03125 23.046875 -5.5625 C 23.285156 -5.769531 23.503906 -6 23.703125 -6.25 C 23.898438 -6.5 24.054688 -6.691406 24.171875 -6.828125 C 24.285156 -6.972656 24.40625 -7.082031 24.53125 -7.15625 C 24.789062 -7.3125 25.144531 -7.359375 25.59375 -7.296875 C 25.269531 -7.617188 25.097656 -7.875 25.078125 -8.0625 C 25.035156 -8.28125 25.085938 -8.617188 25.234375 -9.078125 C 25.378906 -9.546875 25.46875 -9.941406 25.5 -10.265625 C 25.539062 -10.585938 25.546875 -10.867188 25.515625 -11.109375 C 25.460938 -11.554688 25.3125 -11.867188 25.0625 -12.046875 Z M 7.0625 -1.0625 C 7.625 -1 8.203125 -1.484375 8.796875 -2.515625 C 9.410156 -3.535156 10.207031 -4.972656 11.1875 -6.828125 C 12.164062 -8.691406 12.8125 -9.929688 13.125 -10.546875 C 13.445312 -11.160156 13.703125 -11.660156 13.890625 -12.046875 C 14.441406 -13.160156 14.6875 -13.882812 14.625 -14.21875 C 14.5625 -14.550781 14.472656 -14.796875 14.359375 -14.953125 C 12.640625 -11.679688 11.601562 -9.847656 11.25 -9.453125 C 10.925781 -9.148438 10.460938 -9.054688 9.859375 -9.171875 C 10.328125 -8.660156 10.523438 -8.25 10.453125 -7.9375 C 10.328125 -7.425781 9.515625 -5.75 8.015625 -2.90625 Z M 10.859375 1.015625 C 10.515625 1.660156 10.476562 2.328125 10.75 3.015625 C 11.019531 3.660156 11.488281 4.160156 12.15625 4.515625 C 12.800781 4.859375 13.425781 5.003906 14.03125 4.953125 C 15.164062 4.847656 15.914062 4.4375 16.28125 3.71875 L 18.46875 -0.40625 C 18.914062 -1.269531 18.976562 -2.0625 18.65625 -2.78125 C 18.375 -3.394531 17.851562 -3.898438 17.09375 -4.296875 L 14.390625 -5.71875 Z M 20.46875 -1.953125 C 20.445312 -1.335938 19.953125 -0.101562 18.984375 1.75 C 17.753906 4.070312 16.945312 5.390625 16.5625 5.703125 C 16.769531 5.785156 17.09375 5.660156 17.53125 5.328125 C 17.976562 4.992188 18.367188 4.613281 18.703125 4.1875 C 19.035156 3.757812 19.257812 3.46875 19.375 3.3125 C 19.5 3.15625 19.625 3.023438 19.75 2.921875 C 20.0625 2.722656 20.425781 2.660156 20.84375 2.734375 C 20.375 2.265625 20.234375 1.734375 20.421875 1.140625 C 20.609375 0.546875 20.726562 0.078125 20.78125 -0.265625 C 20.832031 -0.609375 20.851562 -0.890625 20.84375 -1.109375 C 20.820312 -1.503906 20.695312 -1.785156 20.46875 -1.953125 Z M 20.46875 -1.953125 "/></g></g></g><g fill="#4d4d4d" fill-opacity="1"><g transform="translate(32.055427, 43.453757)"><g><path d="M 6.765625 2.359375 C 6.097656 2.160156 5.554688 1.828125 5.140625 1.359375 C 4.523438 1.515625 3.992188 1.523438 3.546875 1.390625 C 3.109375 1.253906 2.757812 1.109375 2.5 0.953125 C 2.238281 0.796875 2.015625 0.617188 1.828125 0.421875 C 1.472656 0.015625 1.351562 -0.378906 1.46875 -0.765625 C 1.53125 -0.972656 1.644531 -1.132812 1.8125 -1.25 C 1.976562 -1.007812 2.238281 -0.835938 2.59375 -0.734375 C 3.5 -0.460938 4.238281 -0.660156 4.8125 -1.328125 L 7.0625 -8.796875 C 7.207031 -9.265625 7.210938 -9.640625 7.078125 -9.921875 C 6.890625 -10.390625 6.484375 -10.914062 5.859375 -11.5 C 6.628906 -11.601562 7.160156 -11.75 7.453125 -11.9375 C 7.910156 -12.21875 8.210938 -12.609375 8.359375 -13.109375 L 10.3125 -19.5625 C 10.195312 -20.445312 9.6875 -21.023438 8.78125 -21.296875 C 8.425781 -21.398438 8.113281 -21.398438 7.84375 -21.296875 C 7.78125 -21.484375 7.773438 -21.675781 7.828125 -21.875 C 7.890625 -22.070312 8.003906 -22.238281 8.171875 -22.375 C 8.347656 -22.507812 8.554688 -22.609375 8.796875 -22.671875 C 9.347656 -22.816406 9.925781 -22.796875 10.53125 -22.609375 C 11.144531 -22.429688 11.65625 -22.097656 12.0625 -21.609375 C 12.6875 -21.785156 13.335938 -21.769531 14.015625 -21.5625 C 14.703125 -21.351562 15.265625 -20.96875 15.703125 -20.40625 C 16.898438 -20.476562 18.203125 -20.300781 19.609375 -19.875 C 20.660156 -19.5625 21.523438 -19.191406 22.203125 -18.765625 L 23.453125 -17.984375 C 23.597656 -17.898438 23.753906 -17.832031 23.921875 -17.78125 C 24.191406 -17.695312 24.382812 -17.859375 24.5 -18.265625 C 24.53125 -18.367188 24.554688 -18.554688 24.578125 -18.828125 C 24.878906 -18.785156 25.242188 -18.695312 25.671875 -18.5625 C 26.109375 -18.425781 26.4375 -18.171875 26.65625 -17.796875 C 26.875 -17.421875 26.898438 -16.960938 26.734375 -16.421875 C 26.578125 -15.878906 26.359375 -15.503906 26.078125 -15.296875 C 26.242188 -14.796875 26.238281 -14.253906 26.0625 -13.671875 C 25.882812 -13.085938 25.535156 -12.660156 25.015625 -12.390625 C 25.046875 -12.046875 25.015625 -11.726562 24.921875 -11.4375 C 24.835938 -11.15625 24.710938 -10.910156 24.546875 -10.703125 C 24.378906 -10.492188 24.195312 -10.328125 24 -10.203125 C 23.632812 -9.992188 23.300781 -9.9375 23 -10.03125 C 22.582031 -10.15625 22.222656 -10.359375 21.921875 -10.640625 C 22.117188 -10.859375 22.289062 -11.207031 22.4375 -11.6875 C 22.769531 -12.800781 22.785156 -13.863281 22.484375 -14.875 C 22.066406 -16.269531 21.097656 -17.195312 19.578125 -17.65625 C 18.796875 -17.882812 18.035156 -17.898438 17.296875 -17.703125 C 16.554688 -17.515625 15.957031 -17.113281 15.5 -16.5 L 13.71875 -10.59375 C 14.007812 -10.269531 14.304688 -10.0625 14.609375 -9.96875 C 14.921875 -9.875 15.15625 -9.800781 15.3125 -9.75 C 15.476562 -9.707031 15.644531 -9.679688 15.8125 -9.671875 C 16.257812 -9.609375 16.609375 -9.59375 16.859375 -9.625 C 17.347656 -9.707031 17.710938 -10.140625 17.953125 -10.921875 C 18.085938 -11.378906 18.085938 -11.757812 17.953125 -12.0625 C 18.191406 -12.144531 18.46875 -12.140625 18.78125 -12.046875 C 19.457031 -11.847656 19.863281 -11.425781 20 -10.78125 C 20.050781 -10.550781 20.039062 -10.316406 19.96875 -10.078125 C 19.90625 -9.847656 19.757812 -9.578125 19.53125 -9.265625 C 19.800781 -8.671875 19.835938 -8.039062 19.640625 -7.375 C 19.441406 -6.71875 19.0625 -6.210938 18.5 -5.859375 C 18.519531 -5.492188 18.488281 -5.171875 18.40625 -4.890625 C 18.320312 -4.609375 18.1875 -4.351562 18 -4.125 C 17.8125 -3.90625 17.613281 -3.742188 17.40625 -3.640625 C 17.007812 -3.453125 16.613281 -3.414062 16.21875 -3.53125 C 15.925781 -3.625 15.691406 -3.78125 15.515625 -4 C 15.835938 -4.300781 16.070312 -4.691406 16.21875 -5.171875 C 16.5 -6.117188 16.410156 -6.78125 15.953125 -7.15625 C 15.554688 -7.46875 15.0625 -7.710938 14.46875 -7.890625 C 13.882812 -8.066406 13.378906 -8.109375 12.953125 -8.015625 L 10.640625 -0.390625 C 10.910156 0.828125 11.894531 1.691406 13.59375 2.203125 C 15.5 2.773438 16.984375 2.578125 18.046875 1.609375 C 19.242188 0.503906 20.070312 -0.820312 20.53125 -2.375 C 20.664062 -2.820312 20.734375 -3.179688 20.734375 -3.453125 C 21.078125 -3.628906 21.382812 -3.675781 21.65625 -3.59375 C 21.925781 -3.507812 22.117188 -3.40625 22.234375 -3.28125 C 22.359375 -3.164062 22.457031 -3.035156 22.53125 -2.890625 C 22.695312 -2.546875 22.738281 -2.226562 22.65625 -1.9375 L 22.328125 -1.21875 C 22.273438 -1.03125 22.28125 -0.863281 22.34375 -0.71875 C 22.46875 -0.4375 22.503906 -0.203125 22.453125 -0.015625 C 22.398438 0.171875 22.273438 0.378906 22.078125 0.609375 C 22.273438 0.804688 22.425781 1.0625 22.53125 1.375 C 22.632812 1.695312 22.644531 2 22.5625 2.28125 C 22.382812 2.851562 21.984375 3.296875 21.359375 3.609375 C 21.492188 3.972656 21.472656 4.441406 21.296875 5.015625 C 21.128906 5.585938 20.816406 6.023438 20.359375 6.328125 C 19.910156 6.640625 19.421875 6.71875 18.890625 6.5625 C 18.609375 6.476562 18.316406 6.359375 18.015625 6.203125 C 18.128906 5.984375 18.21875 5.765625 18.28125 5.546875 C 18.425781 5.078125 18.289062 4.78125 17.875 4.65625 C 17.394531 4.507812 16.882812 4.460938 16.34375 4.515625 C 15.082031 4.617188 13.726562 4.453125 12.28125 4.015625 C 10.84375 3.585938 9.675781 3.039062 8.78125 2.375 C 8.144531 2.582031 7.472656 2.578125 6.765625 2.359375 Z M 6.71875 -2.390625 C 7.289062 -2.429688 7.773438 -3.015625 8.171875 -4.140625 C 8.566406 -5.253906 9.066406 -6.816406 9.671875 -8.828125 C 10.285156 -10.847656 10.6875 -12.1875 10.875 -12.84375 C 11.070312 -13.507812 11.226562 -14.050781 11.34375 -14.46875 C 11.675781 -15.664062 11.78125 -16.421875 11.65625 -16.734375 C 11.53125 -17.046875 11.394531 -17.269531 11.25 -17.40625 C 10.175781 -13.875 9.507812 -11.878906 9.25 -11.421875 C 8.976562 -11.054688 8.546875 -10.867188 7.953125 -10.859375 C 8.492188 -10.460938 8.765625 -10.101562 8.765625 -9.78125 C 8.722656 -9.257812 8.238281 -7.457031 7.3125 -4.375 Z M 10.609375 -1.375 C 10.597656 -1.34375 10.59375 -1.3125 10.59375 -1.28125 Z M 10.609375 -1.375 "/></g></g></g><g fill="#4d4d4d" fill-opacity="1"><g transform="translate(59.425127, 51.240495)"><g><path d="M 8.96875 0.703125 C 8.394531 0.984375 7.765625 1.085938 7.078125 1.015625 C 6.398438 0.953125 5.804688 0.726562 5.296875 0.34375 C 4.734375 0.625 4.21875 0.738281 3.75 0.6875 C 3.289062 0.644531 2.914062 0.566406 2.625 0.453125 C 2.34375 0.347656 2.09375 0.21875 1.875 0.0625 C 1.445312 -0.257812 1.253906 -0.625 1.296875 -1.03125 C 1.316406 -1.25 1.398438 -1.425781 1.546875 -1.5625 C 1.742188 -1.375 2.023438 -1.265625 2.390625 -1.234375 C 3.335938 -1.140625 4.03125 -1.46875 4.46875 -2.21875 L 5.25 -9.984375 C 5.289062 -10.460938 5.222656 -10.828125 5.046875 -11.078125 C 4.765625 -11.503906 4.257812 -11.945312 3.53125 -12.40625 C 4.28125 -12.664062 4.773438 -12.914062 5.015625 -13.15625 C 5.410156 -13.507812 5.632812 -13.945312 5.6875 -14.46875 L 6.359375 -21.171875 C 6.085938 -22.023438 5.476562 -22.5 4.53125 -22.59375 C 4.164062 -22.625 3.863281 -22.5625 3.625 -22.40625 C 3.519531 -22.570312 3.476562 -22.757812 3.5 -22.96875 C 3.519531 -23.175781 3.597656 -23.359375 3.734375 -23.515625 C 3.878906 -23.679688 4.054688 -23.820312 4.265625 -23.9375 C 4.785156 -24.175781 5.363281 -24.265625 6 -24.203125 C 6.632812 -24.140625 7.195312 -23.910156 7.6875 -23.515625 C 8.269531 -23.804688 8.894531 -23.914062 9.5625 -23.84375 C 10.238281 -23.78125 10.835938 -23.550781 11.359375 -23.15625 C 12.597656 -23.476562 13.941406 -23.566406 15.390625 -23.421875 C 16.847656 -23.273438 18.050781 -23.019531 19 -22.65625 C 19.957031 -22.300781 20.773438 -21.851562 21.453125 -21.3125 C 22.765625 -20.175781 23.507812 -18.71875 23.6875 -16.9375 C 23.75 -16.125 24.195312 -15.472656 25.03125 -14.984375 C 24.144531 -14.609375 23.53125 -13.925781 23.1875 -12.9375 C 22.457031 -10.894531 21.03125 -9.71875 18.90625 -9.40625 C 19.945312 -9.019531 20.753906 -8.347656 21.328125 -7.390625 C 21.941406 -6.398438 22.1875 -5.285156 22.0625 -4.046875 L 21.890625 -2.46875 C 21.742188 -0.9375 22.144531 0.101562 23.09375 0.65625 C 23.375 0.8125 23.6875 0.90625 24.03125 0.9375 C 24.375 0.96875 24.675781 0.910156 24.9375 0.765625 C 25.03125 0.929688 25.066406 1.117188 25.046875 1.328125 C 25.023438 1.535156 24.953125 1.722656 24.828125 1.890625 C 24.703125 2.054688 24.546875 2.195312 24.359375 2.3125 C 23.941406 2.5625 23.476562 2.660156 22.96875 2.609375 C 22.46875 2.554688 21.992188 2.375 21.546875 2.0625 C 20.609375 2.457031 19.769531 2.421875 19.03125 1.953125 C 18.71875 2.097656 18.394531 2.15625 18.0625 2.125 C 17.738281 2.09375 17.4375 1.988281 17.15625 1.8125 C 16.875 1.632812 16.628906 1.363281 16.421875 1 C 15.992188 0.226562 15.859375 -0.914062 16.015625 -2.4375 L 16.125 -3.59375 C 16.375 -6.039062 15.835938 -7.695312 14.515625 -8.5625 C 14.078125 -8.863281 13.546875 -9.046875 12.921875 -9.109375 L 11.0625 -9.296875 L 10.28125 -1.5625 C 10.5 -0.789062 11.003906 -0.363281 11.796875 -0.28125 C 12.160156 -0.25 12.46875 -0.304688 12.71875 -0.453125 C 12.820312 -0.296875 12.859375 -0.0664062 12.828125 0.234375 C 12.804688 0.546875 12.609375 0.832031 12.234375 1.09375 C 11.867188 1.351562 11.351562 1.445312 10.6875 1.375 C 10.03125 1.3125 9.457031 1.085938 8.96875 0.703125 Z M 15.34375 -21.3125 C 13.3125 -21.519531 12.21875 -20.835938 12.0625 -19.265625 L 11.40625 -12.78125 C 11.351562 -12.226562 11.535156 -11.835938 11.953125 -11.609375 C 12.335938 -11.378906 12.9375 -11.222656 13.75 -11.140625 C 14.5625 -11.054688 15.128906 -11.046875 15.453125 -11.109375 C 15.785156 -11.171875 16.082031 -11.300781 16.34375 -11.5 C 16.863281 -11.90625 17.175781 -12.640625 17.28125 -13.703125 L 17.734375 -18.34375 C 17.867188 -19.65625 17.40625 -20.554688 16.34375 -21.046875 C 16.039062 -21.191406 15.707031 -21.28125 15.34375 -21.3125 Z M 18.984375 -19.921875 C 19.222656 -19.140625 19.257812 -17.9375 19.09375 -16.3125 C 18.820312 -13.519531 18.53125 -11.863281 18.21875 -11.34375 C 18.800781 -11.394531 19.289062 -12.128906 19.6875 -13.546875 L 19.890625 -14.1875 C 20.078125 -14.863281 20.460938 -15.257812 21.046875 -15.375 C 20.640625 -15.5625 20.390625 -15.757812 20.296875 -15.96875 C 20.191406 -16.195312 20.113281 -16.582031 20.0625 -17.125 C 20.007812 -17.675781 19.945312 -18.117188 19.875 -18.453125 C 19.8125 -18.796875 19.726562 -19.066406 19.625 -19.265625 C 19.457031 -19.628906 19.242188 -19.847656 18.984375 -19.921875 Z M 6.140625 -3.625 C 6.691406 -3.78125 7.050781 -4.445312 7.21875 -5.625 C 7.40625 -6.789062 7.601562 -8.421875 7.8125 -10.515625 C 8.019531 -12.609375 8.15625 -14 8.21875 -14.6875 C 8.28125 -15.382812 8.328125 -15.945312 8.359375 -16.375 C 8.453125 -17.625 8.40625 -18.390625 8.21875 -18.671875 C 8.039062 -18.953125 7.867188 -19.140625 7.703125 -19.234375 C 7.335938 -15.554688 7.066406 -13.476562 6.890625 -13 C 6.703125 -12.582031 6.3125 -12.316406 5.71875 -12.203125 C 6.332031 -11.898438 6.664062 -11.59375 6.71875 -11.28125 C 6.789062 -10.75 6.664062 -8.882812 6.34375 -5.6875 Z M 17.53125 -6.875 C 17.882812 -6.351562 18.023438 -5.75 17.953125 -5.0625 L 17.75 -2.96875 C 17.570312 -1.21875 17.832031 -0.25 18.53125 -0.0625 C 18.71875 -0.0078125 18.898438 0.00390625 19.078125 -0.015625 C 18.765625 -0.648438 18.640625 -1.300781 18.703125 -1.96875 L 18.921875 -4.171875 C 19.003906 -5.015625 18.945312 -5.625 18.75 -6 C 18.40625 -6.625 18 -6.914062 17.53125 -6.875 Z M 17.53125 -6.875 "/></g></g></g><g fill="#4d4d4d" fill-opacity="1"><g transform="translate(89.60674, 53.681735)"><g><path d="M 7.171875 -0.390625 C 6.472656 -0.316406 5.835938 -0.421875 5.265625 -0.703125 C 4.765625 -0.316406 4.28125 -0.0976562 3.8125 -0.046875 C 3.351562 -0.00390625 2.96875 -0.0078125 2.65625 -0.0625 C 2.351562 -0.113281 2.082031 -0.195312 1.84375 -0.3125 C 1.375 -0.539062 1.117188 -0.859375 1.078125 -1.265625 C 1.054688 -1.484375 1.097656 -1.675781 1.203125 -1.84375 C 1.441406 -1.695312 1.742188 -1.640625 2.109375 -1.671875 C 3.054688 -1.765625 3.664062 -2.222656 3.9375 -3.046875 L 3.1875 -10.8125 C 3.132812 -11.289062 3 -11.644531 2.78125 -11.875 C 2.414062 -12.25 1.828125 -12.585938 1.015625 -12.890625 C 1.691406 -13.285156 2.132812 -13.617188 2.34375 -13.890625 C 2.65625 -14.328125 2.785156 -14.796875 2.734375 -15.296875 L 2.078125 -22 C 1.648438 -22.78125 0.960938 -23.125 0.015625 -23.03125 C -0.347656 -23 -0.632812 -22.882812 -0.84375 -22.6875 C -0.976562 -22.820312 -1.054688 -22.992188 -1.078125 -23.203125 C -1.097656 -23.410156 -1.050781 -23.609375 -0.9375 -23.796875 C -0.832031 -23.992188 -0.691406 -24.171875 -0.515625 -24.328125 C -0.046875 -24.648438 0.503906 -24.84375 1.140625 -24.90625 C 1.773438 -24.96875 2.367188 -24.859375 2.921875 -24.578125 C 3.441406 -24.960938 4.039062 -25.191406 4.71875 -25.265625 C 5.445312 -25.335938 6.101562 -25.210938 6.6875 -24.890625 C 7.820312 -25.484375 8.972656 -25.835938 10.140625 -25.953125 C 11.304688 -26.066406 12.375 -26.0625 13.34375 -25.9375 C 14.320312 -25.8125 15.21875 -25.578125 16.03125 -25.234375 C 17.800781 -24.503906 18.953125 -23.457031 19.484375 -22.09375 C 19.804688 -21.320312 20.375 -20.78125 21.1875 -20.46875 C 20.382812 -19.800781 19.914062 -19.078125 19.78125 -18.296875 C 19.519531 -16.585938 18.734375 -15.410156 17.421875 -14.765625 C 19.460938 -14.410156 20.882812 -13.238281 21.6875 -11.25 C 21.96875 -10.550781 22.53125 -10.003906 23.375 -9.609375 C 22.601562 -9.078125 22.125 -8.335938 21.9375 -7.390625 C 21.75 -6.441406 21.347656 -5.566406 20.734375 -4.765625 C 20.117188 -3.960938 19.367188 -3.28125 18.484375 -2.71875 C 16.804688 -1.625 14.847656 -0.96875 12.609375 -0.75 C 11.285156 -0.613281 10.078125 -0.738281 8.984375 -1.125 C 8.460938 -0.695312 7.859375 -0.453125 7.171875 -0.390625 Z M 11.65625 -14.984375 C 12.59375 -15.066406 13.226562 -15.351562 13.5625 -15.84375 C 13.925781 -16.332031 14.054688 -17.132812 13.953125 -18.25 L 13.59375 -21.90625 C 13.53125 -22.539062 13.144531 -23.050781 12.4375 -23.4375 C 11.800781 -23.769531 11.226562 -23.910156 10.71875 -23.859375 C 10.21875 -23.816406 9.8125 -23.71875 9.5 -23.5625 C 9.195312 -23.40625 8.925781 -23.207031 8.6875 -22.96875 C 8.195312 -22.46875 7.976562 -21.910156 8.03125 -21.296875 L 8.6875 -14.6875 Z M 14.3125 -23.84375 C 14.757812 -23.082031 15.054688 -21.925781 15.203125 -20.375 C 15.429688 -18.101562 15.425781 -16.617188 15.1875 -15.921875 C 15.625 -16.046875 15.960938 -16.503906 16.203125 -17.296875 C 16.273438 -17.597656 16.328125 -17.910156 16.359375 -18.234375 C 16.390625 -18.566406 16.410156 -18.820312 16.421875 -19 C 16.441406 -19.175781 16.488281 -19.332031 16.5625 -19.46875 C 16.695312 -19.726562 16.960938 -19.953125 17.359375 -20.140625 C 16.921875 -20.234375 16.640625 -20.351562 16.515625 -20.5 C 16.359375 -20.664062 16.210938 -20.984375 16.078125 -21.453125 C 15.953125 -21.921875 15.816406 -22.296875 15.671875 -22.578125 C 15.535156 -22.867188 15.382812 -23.109375 15.21875 -23.296875 C 14.925781 -23.640625 14.625 -23.820312 14.3125 -23.84375 Z M 5.3125 -4.765625 C 5.820312 -5.023438 6.046875 -5.742188 5.984375 -6.921875 C 5.921875 -8.117188 5.785156 -9.765625 5.578125 -11.859375 C 5.378906 -13.953125 5.242188 -15.34375 5.171875 -16.03125 C 5.097656 -16.71875 5.035156 -17.273438 4.984375 -17.703125 C 4.828125 -18.941406 4.628906 -19.679688 4.390625 -19.921875 C 4.160156 -20.160156 3.957031 -20.3125 3.78125 -20.375 C 4.132812 -16.707031 4.273438 -14.613281 4.203125 -14.09375 C 4.097656 -13.644531 3.769531 -13.304688 3.21875 -13.078125 C 3.875 -12.910156 4.257812 -12.675781 4.375 -12.375 C 4.539062 -11.882812 4.785156 -10.035156 5.109375 -6.828125 Z M 9.625 -5.125 C 9.695312 -4.382812 10.035156 -3.800781 10.640625 -3.375 C 11.222656 -2.976562 11.894531 -2.816406 12.65625 -2.890625 C 13.382812 -2.960938 13.976562 -3.1875 14.4375 -3.5625 C 15.332031 -4.28125 15.738281 -5.039062 15.65625 -5.84375 L 15.203125 -10.484375 C 15.109375 -11.453125 14.722656 -12.148438 14.046875 -12.578125 C 13.492188 -12.921875 12.785156 -13.050781 11.921875 -12.96875 L 8.890625 -12.671875 Z M 16.046875 -12.90625 C 16.359375 -12.351562 16.613281 -11.039062 16.8125 -8.96875 C 17.070312 -6.34375 17.125 -4.789062 16.96875 -4.3125 C 17.195312 -4.375 17.398438 -4.664062 17.578125 -5.1875 C 17.765625 -5.71875 17.878906 -6.25 17.921875 -6.78125 C 17.960938 -7.320312 17.988281 -7.6875 18 -7.875 C 18.019531 -8.070312 18.0625 -8.25 18.125 -8.40625 C 18.257812 -8.738281 18.519531 -8.992188 18.90625 -9.171875 C 18.257812 -9.304688 17.847656 -9.671875 17.671875 -10.265625 C 17.503906 -10.859375 17.347656 -11.3125 17.203125 -11.625 C 17.066406 -11.945312 16.929688 -12.195312 16.796875 -12.375 C 16.578125 -12.695312 16.328125 -12.875 16.046875 -12.90625 Z M 16.046875 -12.90625 "/></g></g></g><g fill="#4d4d4d" fill-opacity="1"><g transform="translate(119.101117, 50.202282)"><g><path d="M 6.96875 -1.75 C 6.300781 -1.550781 5.660156 -1.535156 5.046875 -1.703125 C 4.617188 -1.222656 4.179688 -0.914062 3.734375 -0.78125 C 3.296875 -0.65625 2.921875 -0.582031 2.609375 -0.5625 C 2.296875 -0.550781 2.015625 -0.582031 1.765625 -0.65625 C 1.242188 -0.800781 0.925781 -1.066406 0.8125 -1.453125 C 0.75 -1.660156 0.753906 -1.851562 0.828125 -2.03125 C 1.085938 -1.925781 1.394531 -1.925781 1.75 -2.03125 C 2.65625 -2.300781 3.171875 -2.875 3.296875 -3.75 L 1.0625 -11.21875 C 0.925781 -11.6875 0.734375 -12.003906 0.484375 -12.171875 C 0.0546875 -12.460938 -0.582031 -12.679688 -1.4375 -12.828125 C -0.84375 -13.335938 -0.476562 -13.75 -0.34375 -14.0625 C -0.113281 -14.550781 -0.0703125 -15.046875 -0.21875 -15.546875 L -2.140625 -22 C -2.710938 -22.675781 -3.453125 -22.878906 -4.359375 -22.609375 C -4.710938 -22.503906 -4.972656 -22.335938 -5.140625 -22.109375 C -5.304688 -22.222656 -5.414062 -22.378906 -5.46875 -22.578125 C -5.53125 -22.785156 -5.523438 -22.988281 -5.453125 -23.1875 C -5.390625 -23.394531 -5.273438 -23.59375 -5.109375 -23.78125 C -4.722656 -24.195312 -4.222656 -24.492188 -3.609375 -24.671875 C -3.003906 -24.847656 -2.398438 -24.851562 -1.796875 -24.6875 C -1.359375 -25.164062 -0.800781 -25.503906 -0.125 -25.703125 C 0.550781 -25.910156 1.226562 -25.90625 1.90625 -25.6875 C 2.863281 -26.394531 4.050781 -26.957031 5.46875 -27.375 C 6.519531 -27.6875 7.441406 -27.851562 8.234375 -27.875 L 9.703125 -27.90625 C 9.878906 -27.914062 10.050781 -27.941406 10.21875 -27.984375 C 10.5 -28.066406 10.578125 -28.316406 10.453125 -28.734375 C 10.421875 -28.828125 10.332031 -28.988281 10.1875 -29.21875 C 10.46875 -29.351562 10.820312 -29.484375 11.25 -29.609375 C 11.6875 -29.742188 12.101562 -29.710938 12.5 -29.515625 C 12.894531 -29.328125 13.171875 -28.957031 13.328125 -28.40625 C 13.492188 -27.863281 13.515625 -27.429688 13.390625 -27.109375 C 13.785156 -26.785156 14.070312 -26.332031 14.25 -25.75 C 14.425781 -25.164062 14.375 -24.613281 14.09375 -24.09375 C 14.300781 -23.832031 14.445312 -23.554688 14.53125 -23.265625 C 14.613281 -22.972656 14.644531 -22.691406 14.625 -22.421875 C 14.601562 -22.160156 14.550781 -21.925781 14.46875 -21.71875 C 14.257812 -21.332031 14.003906 -21.097656 13.703125 -21.015625 C 13.285156 -20.890625 12.875 -20.863281 12.46875 -20.9375 C 12.519531 -21.21875 12.472656 -21.597656 12.328125 -22.078125 C 11.992188 -23.191406 11.421875 -24.085938 10.609375 -24.765625 C 9.503906 -25.710938 8.191406 -25.957031 6.671875 -25.5 C 5.890625 -25.269531 5.238281 -24.867188 4.71875 -24.296875 C 4.207031 -23.734375 3.925781 -23.066406 3.875 -22.296875 L 5.640625 -16.390625 C 6.066406 -16.265625 6.429688 -16.25 6.734375 -16.34375 C 7.046875 -16.4375 7.28125 -16.507812 7.4375 -16.5625 C 7.601562 -16.625 7.757812 -16.691406 7.90625 -16.765625 C 8.300781 -16.953125 8.597656 -17.132812 8.796875 -17.3125 C 9.160156 -17.644531 9.226562 -18.203125 9 -18.984375 C 8.863281 -19.441406 8.65625 -19.765625 8.375 -19.953125 C 8.53125 -20.148438 8.757812 -20.296875 9.0625 -20.390625 C 9.75 -20.585938 10.320312 -20.457031 10.78125 -20 C 10.957031 -19.832031 11.078125 -19.628906 11.140625 -19.390625 C 11.210938 -19.160156 11.238281 -18.851562 11.21875 -18.46875 C 11.78125 -18.113281 12.15625 -17.609375 12.34375 -16.953125 C 12.539062 -16.296875 12.503906 -15.664062 12.234375 -15.0625 C 12.460938 -14.757812 12.617188 -14.46875 12.703125 -14.1875 C 12.785156 -13.914062 12.804688 -13.632812 12.765625 -13.34375 C 12.722656 -13.050781 12.648438 -12.800781 12.546875 -12.59375 C 12.316406 -12.226562 12 -11.988281 11.59375 -11.875 C 11.3125 -11.78125 11.035156 -11.78125 10.765625 -11.875 C 10.867188 -12.289062 10.847656 -12.738281 10.703125 -13.21875 C 10.421875 -14.175781 9.988281 -14.6875 9.40625 -14.75 C 8.894531 -14.789062 8.34375 -14.722656 7.75 -14.546875 C 7.164062 -14.367188 6.71875 -14.125 6.40625 -13.8125 L 8.671875 -6.171875 C 9.578125 -5.304688 10.878906 -5.125 12.578125 -5.625 C 14.484375 -6.195312 15.609375 -7.175781 15.953125 -8.5625 C 16.359375 -10.15625 16.328125 -11.722656 15.859375 -13.265625 C 15.734375 -13.710938 15.59375 -14.046875 15.4375 -14.265625 C 15.613281 -14.597656 15.835938 -14.804688 16.109375 -14.890625 C 16.390625 -14.972656 16.609375 -15 16.765625 -14.96875 C 16.929688 -14.9375 17.085938 -14.875 17.234375 -14.78125 C 17.566406 -14.59375 17.773438 -14.351562 17.859375 -14.0625 L 17.984375 -13.296875 C 18.046875 -13.109375 18.144531 -12.96875 18.28125 -12.875 C 18.539062 -12.707031 18.695312 -12.53125 18.75 -12.34375 C 18.8125 -12.164062 18.820312 -11.925781 18.78125 -11.625 C 19.050781 -11.5625 19.316406 -11.425781 19.578125 -11.21875 C 19.847656 -11.007812 20.023438 -10.769531 20.109375 -10.5 C 20.285156 -9.914062 20.195312 -9.320312 19.84375 -8.71875 C 20.144531 -8.476562 20.378906 -8.070312 20.546875 -7.5 C 20.722656 -6.925781 20.707031 -6.390625 20.5 -5.890625 C 20.289062 -5.390625 19.914062 -5.054688 19.375 -4.890625 C 19.09375 -4.804688 18.785156 -4.75 18.453125 -4.71875 C 18.429688 -4.96875 18.390625 -5.203125 18.328125 -5.421875 C 18.179688 -5.890625 17.898438 -6.0625 17.484375 -5.9375 C 17.003906 -5.789062 16.554688 -5.546875 16.140625 -5.203125 C 15.148438 -4.421875 13.929688 -3.816406 12.484375 -3.390625 C 11.046875 -2.960938 9.765625 -2.78125 8.640625 -2.84375 C 8.222656 -2.320312 7.664062 -1.957031 6.96875 -1.75 Z M 4.3125 -5.6875 C 4.757812 -6.03125 4.835938 -6.78125 4.546875 -7.9375 C 4.265625 -9.101562 3.820312 -10.691406 3.21875 -12.703125 C 2.625 -14.722656 2.222656 -16.0625 2.015625 -16.71875 C 1.816406 -17.375 1.65625 -17.910156 1.53125 -18.328125 C 1.132812 -19.515625 0.800781 -20.203125 0.53125 -20.390625 C 0.257812 -20.578125 0.03125 -20.6875 -0.15625 -20.71875 C 0.894531 -17.1875 1.429688 -15.15625 1.453125 -14.625 C 1.429688 -14.175781 1.164062 -13.785156 0.65625 -13.453125 C 1.351562 -13.410156 1.78125 -13.25 1.9375 -12.96875 C 2.207031 -12.519531 2.800781 -10.753906 3.71875 -7.671875 Z M 8.109375 -6.96875 C 8.117188 -6.945312 8.132812 -6.925781 8.15625 -6.90625 Z M 8.109375 -6.96875 "/></g></g></g><g fill="#4d4d4d" fill-opacity="1"><g transform="translate(146.245236, 41.661228)"><g><path d="M 7.875 -4.34375 C 7.550781 -3.789062 7.082031 -3.351562 6.46875 -3.03125 C 5.863281 -2.71875 5.242188 -2.585938 4.609375 -2.640625 C 4.285156 -2.085938 3.914062 -1.703125 3.5 -1.484375 C 3.09375 -1.265625 2.738281 -1.125 2.4375 -1.0625 C 2.144531 -1 1.863281 -0.972656 1.59375 -0.984375 C 1.0625 -1.015625 0.703125 -1.210938 0.515625 -1.578125 C 0.410156 -1.765625 0.378906 -1.957031 0.421875 -2.15625 C 0.703125 -2.101562 1.003906 -2.160156 1.328125 -2.328125 C 2.171875 -2.765625 2.5625 -3.425781 2.5 -4.3125 L -1.109375 -11.21875 C -1.335938 -11.644531 -1.59375 -11.914062 -1.875 -12.03125 C -2.34375 -12.238281 -3.007812 -12.332031 -3.875 -12.3125 C -3.382812 -12.9375 -3.101562 -13.410156 -3.03125 -13.734375 C -2.90625 -14.265625 -2.960938 -14.757812 -3.203125 -15.21875 L -6.328125 -21.1875 C -7.015625 -21.738281 -7.78125 -21.796875 -8.625 -21.359375 C -8.945312 -21.191406 -9.164062 -20.976562 -9.28125 -20.71875 C -9.46875 -20.789062 -9.609375 -20.914062 -9.703125 -21.09375 C -9.804688 -21.28125 -9.835938 -21.484375 -9.796875 -21.703125 C -9.765625 -21.921875 -9.691406 -22.140625 -9.578125 -22.359375 C -9.273438 -22.835938 -8.84375 -23.222656 -8.28125 -23.515625 C -7.71875 -23.816406 -7.125 -23.941406 -6.5 -23.890625 C -6.164062 -24.441406 -5.695312 -24.875 -5.09375 -25.1875 C -4.5 -25.5 -3.878906 -25.632812 -3.234375 -25.59375 C -2.378906 -26.539062 -1.300781 -27.351562 0 -28.03125 C 1.289062 -28.71875 2.4375 -29.171875 3.4375 -29.390625 C 4.4375 -29.609375 5.363281 -29.671875 6.21875 -29.578125 C 7.9375 -29.367188 9.359375 -28.5625 10.484375 -27.15625 C 10.972656 -26.53125 11.703125 -26.234375 12.671875 -26.265625 C 12.140625 -25.460938 12 -24.554688 12.25 -23.546875 C 12.769531 -21.441406 12.226562 -19.675781 10.625 -18.25 C 11.707031 -18.488281 12.753906 -18.375 13.765625 -17.90625 C 14.816406 -17.40625 15.628906 -16.601562 16.203125 -15.5 L 16.953125 -14.078125 C 17.660156 -12.722656 18.554688 -12.078125 19.640625 -12.140625 C 19.972656 -12.160156 20.289062 -12.25 20.59375 -12.40625 C 20.90625 -12.570312 21.125 -12.789062 21.25 -13.0625 C 21.425781 -12.976562 21.5625 -12.84375 21.65625 -12.65625 C 21.757812 -12.476562 21.804688 -12.28125 21.796875 -12.0625 C 21.785156 -11.851562 21.726562 -11.648438 21.625 -11.453125 C 21.414062 -11.015625 21.082031 -10.675781 20.625 -10.4375 C 20.175781 -10.195312 19.675781 -10.085938 19.125 -10.109375 C 18.5625 -9.265625 17.84375 -8.832031 16.96875 -8.8125 C 16.789062 -8.519531 16.554688 -8.296875 16.265625 -8.140625 C 15.972656 -7.992188 15.65625 -7.914062 15.3125 -7.90625 C 14.976562 -7.894531 14.628906 -7.988281 14.265625 -8.1875 C 13.492188 -8.59375 12.753906 -9.472656 12.046875 -10.828125 L 11.5 -11.859375 C 10.363281 -14.035156 9.003906 -15.125 7.421875 -15.125 C 6.890625 -15.132812 6.347656 -15 5.796875 -14.71875 L 4.125 -13.84375 L 7.734375 -6.953125 C 8.335938 -6.421875 9 -6.34375 9.71875 -6.71875 C 10.039062 -6.882812 10.257812 -7.097656 10.375 -7.359375 C 10.5625 -7.285156 10.722656 -7.113281 10.859375 -6.84375 C 11.003906 -6.570312 10.992188 -6.226562 10.828125 -5.8125 C 10.660156 -5.394531 10.28125 -5.03125 9.6875 -4.71875 C 9.101562 -4.40625 8.5 -4.28125 7.875 -4.34375 Z M 1.09375 -26.234375 C -0.71875 -25.285156 -1.253906 -24.109375 -0.515625 -22.703125 L 2.5 -16.9375 C 2.757812 -16.445312 3.128906 -16.21875 3.609375 -16.25 C 4.066406 -16.28125 4.65625 -16.484375 5.375 -16.859375 C 6.09375 -17.234375 6.570312 -17.535156 6.8125 -17.765625 C 7.050781 -18.003906 7.226562 -18.28125 7.34375 -18.59375 C 7.550781 -19.21875 7.40625 -20.003906 6.90625 -20.953125 L 4.75 -25.078125 C 4.132812 -26.253906 3.253906 -26.742188 2.109375 -26.546875 C 1.753906 -26.503906 1.414062 -26.398438 1.09375 -26.234375 Z M 4.921875 -27.09375 C 5.546875 -26.570312 6.238281 -25.585938 7 -24.140625 C 8.300781 -21.640625 8.96875 -20.082031 9 -19.46875 C 9.457031 -19.84375 9.460938 -20.726562 9.015625 -22.125 L 8.828125 -22.796875 C 8.617188 -23.453125 8.71875 -23.992188 9.125 -24.421875 C 8.6875 -24.347656 8.375 -24.367188 8.1875 -24.484375 C 7.976562 -24.628906 7.703125 -24.910156 7.359375 -25.328125 C 7.015625 -25.753906 6.71875 -26.09375 6.46875 -26.34375 C 6.226562 -26.59375 6.007812 -26.773438 5.8125 -26.890625 C 5.476562 -27.097656 5.179688 -27.164062 4.921875 -27.09375 Z M 3.140625 -6.40625 C 3.515625 -6.832031 3.453125 -7.585938 2.953125 -8.671875 C 2.453125 -9.742188 1.710938 -11.210938 0.734375 -13.078125 C -0.234375 -14.941406 -0.878906 -16.179688 -1.203125 -16.796875 C -1.535156 -17.410156 -1.804688 -17.898438 -2.015625 -18.265625 C -2.617188 -19.359375 -3.070312 -19.972656 -3.375 -20.109375 C -3.6875 -20.242188 -3.941406 -20.3125 -4.140625 -20.3125 C -2.429688 -17.039062 -1.515625 -15.148438 -1.390625 -14.640625 C -1.316406 -14.191406 -1.5 -13.753906 -1.9375 -13.328125 C -1.257812 -13.421875 -0.8125 -13.347656 -0.59375 -13.109375 C -0.238281 -12.722656 0.679688 -11.101562 2.171875 -8.25 Z M 10.859375 -15.375 C 11.441406 -15.15625 11.894531 -14.734375 12.21875 -14.109375 L 13.203125 -12.25 C 14.015625 -10.695312 14.765625 -10.023438 15.453125 -10.234375 C 15.628906 -10.285156 15.789062 -10.375 15.9375 -10.5 C 15.332031 -10.851562 14.875 -11.328125 14.5625 -11.921875 L 13.53125 -13.890625 C 13.144531 -14.640625 12.757812 -15.113281 12.375 -15.3125 C 11.738281 -15.644531 11.234375 -15.664062 10.859375 -15.375 Z M 10.859375 -15.375 "/></g></g></g></g></g><g transform="matrix(1, 0, 0, 1, 50, 197)"><g clip-path="url(#3d06f6e34e)"><g fill="#4d4d4d" fill-opacity="1"><g transform="translate(0.406696, 17.12215)"><g><path d="M 8.671875 -11.15625 L 8.5 -8.546875 L 8.4375 -8.53125 C 8 -9.1875 7.25 -9.613281 6.1875 -9.8125 C 5.863281 -9.875 5.546875 -9.90625 5.234375 -9.90625 C 4.929688 -9.90625 4.671875 -9.878906 4.453125 -9.828125 C 4.242188 -9.773438 4.0625 -9.695312 3.90625 -9.59375 C 3.570312 -9.382812 3.40625 -9.109375 3.40625 -8.765625 C 3.40625 -8.316406 3.550781 -7.976562 3.84375 -7.75 C 4.195312 -7.476562 4.785156 -7.285156 5.609375 -7.171875 C 6.429688 -7.066406 7.09375 -6.914062 7.59375 -6.71875 C 8.09375 -6.53125 8.5 -6.296875 8.8125 -6.015625 C 9.414062 -5.460938 9.71875 -4.691406 9.71875 -3.703125 C 9.71875 -2.390625 9.226562 -1.382812 8.25 -0.6875 C 7.40625 -0.0820312 6.34375 0.21875 5.0625 0.21875 C 4.03125 0.21875 3.015625 0.0234375 2.015625 -0.359375 C 1.679688 -0.492188 1.390625 -0.644531 1.140625 -0.8125 L 1.234375 -3.78125 L 1.265625 -3.8125 C 2.003906 -2.539062 3.210938 -1.90625 4.890625 -1.90625 C 6.078125 -1.90625 6.863281 -2.191406 7.25 -2.765625 C 7.382812 -2.960938 7.453125 -3.179688 7.453125 -3.421875 C 7.453125 -3.660156 7.410156 -3.859375 7.328125 -4.015625 C 7.253906 -4.171875 7.128906 -4.304688 6.953125 -4.421875 C 6.609375 -4.648438 6.03125 -4.800781 5.21875 -4.875 C 4.40625 -4.957031 3.738281 -5.101562 3.21875 -5.3125 C 2.707031 -5.53125 2.296875 -5.796875 1.984375 -6.109375 C 1.429688 -6.671875 1.15625 -7.460938 1.15625 -8.484375 C 1.15625 -9.546875 1.523438 -10.398438 2.265625 -11.046875 C 3.015625 -11.710938 4.023438 -12.046875 5.296875 -12.046875 C 6.578125 -12.046875 7.703125 -11.75 8.671875 -11.15625 Z M 8.671875 -11.15625 "/></g></g></g><g fill="#4d4d4d" fill-opacity="1"><g transform="translate(11.000786, 17.12215)"><g><path d="M 1.796875 -11.859375 C 2.390625 -11.835938 2.75 -11.828125 2.875 -11.828125 L 3.515625 -11.828125 C 3.828125 -11.828125 4.082031 -11.847656 4.28125 -11.890625 L 4.265625 0 L 1.796875 0 Z M 1.4375 -14.375 C 1.820312 -15 2.257812 -15.582031 2.75 -16.125 L 4.453125 -14.78125 C 4.160156 -14.40625 3.957031 -14.144531 3.84375 -14 L 3.53125 -13.5625 C 3.4375 -13.425781 3.332031 -13.269531 3.21875 -13.09375 Z M 1.4375 -14.375 "/></g></g></g><g fill="#4d4d4d" fill-opacity="1"><g transform="translate(17.07485, 17.12215)"><g><path d="M 1.609375 0 C 1.640625 -0.195312 1.65625 -0.414062 1.65625 -0.65625 L 1.65625 -11.828125 L 3.4375 -11.828125 L 8.15625 -4.40625 L 8.15625 -11.21875 C 8.15625 -11.539062 8.125 -11.742188 8.0625 -11.828125 L 10.46875 -11.828125 C 10.4375 -11.585938 10.421875 -11.328125 10.421875 -11.046875 L 10.421875 0 L 8.5625 0 L 3.921875 -7.125 L 3.921875 0 Z M 1.609375 0 "/></g></g></g><g fill="#4d4d4d" fill-opacity="1"><g transform="translate(29.143055, 17.12215)"><g><path d="M 6.828125 -12.046875 C 7.929688 -12.046875 8.875 -11.851562 9.65625 -11.46875 L 9.65625 -8.75 L 9.640625 -8.734375 C 9.304688 -9.242188 8.609375 -9.578125 7.546875 -9.734375 C 7.234375 -9.796875 6.835938 -9.828125 6.359375 -9.828125 C 5.878906 -9.828125 5.40625 -9.734375 4.9375 -9.546875 C 4.476562 -9.367188 4.097656 -9.113281 3.796875 -8.78125 C 3.222656 -8.132812 2.9375 -7.210938 2.9375 -6.015625 C 2.9375 -4.617188 3.300781 -3.582031 4.03125 -2.90625 C 4.632812 -2.332031 5.4375 -2.046875 6.4375 -2.046875 C 7.5625 -2.046875 8.472656 -2.285156 9.171875 -2.765625 C 9.429688 -2.941406 9.648438 -3.15625 9.828125 -3.40625 L 9.84375 -3.390625 L 9.84375 -0.90625 C 8.9375 -0.15625 7.71875 0.21875 6.1875 0.21875 C 4.375 0.21875 2.957031 -0.351562 1.9375 -1.5 C 0.957031 -2.59375 0.46875 -4.046875 0.46875 -5.859375 C 0.46875 -7.773438 1.003906 -9.28125 2.078125 -10.375 C 3.171875 -11.488281 4.753906 -12.046875 6.828125 -12.046875 Z M 6.828125 -12.046875 "/></g></g></g><g fill="#4d4d4d" fill-opacity="1"><g transform="translate(39.692744, 17.12215)"><g><path d="M 7.46875 -2.140625 C 7.84375 -2.140625 8.097656 -2.171875 8.234375 -2.234375 L 8.28125 -2.234375 L 8.1875 0 L 1.53125 0 L 1.53125 -11.890625 C 1.6875 -11.867188 1.863281 -11.859375 2.0625 -11.859375 L 2.6875 -11.84375 C 3.101562 -11.832031 3.550781 -11.828125 4.03125 -11.828125 C 5.394531 -11.828125 6.738281 -11.847656 8.0625 -11.890625 C 8 -11.367188 7.96875 -10.671875 7.96875 -9.796875 C 7.96875 -9.703125 7.972656 -9.632812 7.984375 -9.59375 L 7.96875 -9.5625 C 7.65625 -9.65625 7.210938 -9.703125 6.640625 -9.703125 L 3.84375 -9.703125 L 3.84375 -7.4375 L 5.953125 -7.4375 C 6.609375 -7.4375 7 -7.453125 7.125 -7.484375 L 7.15625 -5.28125 C 6.875 -5.3125 6.503906 -5.328125 6.046875 -5.328125 L 3.84375 -5.328125 L 3.84375 -2.140625 Z M 7.46875 -2.140625 "/></g></g></g></g></g><g transform="matrix(1, 0, 0, 1, 293, 192)"><g clip-path="url(#e5e99e2007)"><g fill="#4d4d4d" fill-opacity="1"><g transform="translate(0.931115, 16.941247)"><g><path d="M 4.921875 -5.328125 C 5.796875 -6.441406 6.296875 -7.320312 6.421875 -7.96875 C 6.460938 -8.175781 6.484375 -8.367188 6.484375 -8.546875 C 6.484375 -8.984375 6.320312 -9.332031 6 -9.59375 C 5.675781 -9.851562 5.207031 -9.984375 4.59375 -9.984375 C 4.019531 -9.984375 3.425781 -9.832031 2.8125 -9.53125 C 2.25 -9.25 1.847656 -8.929688 1.609375 -8.578125 L 1.5 -8.5625 L 1.5625 -11.21875 C 2.082031 -11.5625 2.8125 -11.8125 3.75 -11.96875 C 4.039062 -12.019531 4.320312 -12.046875 4.59375 -12.046875 C 6.082031 -12.046875 7.191406 -11.6875 7.921875 -10.96875 C 8.554688 -10.375 8.875 -9.570312 8.875 -8.5625 C 8.875 -7.875 8.660156 -7.132812 8.234375 -6.34375 C 7.859375 -5.675781 7.375 -4.957031 6.78125 -4.1875 L 5.046875 -2.046875 L 7.921875 -2.046875 C 8.304688 -2.046875 8.609375 -2.0625 8.828125 -2.09375 C 9.054688 -2.125 9.25 -2.195312 9.40625 -2.3125 L 9.46875 -2.296875 L 8.8125 0.140625 L 7.84375 0.078125 C 6.164062 -0.015625 3.796875 -0.0195312 0.734375 0.0625 Z M 4.921875 -5.328125 "/></g></g></g><g fill="#4d4d4d" fill-opacity="1"><g transform="translate(11.525205, 16.941247)"><g><path d="M 0.9375 -5.734375 C 0.9375 -6.628906 1.066406 -7.460938 1.328125 -8.234375 C 1.597656 -9.015625 1.96875 -9.6875 2.4375 -10.25 C 3.457031 -11.445312 4.742188 -12.046875 6.296875 -12.046875 C 7.785156 -12.046875 8.972656 -11.484375 9.859375 -10.359375 C 10.734375 -9.273438 11.171875 -7.832031 11.171875 -6.03125 C 11.171875 -4.007812 10.644531 -2.429688 9.59375 -1.296875 C 8.644531 -0.285156 7.4375 0.21875 5.96875 0.21875 C 4.539062 0.21875 3.347656 -0.332031 2.390625 -1.4375 C 1.421875 -2.550781 0.9375 -3.984375 0.9375 -5.734375 Z M 4.046875 -2.9375 C 4.304688 -2.59375 4.617188 -2.328125 4.984375 -2.140625 C 5.347656 -1.953125 5.71875 -1.859375 6.09375 -1.859375 C 6.46875 -1.859375 6.816406 -1.941406 7.140625 -2.109375 C 7.472656 -2.273438 7.769531 -2.523438 8.03125 -2.859375 C 8.613281 -3.617188 8.90625 -4.613281 8.90625 -5.84375 C 8.90625 -7.09375 8.65625 -8.097656 8.15625 -8.859375 C 7.65625 -9.597656 6.972656 -9.96875 6.109375 -9.96875 C 5.242188 -9.96875 4.546875 -9.582031 4.015625 -8.8125 C 3.472656 -8.03125 3.203125 -7.023438 3.203125 -5.796875 C 3.203125 -4.617188 3.484375 -3.664062 4.046875 -2.9375 Z M 4.046875 -2.9375 "/></g></g></g><g fill="#4d4d4d" fill-opacity="1"><g transform="translate(23.637811, 16.941247)"><g><path d="M 4.921875 -5.328125 C 5.796875 -6.441406 6.296875 -7.320312 6.421875 -7.96875 C 6.460938 -8.175781 6.484375 -8.367188 6.484375 -8.546875 C 6.484375 -8.984375 6.320312 -9.332031 6 -9.59375 C 5.675781 -9.851562 5.207031 -9.984375 4.59375 -9.984375 C 4.019531 -9.984375 3.425781 -9.832031 2.8125 -9.53125 C 2.25 -9.25 1.847656 -8.929688 1.609375 -8.578125 L 1.5 -8.5625 L 1.5625 -11.21875 C 2.082031 -11.5625 2.8125 -11.8125 3.75 -11.96875 C 4.039062 -12.019531 4.320312 -12.046875 4.59375 -12.046875 C 6.082031 -12.046875 7.191406 -11.6875 7.921875 -10.96875 C 8.554688 -10.375 8.875 -9.570312 8.875 -8.5625 C 8.875 -7.875 8.660156 -7.132812 8.234375 -6.34375 C 7.859375 -5.675781 7.375 -4.957031 6.78125 -4.1875 L 5.046875 -2.046875 L 7.921875 -2.046875 C 8.304688 -2.046875 8.609375 -2.0625 8.828125 -2.09375 C 9.054688 -2.125 9.25 -2.195312 9.40625 -2.3125 L 9.46875 -2.296875 L 8.8125 0.140625 L 7.84375 0.078125 C 6.164062 -0.015625 3.796875 -0.0195312 0.734375 0.0625 Z M 4.921875 -5.328125 "/></g></g></g><g fill="#4d4d4d" fill-opacity="1"><g transform="translate(34.231902, 16.941247)"><g><path d="M 7.75 -6.921875 C 9.175781 -6.316406 9.890625 -5.289062 9.890625 -3.84375 C 9.890625 -2.6875 9.421875 -1.734375 8.484375 -0.984375 C 7.492188 -0.179688 6.179688 0.21875 4.546875 0.21875 C 2.984375 0.21875 1.722656 -0.144531 0.765625 -0.875 L 0.734375 -3.25 L 0.8125 -3.34375 C 1.53125 -2.382812 2.769531 -1.90625 4.53125 -1.90625 C 6.59375 -1.90625 7.625 -2.585938 7.625 -3.953125 C 7.625 -4.441406 7.320312 -4.828125 6.71875 -5.109375 C 6.175781 -5.359375 5.539062 -5.484375 4.8125 -5.484375 C 3.820312 -5.484375 3.0625 -5.316406 2.53125 -4.984375 L 2.46875 -5.046875 L 2.5625 -7.140625 C 3.28125 -7.335938 4.03125 -7.4375 4.8125 -7.4375 L 5.28125 -7.4375 C 5.445312 -7.4375 5.609375 -7.425781 5.765625 -7.40625 C 6.148438 -7.632812 6.394531 -7.972656 6.5 -8.421875 C 6.539062 -8.546875 6.5625 -8.671875 6.5625 -8.796875 C 6.5625 -8.929688 6.519531 -9.0625 6.4375 -9.1875 C 6.363281 -9.320312 6.25 -9.441406 6.09375 -9.546875 C 5.757812 -9.773438 5.378906 -9.890625 4.953125 -9.890625 C 4.523438 -9.890625 4.164062 -9.863281 3.875 -9.8125 C 3.59375 -9.769531 3.316406 -9.703125 3.046875 -9.609375 C 2.453125 -9.421875 2.007812 -9.179688 1.71875 -8.890625 L 1.6875 -8.9375 L 1.578125 -11.203125 C 2.523438 -11.765625 3.679688 -12.046875 5.046875 -12.046875 C 6.117188 -12.046875 7.015625 -11.800781 7.734375 -11.3125 C 8.503906 -10.769531 8.890625 -10.054688 8.890625 -9.171875 C 8.890625 -8.679688 8.78125 -8.242188 8.5625 -7.859375 C 8.351562 -7.472656 8.082031 -7.160156 7.75 -6.921875 Z M 4.9375 -7.1875 C 5.09375 -7.1875 5.21875 -7.195312 5.3125 -7.21875 Z M 4.9375 -7.1875 "/></g></g></g></g></g></svg>