<svg xmlns="http://www.w3.org/2000/svg" xmlns:xlink="http://www.w3.org/1999/xlink" width="500" zoomAndPan="magnify" viewBox="0 0 375 374.999991" height="500" preserveAspectRatio="xMidYMid meet" version="1.0"><defs><g/><clipPath id="b908882d52"><rect x="0" width="136" y="0" height="51"/></clipPath><clipPath id="6f4798fd04"><path d="M 127 117 L 246 117 L 246 270.300781 L 127 270.300781 Z M 127 117 " clip-rule="nonzero"/></clipPath><clipPath id="2f3d491bb5"><path d="M 5.722656 5.449219 L 375 5.449219 L 375 375 L 5.722656 375 Z M 5.722656 5.449219 " clip-rule="nonzero"/></clipPath><clipPath id="74139c886e"><path d="M 190.5 5.449219 C 88.449219 5.449219 5.722656 88.175781 5.722656 190.222656 C 5.722656 292.273438 88.449219 375 190.5 375 C 292.546875 375 375.273438 292.273438 375.273438 190.222656 C 375.273438 88.175781 292.546875 5.449219 190.5 5.449219 Z M 190.5 5.449219 " clip-rule="nonzero"/></clipPath></defs><g fill="#f2f2f2" fill-opacity="1"><g transform="translate(123.357246, 114.684256)"><g><path d="M 7.875 -5.59375 C 7.59375 -4.945312 7.144531 -4.414062 6.53125 -4 C 5.925781 -3.59375 5.285156 -3.378906 4.609375 -3.359375 C 4.316406 -2.722656 3.96875 -2.265625 3.5625 -1.984375 C 3.15625 -1.710938 2.796875 -1.523438 2.484375 -1.421875 C 2.171875 -1.316406 1.875 -1.253906 1.59375 -1.234375 C 1.019531 -1.210938 0.609375 -1.382812 0.359375 -1.75 C 0.234375 -1.945312 0.175781 -2.148438 0.1875 -2.359375 C 0.5 -2.335938 0.8125 -2.4375 1.125 -2.65625 C 1.976562 -3.226562 2.320312 -3.976562 2.15625 -4.90625 L -2.53125 -11.828125 C -2.820312 -12.253906 -3.125 -12.515625 -3.4375 -12.609375 C -3.957031 -12.753906 -4.679688 -12.769531 -5.609375 -12.65625 C -5.160156 -13.382812 -4.914062 -13.925781 -4.875 -14.28125 C -4.8125 -14.863281 -4.929688 -15.382812 -5.234375 -15.84375 L -9.28125 -21.828125 C -10.082031 -22.335938 -10.910156 -22.304688 -11.765625 -21.734375 C -12.078125 -21.515625 -12.28125 -21.257812 -12.375 -20.96875 C -12.582031 -21.039062 -12.742188 -21.164062 -12.859375 -21.34375 C -12.984375 -21.519531 -13.046875 -21.726562 -13.046875 -21.96875 C -13.054688 -22.207031 -13.003906 -22.445312 -12.890625 -22.6875 C -12.640625 -23.238281 -12.226562 -23.707031 -11.65625 -24.09375 C -11.09375 -24.476562 -10.472656 -24.671875 -9.796875 -24.671875 C -9.515625 -25.316406 -9.070312 -25.835938 -8.46875 -26.234375 C -7.875 -26.640625 -7.234375 -26.859375 -6.546875 -26.890625 C -5.878906 -27.910156 -4.957031 -28.816406 -3.78125 -29.609375 C -2.613281 -30.398438 -1.507812 -30.945312 -0.46875 -31.25 C 0.570312 -31.5625 1.609375 -31.707031 2.640625 -31.6875 C 4.765625 -31.632812 6.625 -30.929688 8.21875 -29.578125 C 8.84375 -29.054688 9.648438 -28.828125 10.640625 -28.890625 C 10.179688 -27.992188 10.109375 -27.050781 10.421875 -26.0625 C 10.734375 -25.070312 10.84375 -24.03125 10.75 -22.9375 C 10.65625 -21.84375 10.394531 -20.816406 9.96875 -19.859375 C 9.113281 -17.878906 7.847656 -16.320312 6.171875 -15.1875 C 5.421875 -14.675781 4.582031 -14.242188 3.65625 -13.890625 L 7.3125 -8.484375 C 7.9375 -8.117188 8.707031 -8.117188 9.625 -8.484375 C 9.851562 -8.578125 10.09375 -8.707031 10.34375 -8.875 C 10.601562 -9.050781 10.785156 -9.289062 10.890625 -9.59375 C 11.085938 -9.519531 11.25 -9.390625 11.375 -9.203125 C 11.5 -9.015625 11.546875 -8.789062 11.515625 -8.53125 C 11.492188 -8.28125 11.40625 -8.023438 11.25 -7.765625 C 10.925781 -7.160156 10.46875 -6.65625 9.875 -6.25 C 9.28125 -5.851562 8.613281 -5.632812 7.875 -5.59375 Z M 1.15625 -17.578125 C 1.59375 -16.941406 2.179688 -16.59375 2.921875 -16.53125 C 3.585938 -16.46875 4.265625 -16.664062 4.953125 -17.125 C 5.984375 -17.820312 6.460938 -18.726562 6.390625 -19.84375 C 6.378906 -20.21875 6.238281 -20.601562 5.96875 -21 L 1.640625 -27.40625 C 1.191406 -28.082031 0.566406 -28.4375 -0.234375 -28.46875 C -0.929688 -28.519531 -1.515625 -28.382812 -1.984375 -28.0625 C -2.460938 -27.75 -2.816406 -27.445312 -3.046875 -27.15625 C -3.273438 -26.863281 -3.453125 -26.550781 -3.578125 -26.21875 C -3.804688 -25.476562 -3.679688 -24.753906 -3.203125 -24.046875 Z M 7.953125 -20.0625 C 8.140625 -20.238281 8.179688 -20.648438 8.078125 -21.296875 C 7.972656 -21.941406 7.757812 -22.632812 7.4375 -23.375 C 7.113281 -24.125 6.929688 -24.710938 6.890625 -25.140625 C 6.847656 -25.578125 6.984375 -26.003906 7.296875 -26.421875 C 6.492188 -26.191406 5.6875 -26.488281 4.875 -27.3125 C 4.070312 -28.144531 3.40625 -28.703125 2.875 -28.984375 C 2.351562 -29.273438 1.972656 -29.367188 1.734375 -29.265625 C 2.609375 -28.703125 3.800781 -27.304688 5.3125 -25.078125 C 6.320312 -23.578125 7.003906 -22.398438 7.359375 -21.546875 C 7.722656 -20.691406 7.921875 -20.195312 7.953125 -20.0625 Z M 2.578125 -7.203125 C 2.929688 -7.710938 2.773438 -8.507812 2.109375 -9.59375 C 1.453125 -10.695312 0.492188 -12.179688 -0.765625 -14.046875 C -2.035156 -15.921875 -2.882812 -17.160156 -3.3125 -17.765625 C -3.738281 -18.367188 -4.082031 -18.863281 -4.34375 -19.25 C -5.113281 -20.332031 -5.671875 -20.925781 -6.015625 -21.03125 C -6.359375 -21.132812 -6.632812 -21.175781 -6.84375 -21.15625 C -4.625 -17.875 -3.414062 -15.96875 -3.21875 -15.4375 C -3.101562 -14.96875 -3.25 -14.484375 -3.65625 -13.984375 C -2.945312 -14.171875 -2.457031 -14.144531 -2.1875 -13.90625 C -1.769531 -13.519531 -0.597656 -11.898438 1.328125 -9.046875 Z M 2.578125 -7.203125 "/></g></g></g><g fill="#f2f2f2" fill-opacity="1"><g transform="translate(146.55897, 99.428915)"><g><path d="M 9.171875 -3.03125 C 8.710938 -2.507812 8.128906 -2.140625 7.421875 -1.921875 C 6.710938 -1.703125 6.03125 -1.679688 5.375 -1.859375 C 4.914062 -1.347656 4.453125 -1.019531 3.984375 -0.875 C 3.515625 -0.726562 3.113281 -0.648438 2.78125 -0.640625 C 2.445312 -0.628906 2.144531 -0.660156 1.875 -0.734375 C 1.320312 -0.859375 0.976562 -1.132812 0.84375 -1.5625 C 0.78125 -1.78125 0.785156 -1.992188 0.859375 -2.203125 C 1.160156 -2.097656 1.492188 -2.101562 1.859375 -2.21875 C 2.835938 -2.507812 3.378906 -3.125 3.484375 -4.0625 L 1.03125 -12.046875 C 0.875 -12.546875 0.65625 -12.882812 0.375 -13.0625 C -0.0703125 -13.351562 -0.753906 -13.578125 -1.671875 -13.734375 C -1.023438 -14.304688 -0.632812 -14.753906 -0.5 -15.078125 C -0.269531 -15.617188 -0.234375 -16.15625 -0.390625 -16.6875 L -2.515625 -23.578125 C -3.140625 -24.296875 -3.941406 -24.507812 -4.921875 -24.21875 C -5.285156 -24.101562 -5.554688 -23.914062 -5.734375 -23.65625 C -5.910156 -23.789062 -6.03125 -23.960938 -6.09375 -24.171875 C -6.15625 -24.378906 -6.148438 -24.59375 -6.078125 -24.8125 C -6.015625 -25.039062 -5.894531 -25.253906 -5.71875 -25.453125 C -5.3125 -25.910156 -4.78125 -26.238281 -4.125 -26.4375 C -3.476562 -26.632812 -2.832031 -26.640625 -2.1875 -26.453125 C -1.726562 -26.984375 -1.148438 -27.351562 -0.453125 -27.5625 C 0.242188 -27.78125 0.929688 -27.800781 1.609375 -27.625 C 2.703125 -28.46875 3.992188 -29.117188 5.484375 -29.578125 C 6.984375 -30.035156 8.28125 -30.285156 9.375 -30.328125 C 10.476562 -30.367188 11.46875 -30.25 12.34375 -29.96875 C 14.125 -29.414062 15.476562 -28.289062 16.40625 -26.59375 C 16.78125 -25.820312 17.484375 -25.363281 18.515625 -25.21875 C 17.804688 -24.476562 17.484375 -23.546875 17.546875 -22.421875 C 17.671875 -20.117188 16.75 -18.367188 14.78125 -17.171875 C 15.976562 -17.210938 17.066406 -16.882812 18.046875 -16.1875 C 19.054688 -15.457031 19.757812 -14.453125 20.15625 -13.171875 L 20.65625 -11.53125 C 21.132812 -9.96875 21.945312 -9.113281 23.09375 -8.96875 C 23.445312 -8.925781 23.800781 -8.957031 24.15625 -9.0625 C 24.519531 -9.175781 24.789062 -9.359375 24.96875 -9.609375 C 25.132812 -9.472656 25.25 -9.296875 25.3125 -9.078125 C 25.382812 -8.867188 25.394531 -8.65625 25.34375 -8.4375 C 25.300781 -8.226562 25.203125 -8.035156 25.046875 -7.859375 C 24.753906 -7.421875 24.34375 -7.117188 23.8125 -6.953125 C 23.289062 -6.796875 22.734375 -6.785156 22.140625 -6.921875 C 21.378906 -6.128906 20.546875 -5.816406 19.640625 -5.984375 C 19.378906 -5.703125 19.078125 -5.507812 18.734375 -5.40625 C 18.398438 -5.300781 18.054688 -5.28125 17.703125 -5.34375 C 17.347656 -5.40625 17 -5.570312 16.65625 -5.84375 C 15.90625 -6.4375 15.289062 -7.515625 14.8125 -9.078125 L 14.4375 -10.28125 C 13.664062 -12.789062 12.453125 -14.203125 10.796875 -14.515625 C 10.234375 -14.617188 9.628906 -14.570312 8.984375 -14.375 L 7.0625 -13.78125 L 9.515625 -5.8125 C 10.054688 -5.144531 10.738281 -4.941406 11.5625 -5.203125 C 11.9375 -5.304688 12.210938 -5.488281 12.390625 -5.75 C 12.554688 -5.613281 12.6875 -5.382812 12.78125 -5.0625 C 12.882812 -4.75 12.804688 -4.390625 12.546875 -3.984375 C 12.296875 -3.585938 11.828125 -3.28125 11.140625 -3.0625 C 10.460938 -2.851562 9.804688 -2.84375 9.171875 -3.03125 Z M 6.296875 -27.453125 C 4.203125 -26.804688 3.40625 -25.671875 3.90625 -24.046875 L 5.96875 -17.359375 C 6.132812 -16.804688 6.472656 -16.5 6.984375 -16.4375 C 7.484375 -16.375 8.144531 -16.46875 8.96875 -16.71875 C 9.800781 -16.976562 10.367188 -17.207031 10.671875 -17.40625 C 10.972656 -17.601562 11.207031 -17.851562 11.375 -18.15625 C 11.726562 -18.769531 11.734375 -19.625 11.390625 -20.71875 L 9.921875 -25.5 C 9.503906 -26.851562 8.671875 -27.554688 7.421875 -27.609375 C 7.046875 -27.617188 6.671875 -27.566406 6.296875 -27.453125 Z M 10.484375 -27.59375 C 11.046875 -26.9375 11.585938 -25.769531 12.109375 -24.09375 C 12.992188 -21.207031 13.390625 -19.4375 13.296875 -18.78125 C 13.859375 -19.09375 14.039062 -20.023438 13.84375 -21.578125 L 13.765625 -22.296875 C 13.671875 -23.035156 13.882812 -23.585938 14.40625 -23.953125 C 13.9375 -23.984375 13.617188 -24.078125 13.453125 -24.234375 C 13.234375 -24.410156 12.988281 -24.757812 12.71875 -25.28125 C 12.445312 -25.8125 12.203125 -26.226562 11.984375 -26.53125 C 11.773438 -26.832031 11.585938 -27.0625 11.421875 -27.21875 C 11.097656 -27.488281 10.785156 -27.613281 10.484375 -27.59375 Z M 4.578125 -6.140625 C 5.054688 -6.515625 5.132812 -7.320312 4.8125 -8.5625 C 4.507812 -9.800781 4.023438 -11.5 3.359375 -13.65625 C 2.691406 -15.8125 2.242188 -17.242188 2.015625 -17.953125 C 1.785156 -18.660156 1.597656 -19.234375 1.453125 -19.671875 C 1.023438 -20.941406 0.664062 -21.675781 0.375 -21.875 C 0.0820312 -22.070312 -0.164062 -22.191406 -0.375 -22.234375 C 0.789062 -18.441406 1.390625 -16.265625 1.421875 -15.703125 C 1.390625 -15.222656 1.109375 -14.796875 0.578125 -14.421875 C 1.304688 -14.398438 1.765625 -14.238281 1.953125 -13.9375 C 2.253906 -13.445312 2.910156 -11.554688 3.921875 -8.265625 Z M 14.46875 -14.09375 C 15.039062 -13.726562 15.4375 -13.191406 15.65625 -12.484375 L 16.3125 -10.34375 C 16.875 -8.53125 17.535156 -7.671875 18.296875 -7.765625 C 18.492188 -7.796875 18.679688 -7.859375 18.859375 -7.953125 C 18.273438 -8.441406 17.878906 -9.019531 17.671875 -9.6875 L 16.96875 -12 C 16.707031 -12.851562 16.398438 -13.421875 16.046875 -13.703125 C 15.453125 -14.191406 14.925781 -14.320312 14.46875 -14.09375 Z M 14.46875 -14.09375 "/></g></g></g><g fill="#f2f2f2" fill-opacity="1"><g transform="translate(175.856901, 91.594845)"><g><path d="M 10.421875 -0.453125 L 1.40625 -0.0625 L 1.328125 -1.875 L 4.234375 -2.671875 L 3.359375 -22.640625 L 0.390625 -23.21875 L 0.3125 -25.015625 L 9.328125 -25.40625 L 9.40625 -23.609375 L 6.5 -22.78125 L 7.375 -2.8125 L 10.34375 -2.265625 Z M 4.640625 -32.265625 C 5.109375 -32.285156 5.53125 -32.144531 5.90625 -31.84375 C 6.28125 -31.539062 6.484375 -31.050781 6.515625 -30.375 C 6.546875 -29.695312 6.382812 -29.191406 6.03125 -28.859375 C 5.6875 -28.535156 5.28125 -28.363281 4.8125 -28.34375 C 4.300781 -28.320312 3.863281 -28.457031 3.5 -28.75 C 3.144531 -29.050781 2.953125 -29.539062 2.921875 -30.21875 C 2.890625 -30.894531 3.039062 -31.398438 3.375 -31.734375 C 3.707031 -32.066406 4.128906 -32.242188 4.640625 -32.265625 Z M 4.640625 -32.265625 "/></g></g></g><g fill="#f2f2f2" fill-opacity="1"><g transform="translate(194.763379, 89.855027)"><g><path d="M 4.25 0.96875 C 3.75 1.164062 3.238281 1.195312 2.71875 1.0625 C 2.207031 0.925781 1.828125 0.679688 1.578125 0.328125 C 1.335938 -0.0234375 1.265625 -0.378906 1.359375 -0.734375 C 1.453125 -1.085938 1.570312 -1.328125 1.71875 -1.453125 C 1.988281 -1.191406 2.472656 -0.972656 3.171875 -0.796875 C 3.441406 -0.722656 3.78125 -0.78125 4.1875 -0.96875 C 4.59375 -1.164062 4.957031 -1.488281 5.28125 -1.9375 L 7.296875 -9.703125 C 7.429688 -10.210938 7.421875 -10.625 7.265625 -10.9375 C 7.035156 -11.40625 6.570312 -11.941406 5.875 -12.546875 C 6.78125 -12.722656 7.375 -12.910156 7.65625 -13.109375 C 8.09375 -13.453125 8.378906 -13.878906 8.515625 -14.390625 L 10.390625 -21.59375 C 10.296875 -22.363281 9.800781 -22.863281 8.90625 -23.09375 C 8.445312 -23.21875 8.082031 -23.207031 7.8125 -23.0625 C 7.738281 -23.25 7.734375 -23.453125 7.796875 -23.671875 C 7.859375 -23.898438 7.960938 -24.097656 8.109375 -24.265625 C 8.253906 -24.429688 8.4375 -24.566406 8.65625 -24.671875 C 9.09375 -24.859375 9.625 -24.867188 10.25 -24.703125 C 10.882812 -24.535156 11.359375 -24.21875 11.671875 -23.75 C 12.128906 -24.019531 12.601562 -24.09375 13.09375 -23.96875 C 13.582031 -23.84375 13.945312 -23.53125 14.1875 -23.03125 C 14.707031 -23.332031 15.132812 -23.4375 15.46875 -23.34375 C 15.800781 -23.257812 16.046875 -23.164062 16.203125 -23.0625 C 16.367188 -22.96875 16.519531 -22.820312 16.65625 -22.625 C 16.9375 -22.269531 17.164062 -21.617188 17.34375 -20.671875 L 20.28125 -5.875 L 28.828125 -17.40625 L 29.578125 -18.375 C 30.003906 -18.90625 30.351562 -19.195312 30.625 -19.25 C 30.90625 -19.300781 31.207031 -19.285156 31.53125 -19.203125 C 31.851562 -19.117188 32.15625 -18.910156 32.4375 -18.578125 C 32.914062 -18.710938 33.492188 -18.691406 34.171875 -18.515625 C 34.859375 -18.335938 35.398438 -18.003906 35.796875 -17.515625 C 36.335938 -17.765625 36.847656 -17.828125 37.328125 -17.703125 C 37.804688 -17.578125 38.171875 -17.4375 38.421875 -17.28125 C 38.671875 -17.132812 38.875 -16.976562 39.03125 -16.8125 C 39.375 -16.394531 39.488281 -15.96875 39.375 -15.53125 C 39.320312 -15.3125 39.210938 -15.128906 39.046875 -14.984375 C 38.847656 -15.242188 38.5625 -15.421875 38.1875 -15.515625 C 37.34375 -15.734375 36.675781 -15.488281 36.1875 -14.78125 L 34.359375 -7.703125 C 34.210938 -7.171875 34.222656 -6.738281 34.390625 -6.40625 C 34.640625 -5.882812 35.09375 -5.351562 35.75 -4.8125 C 34.832031 -4.613281 34.238281 -4.421875 33.96875 -4.234375 C 33.539062 -3.921875 33.265625 -3.515625 33.140625 -3.015625 L 31.046875 5.078125 C 31.203125 6.015625 31.769531 6.609375 32.75 6.859375 C 33.132812 6.953125 33.472656 6.941406 33.765625 6.828125 C 33.835938 7.015625 33.84375 7.21875 33.78125 7.4375 C 33.726562 7.65625 33.613281 7.84375 33.4375 8 C 33.269531 8.15625 33.054688 8.269531 32.796875 8.34375 C 32.203125 8.519531 31.578125 8.523438 30.921875 8.359375 C 30.273438 8.191406 29.710938 7.859375 29.234375 7.359375 C 28.628906 7.578125 27.992188 7.597656 27.328125 7.421875 C 26.617188 7.242188 26.046875 6.90625 25.609375 6.40625 C 24.953125 6.613281 24.382812 6.65625 23.90625 6.53125 C 23.425781 6.414062 23.046875 6.273438 22.765625 6.109375 C 22.484375 5.941406 22.242188 5.757812 22.046875 5.5625 C 21.640625 5.15625 21.492188 4.738281 21.609375 4.3125 C 21.671875 4.082031 21.785156 3.90625 21.953125 3.78125 C 22.140625 4.019531 22.421875 4.1875 22.796875 4.28125 C 23.773438 4.53125 24.554688 4.289062 25.140625 3.5625 L 29.8125 -14.515625 L 19.25 -0.21875 L 18.125 1.234375 C 17.582031 1.910156 17.226562 2.28125 17.0625 2.34375 C 16.90625 2.414062 16.78125 2.441406 16.6875 2.421875 C 16.414062 2.347656 16.226562 2.265625 16.125 2.171875 L 11.796875 -17.515625 L 7.625 -1.34375 C 7.6875 -0.78125 7.863281 -0.316406 8.15625 0.046875 C 8.457031 0.421875 8.832031 0.664062 9.28125 0.78125 C 9.726562 0.894531 10.140625 0.90625 10.515625 0.8125 C 10.578125 1.039062 10.5625 1.328125 10.46875 1.671875 C 10.382812 2.015625 10.132812 2.269531 9.71875 2.4375 C 9.3125 2.613281 8.835938 2.632812 8.296875 2.5 C 7.753906 2.363281 7.289062 2.097656 6.90625 1.703125 C 6.445312 1.867188 5.957031 1.882812 5.4375 1.75 C 4.925781 1.625 4.53125 1.363281 4.25 0.96875 Z M 14.5 -18.328125 C 14.34375 -18.191406 14.222656 -17.96875 14.140625 -17.65625 C 13.910156 -16.769531 13.976562 -15.488281 14.34375 -13.8125 L 17.25 -0.234375 C 17.351562 -0.304688 17.445312 -0.503906 17.53125 -0.828125 C 17.78125 -1.785156 17.6875 -3.3125 17.25 -5.40625 Z M 27.15625 2.34375 C 27.757812 2.28125 28.25 1.640625 28.625 0.421875 C 29.007812 -0.796875 29.484375 -2.492188 30.046875 -4.671875 C 30.617188 -6.859375 30.992188 -8.316406 31.171875 -9.046875 C 31.359375 -9.773438 31.503906 -10.359375 31.609375 -10.796875 C 31.910156 -12.109375 31.988281 -12.925781 31.84375 -13.25 C 31.695312 -13.570312 31.535156 -13.800781 31.359375 -13.9375 Z M 7.640625 -2.46875 C 7.617188 -2.375 7.609375 -2.3125 7.609375 -2.28125 Z M 5.796875 -2.953125 C 5.773438 -2.898438 5.753906 -2.835938 5.734375 -2.765625 Z M 5.796875 -2.953125 "/></g></g></g><g fill="#f2f2f2" fill-opacity="1"><g transform="translate(231.773327, 100.922191)"><g><path d="M 6.1875 4.578125 C 5.5625 4.160156 5.109375 3.632812 4.828125 3 C 4.140625 2.976562 3.59375 2.828125 3.1875 2.546875 C 2.78125 2.273438 2.46875 2.015625 2.25 1.765625 C 2.03125 1.515625 1.863281 1.265625 1.75 1.015625 C 1.507812 0.492188 1.515625 0.0507812 1.765625 -0.3125 C 1.890625 -0.507812 2.050781 -0.640625 2.25 -0.703125 C 2.351562 -0.410156 2.566406 -0.15625 2.890625 0.0625 C 3.734375 0.625 4.554688 0.65625 5.359375 0.15625 L 10.03125 -6.78125 C 10.320312 -7.207031 10.441406 -7.585938 10.390625 -7.921875 C 10.347656 -8.453125 10.09375 -9.125 9.625 -9.9375 C 10.476562 -9.789062 11.078125 -9.769531 11.421875 -9.875 C 11.992188 -10.03125 12.429688 -10.335938 12.734375 -10.796875 L 16.765625 -16.78125 C 16.929688 -17.71875 16.59375 -18.46875 15.75 -19.03125 C 15.425781 -19.25 15.109375 -19.347656 14.796875 -19.328125 C 14.785156 -19.546875 14.84375 -19.742188 14.96875 -19.921875 C 15.09375 -20.109375 15.265625 -20.242188 15.484375 -20.328125 C 15.703125 -20.421875 15.941406 -20.460938 16.203125 -20.453125 C 16.804688 -20.421875 17.390625 -20.210938 17.953125 -19.828125 C 18.523438 -19.453125 18.941406 -18.953125 19.203125 -18.328125 C 19.898438 -18.304688 20.566406 -18.082031 21.203125 -17.65625 C 21.835938 -17.226562 22.289062 -16.65625 22.5625 -15.9375 C 23.8125 -15.625 25.09375 -15.023438 26.40625 -14.140625 C 27.375 -13.492188 28.140625 -12.84375 28.703125 -12.1875 L 29.75 -10.984375 C 29.875 -10.859375 30.007812 -10.742188 30.15625 -10.640625 C 30.414062 -10.472656 30.671875 -10.578125 30.921875 -10.953125 C 30.992188 -11.046875 31.070312 -11.226562 31.15625 -11.5 C 31.445312 -11.363281 31.796875 -11.15625 32.203125 -10.875 C 32.609375 -10.601562 32.863281 -10.238281 32.96875 -9.78125 C 33.070312 -9.320312 32.953125 -8.835938 32.609375 -8.328125 C 32.273438 -7.828125 31.9375 -7.519531 31.59375 -7.40625 C 31.59375 -6.851562 31.410156 -6.300781 31.046875 -5.75 C 30.679688 -5.207031 30.1875 -4.878906 29.5625 -4.765625 C 29.488281 -4.410156 29.359375 -4.097656 29.171875 -3.828125 C 28.992188 -3.554688 28.785156 -3.335938 28.546875 -3.171875 C 28.304688 -3.015625 28.066406 -2.90625 27.828125 -2.84375 C 27.390625 -2.757812 27.035156 -2.804688 26.765625 -2.984375 C 26.367188 -3.253906 26.054688 -3.582031 25.828125 -3.96875 C 26.109375 -4.101562 26.398438 -4.394531 26.703125 -4.84375 C 27.398438 -5.882812 27.75 -6.972656 27.75 -8.109375 C 27.769531 -9.671875 27.070312 -10.929688 25.65625 -11.890625 C 24.9375 -12.367188 24.171875 -12.628906 23.359375 -12.671875 C 22.546875 -12.710938 21.796875 -12.484375 21.109375 -11.984375 L 17.421875 -6.5 C 17.609375 -6.070312 17.84375 -5.757812 18.125 -5.5625 C 18.414062 -5.375 18.632812 -5.234375 18.78125 -5.140625 C 18.9375 -5.054688 19.101562 -4.972656 19.28125 -4.890625 C 19.707031 -4.691406 20.054688 -4.566406 20.328125 -4.515625 C 20.859375 -4.429688 21.375 -4.757812 21.875 -5.5 C 22.15625 -5.914062 22.265625 -6.300781 22.203125 -6.65625 C 22.492188 -6.664062 22.773438 -6.578125 23.046875 -6.390625 C 23.691406 -5.960938 23.976562 -5.398438 23.90625 -4.703125 C 23.894531 -4.453125 23.816406 -4.21875 23.671875 -4 C 23.523438 -3.789062 23.28125 -3.554688 22.9375 -3.296875 C 23.039062 -2.597656 22.882812 -1.941406 22.46875 -1.328125 C 22.0625 -0.722656 21.515625 -0.332031 20.828125 -0.15625 C 20.710938 0.25 20.566406 0.582031 20.390625 0.84375 C 20.222656 1.101562 20.003906 1.3125 19.734375 1.46875 C 19.472656 1.632812 19.222656 1.742188 18.984375 1.796875 C 18.515625 1.859375 18.09375 1.765625 17.71875 1.515625 C 17.457031 1.335938 17.273438 1.101562 17.171875 0.8125 C 17.597656 0.625 17.960938 0.304688 18.265625 -0.140625 C 18.859375 -1.015625 18.976562 -1.722656 18.625 -2.265625 C 18.3125 -2.722656 17.878906 -3.132812 17.328125 -3.5 C 16.785156 -3.875 16.273438 -4.070312 15.796875 -4.09375 L 11.03125 2.984375 C 10.9375 4.304688 11.671875 5.492188 13.234375 6.546875 C 15.015625 7.753906 16.59375 8.023438 17.96875 7.359375 C 19.570312 6.609375 20.859375 5.515625 21.828125 4.078125 C 22.097656 3.660156 22.269531 3.3125 22.34375 3.03125 C 22.726562 2.957031 23.046875 3.003906 23.296875 3.171875 C 23.554688 3.335938 23.734375 3.503906 23.828125 3.671875 C 23.921875 3.835938 23.984375 4.007812 24.015625 4.1875 C 24.066406 4.59375 24.003906 4.925781 23.828125 5.1875 L 23.28125 5.828125 C 23.15625 6.015625 23.101562 6.191406 23.125 6.359375 C 23.175781 6.679688 23.140625 6.929688 23.015625 7.109375 C 22.898438 7.296875 22.703125 7.46875 22.421875 7.625 C 22.566406 7.894531 22.644531 8.207031 22.65625 8.5625 C 22.664062 8.925781 22.582031 9.234375 22.40625 9.484375 C 22.039062 10.023438 21.492188 10.359375 20.765625 10.484375 C 20.765625 10.898438 20.585938 11.375 20.234375 11.90625 C 19.878906 12.4375 19.414062 12.785156 18.84375 12.953125 C 18.28125 13.117188 17.757812 13.035156 17.28125 12.703125 C 17.007812 12.523438 16.753906 12.3125 16.515625 12.0625 C 16.691406 11.882812 16.851562 11.691406 17 11.484375 C 17.289062 11.046875 17.238281 10.695312 16.84375 10.4375 C 16.394531 10.132812 15.882812 9.925781 15.3125 9.8125 C 13.976562 9.519531 12.644531 8.921875 11.3125 8.015625 C 9.976562 7.117188 8.960938 6.179688 8.265625 5.203125 C 7.535156 5.222656 6.84375 5.015625 6.1875 4.578125 Z M 7.65625 -0.3125 C 8.25 -0.175781 8.921875 -0.617188 9.671875 -1.640625 C 10.453125 -2.660156 11.46875 -4.101562 12.71875 -5.96875 C 13.976562 -7.84375 14.8125 -9.09375 15.21875 -9.71875 C 15.632812 -10.34375 15.96875 -10.847656 16.21875 -11.234375 C 16.9375 -12.359375 17.28125 -13.097656 17.25 -13.453125 C 17.226562 -13.804688 17.164062 -14.078125 17.0625 -14.265625 C 14.84375 -10.984375 13.523438 -9.15625 13.109375 -8.78125 C 12.710938 -8.488281 12.207031 -8.429688 11.59375 -8.609375 C 12.019531 -8.035156 12.179688 -7.582031 12.078125 -7.25 C 11.878906 -6.707031 10.816406 -5.003906 8.890625 -2.140625 Z M 11.3125 1.9375 C 11.289062 1.96875 11.28125 2 11.28125 2.03125 Z M 11.3125 1.9375 "/></g></g></g><g transform="matrix(1, 0, 0, 1, 120, 267)"><g clip-path="url(#b908882d52)"><g fill="#f2f2f2" fill-opacity="1"><g transform="translate(3.925645, 23.761132)"><g><path d="M 4.828125 2.8125 C 4.347656 2.5625 3.984375 2.21875 3.734375 1.78125 C 3.234375 1.820312 2.820312 1.757812 2.5 1.59375 C 2.1875 1.425781 1.9375 1.257812 1.75 1.09375 C 1.570312 0.9375 1.4375 0.773438 1.34375 0.609375 C 1.132812 0.242188 1.101562 -0.078125 1.25 -0.359375 C 1.320312 -0.515625 1.425781 -0.625 1.5625 -0.6875 C 1.65625 -0.476562 1.828125 -0.304688 2.078125 -0.171875 C 2.722656 0.160156 3.320312 0.113281 3.875 -0.3125 L 6.6875 -5.671875 C 6.863281 -5.992188 6.925781 -6.28125 6.875 -6.53125 C 6.800781 -6.925781 6.566406 -7.394531 6.171875 -7.9375 C 6.796875 -7.90625 7.222656 -7.9375 7.453125 -8.03125 C 7.847656 -8.1875 8.140625 -8.4375 8.328125 -8.78125 L 10.765625 -13.421875 C 10.804688 -14.117188 10.503906 -14.632812 9.859375 -14.96875 C 9.609375 -15.101562 9.367188 -15.144531 9.140625 -15.09375 C 9.117188 -15.25 9.144531 -15.398438 9.21875 -15.546875 C 9.300781 -15.691406 9.414062 -15.800781 9.5625 -15.875 C 9.707031 -15.957031 9.878906 -16.003906 10.078125 -16.015625 C 10.515625 -16.054688 10.953125 -15.957031 11.390625 -15.71875 C 11.828125 -15.488281 12.164062 -15.160156 12.40625 -14.734375 C 12.90625 -14.773438 13.390625 -14.671875 13.859375 -14.421875 C 14.378906 -14.148438 14.757812 -13.78125 15 -13.3125 C 15.988281 -13.226562 16.882812 -12.972656 17.6875 -12.546875 C 18.5 -12.128906 19.191406 -11.664062 19.765625 -11.15625 C 20.335938 -10.65625 20.820312 -10.117188 21.21875 -9.546875 C 22.050781 -8.328125 22.351562 -7.148438 22.125 -6.015625 C 22.007812 -5.390625 22.144531 -4.800781 22.53125 -4.25 C 21.71875 -4.15625 21.101562 -3.882812 20.6875 -3.4375 C 19.78125 -2.445312 18.765625 -2.019531 17.640625 -2.15625 C 18.816406 -1.039062 19.238281 0.332031 18.90625 1.96875 C 18.789062 2.539062 18.925781 3.132812 19.3125 3.75 C 18.582031 3.769531 17.953125 4.046875 17.421875 4.578125 C 16.890625 5.117188 16.25 5.515625 15.5 5.765625 C 14.757812 6.023438 13.984375 6.15625 13.171875 6.15625 C 11.617188 6.132812 10.070312 5.71875 8.53125 4.90625 C 7.601562 4.414062 6.867188 3.816406 6.328125 3.109375 C 5.804688 3.160156 5.304688 3.0625 4.828125 2.8125 Z M 13.984375 -4.75 C 14.617188 -4.414062 15.15625 -4.328125 15.59375 -4.484375 C 16.039062 -4.660156 16.46875 -5.128906 16.875 -5.890625 L 18.203125 -8.4375 C 18.441406 -8.875 18.40625 -9.367188 18.09375 -9.921875 C 17.832031 -10.410156 17.523438 -10.742188 17.171875 -10.921875 C 16.828125 -11.109375 16.519531 -11.21875 16.25 -11.25 C 15.976562 -11.28125 15.722656 -11.269531 15.484375 -11.21875 C 14.941406 -11.101562 14.554688 -10.828125 14.328125 -10.390625 L 11.921875 -5.828125 Z M 19.5 -9.375 C 19.457031 -8.6875 19.15625 -7.8125 18.59375 -6.75 C 17.769531 -5.175781 17.140625 -4.207031 16.703125 -3.84375 C 17.023438 -3.738281 17.429688 -3.898438 17.921875 -4.328125 C 18.117188 -4.484375 18.289062 -4.660156 18.4375 -4.859375 C 18.59375 -5.054688 18.71875 -5.207031 18.8125 -5.3125 C 18.90625 -5.425781 19 -5.515625 19.09375 -5.578125 C 19.300781 -5.691406 19.566406 -5.722656 19.890625 -5.671875 C 19.660156 -5.921875 19.53125 -6.117188 19.5 -6.265625 C 19.488281 -6.441406 19.535156 -6.707031 19.640625 -7.0625 C 19.753906 -7.425781 19.820312 -7.734375 19.84375 -7.984375 C 19.875 -8.242188 19.878906 -8.460938 19.859375 -8.640625 C 19.816406 -9.003906 19.695312 -9.25 19.5 -9.375 Z M 5.484375 -0.828125 C 5.929688 -0.765625 6.382812 -1.132812 6.84375 -1.9375 C 7.320312 -2.738281 7.941406 -3.863281 8.703125 -5.3125 C 9.472656 -6.757812 9.976562 -7.722656 10.21875 -8.203125 C 10.46875 -8.691406 10.664062 -9.082031 10.8125 -9.375 C 11.25 -10.25 11.441406 -10.8125 11.390625 -11.0625 C 11.335938 -11.3125 11.257812 -11.503906 11.15625 -11.640625 C 9.820312 -9.097656 9.019531 -7.671875 8.75 -7.359375 C 8.5 -7.117188 8.140625 -7.035156 7.671875 -7.109375 C 8.046875 -6.734375 8.195312 -6.421875 8.125 -6.171875 C 8.03125 -5.773438 7.398438 -4.46875 6.234375 -2.25 Z M 8.4375 0.796875 C 8.175781 1.296875 8.15625 1.8125 8.375 2.34375 C 8.59375 2.851562 8.957031 3.242188 9.46875 3.515625 C 9.976562 3.785156 10.457031 3.898438 10.90625 3.859375 C 11.800781 3.773438 12.394531 3.453125 12.6875 2.890625 L 14.375 -0.328125 C 14.726562 -0.992188 14.773438 -1.601562 14.515625 -2.15625 C 14.304688 -2.644531 13.90625 -3.046875 13.3125 -3.359375 L 11.203125 -4.453125 Z M 15.9375 -1.53125 C 15.90625 -1.039062 15.515625 -0.078125 14.765625 1.359375 C 13.804688 3.171875 13.175781 4.195312 12.875 4.4375 C 13.050781 4.488281 13.304688 4.382812 13.640625 4.125 C 13.984375 3.875 14.28125 3.582031 14.53125 3.25 C 14.789062 2.914062 14.96875 2.6875 15.0625 2.5625 C 15.164062 2.445312 15.269531 2.359375 15.375 2.296875 C 15.613281 2.128906 15.894531 2.070312 16.21875 2.125 C 15.863281 1.75 15.753906 1.332031 15.890625 0.875 C 16.035156 0.425781 16.128906 0.0703125 16.171875 -0.1875 C 16.210938 -0.457031 16.222656 -0.6875 16.203125 -0.875 C 16.191406 -1.175781 16.101562 -1.394531 15.9375 -1.53125 Z M 15.9375 -1.53125 "/></g></g></g><g fill="#f2f2f2" fill-opacity="1"><g transform="translate(24.597777, 34.108906)"><g><path d="M 5.265625 1.84375 C 4.742188 1.6875 4.320312 1.414062 4 1.03125 C 3.507812 1.175781 3.09375 1.195312 2.75 1.09375 C 2.40625 0.988281 2.128906 0.875 1.921875 0.75 C 1.722656 0.625 1.5625 0.484375 1.4375 0.328125 C 1.15625 0.015625 1.0625 -0.296875 1.15625 -0.609375 C 1.195312 -0.765625 1.28125 -0.882812 1.40625 -0.96875 C 1.539062 -0.78125 1.742188 -0.644531 2.015625 -0.5625 C 2.710938 -0.351562 3.285156 -0.507812 3.734375 -1.03125 L 5.484375 -6.84375 C 5.597656 -7.195312 5.609375 -7.488281 5.515625 -7.71875 C 5.359375 -8.082031 5.03125 -8.488281 4.53125 -8.9375 C 5.15625 -9.03125 5.570312 -9.144531 5.78125 -9.28125 C 6.144531 -9.507812 6.382812 -9.816406 6.5 -10.203125 L 8.015625 -15.21875 C 7.921875 -15.90625 7.523438 -16.351562 6.828125 -16.5625 C 6.554688 -16.644531 6.3125 -16.644531 6.09375 -16.5625 C 6.050781 -16.71875 6.050781 -16.867188 6.09375 -17.015625 C 6.144531 -17.171875 6.238281 -17.300781 6.375 -17.40625 C 6.507812 -17.507812 6.664062 -17.59375 6.84375 -17.65625 C 7.269531 -17.757812 7.71875 -17.738281 8.1875 -17.59375 C 8.664062 -17.457031 9.0625 -17.203125 9.375 -16.828125 C 9.863281 -16.960938 10.375 -16.945312 10.90625 -16.78125 C 11.4375 -16.625 11.875 -16.328125 12.21875 -15.890625 C 13.15625 -15.941406 14.171875 -15.800781 15.265625 -15.46875 C 16.085938 -15.226562 16.753906 -14.9375 17.265625 -14.59375 L 18.25 -14 C 18.375 -13.925781 18.492188 -13.875 18.609375 -13.84375 C 18.828125 -13.769531 18.984375 -13.894531 19.078125 -14.21875 C 19.097656 -14.289062 19.113281 -14.429688 19.125 -14.640625 C 19.363281 -14.609375 19.648438 -14.539062 19.984375 -14.4375 C 20.328125 -14.34375 20.582031 -14.144531 20.75 -13.84375 C 20.914062 -13.550781 20.929688 -13.191406 20.796875 -12.765625 C 20.671875 -12.335938 20.5 -12.050781 20.28125 -11.90625 C 20.425781 -11.519531 20.425781 -11.097656 20.28125 -10.640625 C 20.144531 -10.191406 19.875 -9.863281 19.46875 -9.65625 C 19.476562 -9.394531 19.445312 -9.148438 19.375 -8.921875 C 19.3125 -8.691406 19.210938 -8.492188 19.078125 -8.328125 C 18.953125 -8.160156 18.820312 -8.035156 18.6875 -7.953125 C 18.382812 -7.785156 18.117188 -7.738281 17.890625 -7.8125 C 17.566406 -7.914062 17.289062 -8.070312 17.0625 -8.28125 C 17.21875 -8.445312 17.351562 -8.71875 17.46875 -9.09375 C 17.726562 -9.957031 17.738281 -10.78125 17.5 -11.5625 C 17.175781 -12.65625 16.421875 -13.378906 15.234375 -13.734375 C 14.640625 -13.910156 14.050781 -13.925781 13.46875 -13.78125 C 12.894531 -13.632812 12.425781 -13.316406 12.0625 -12.828125 L 10.6875 -8.234375 C 10.90625 -7.984375 11.132812 -7.820312 11.375 -7.75 C 11.613281 -7.675781 11.796875 -7.625 11.921875 -7.59375 C 12.046875 -7.5625 12.179688 -7.539062 12.328125 -7.53125 C 12.648438 -7.476562 12.914062 -7.460938 13.125 -7.484375 C 13.5 -7.546875 13.78125 -7.882812 13.96875 -8.5 C 14.070312 -8.84375 14.066406 -9.140625 13.953125 -9.390625 C 14.140625 -9.453125 14.351562 -9.445312 14.59375 -9.375 C 15.125 -9.207031 15.445312 -8.878906 15.5625 -8.390625 C 15.613281 -8.210938 15.609375 -8.03125 15.546875 -7.84375 C 15.492188 -7.664062 15.378906 -7.457031 15.203125 -7.21875 C 15.421875 -6.75 15.453125 -6.253906 15.296875 -5.734375 C 15.140625 -5.222656 14.84375 -4.835938 14.40625 -4.578125 C 14.425781 -4.273438 14.398438 -4.015625 14.328125 -3.796875 C 14.265625 -3.578125 14.15625 -3.378906 14 -3.203125 C 13.851562 -3.035156 13.703125 -2.914062 13.546875 -2.84375 C 13.234375 -2.6875 12.921875 -2.65625 12.609375 -2.75 C 12.390625 -2.8125 12.207031 -2.929688 12.0625 -3.109375 C 12.320312 -3.335938 12.503906 -3.640625 12.609375 -4.015625 C 12.835938 -4.742188 12.773438 -5.257812 12.421875 -5.5625 C 12.117188 -5.8125 11.734375 -6.003906 11.265625 -6.140625 C 10.804688 -6.285156 10.410156 -6.316406 10.078125 -6.234375 L 8.28125 -0.296875 C 8.5 0.648438 9.265625 1.320312 10.578125 1.71875 C 12.066406 2.164062 13.21875 2.015625 14.03125 1.265625 C 14.976562 0.390625 15.632812 -0.648438 16 -1.859375 C 16.101562 -2.203125 16.148438 -2.476562 16.140625 -2.6875 C 16.390625 -2.820312 16.617188 -2.859375 16.828125 -2.796875 C 17.046875 -2.734375 17.203125 -2.65625 17.296875 -2.5625 C 17.390625 -2.476562 17.46875 -2.375 17.53125 -2.25 C 17.65625 -1.976562 17.6875 -1.734375 17.625 -1.515625 L 17.359375 -0.953125 C 17.316406 -0.804688 17.320312 -0.675781 17.375 -0.5625 C 17.488281 -0.34375 17.519531 -0.160156 17.46875 -0.015625 C 17.425781 0.128906 17.332031 0.289062 17.1875 0.46875 C 17.332031 0.632812 17.445312 0.835938 17.53125 1.078125 C 17.613281 1.328125 17.625 1.554688 17.5625 1.765625 C 17.425781 2.210938 17.113281 2.5625 16.625 2.8125 C 16.726562 3.101562 16.710938 3.472656 16.578125 3.921875 C 16.441406 4.367188 16.195312 4.707031 15.84375 4.9375 C 15.488281 5.164062 15.109375 5.21875 14.703125 5.09375 C 14.484375 5.03125 14.265625 4.9375 14.046875 4.8125 C 14.128906 4.65625 14.191406 4.492188 14.234375 4.328125 C 14.347656 3.953125 14.238281 3.710938 13.90625 3.609375 C 13.53125 3.492188 13.132812 3.457031 12.71875 3.5 C 11.726562 3.59375 10.671875 3.46875 9.546875 3.125 C 8.429688 2.789062 7.53125 2.367188 6.84375 1.859375 C 6.332031 2.015625 5.804688 2.007812 5.265625 1.84375 Z M 5.234375 -1.84375 C 5.671875 -1.875 6.046875 -2.332031 6.359375 -3.21875 C 6.671875 -4.082031 7.0625 -5.296875 7.53125 -6.859375 C 8.007812 -8.429688 8.320312 -9.476562 8.46875 -10 C 8.625 -10.519531 8.742188 -10.941406 8.828125 -11.265625 C 9.085938 -12.210938 9.164062 -12.800781 9.0625 -13.03125 C 8.96875 -13.257812 8.863281 -13.429688 8.75 -13.546875 C 7.925781 -10.796875 7.410156 -9.242188 7.203125 -8.890625 C 6.992188 -8.609375 6.65625 -8.460938 6.1875 -8.453125 C 6.613281 -8.148438 6.820312 -7.867188 6.8125 -7.609375 C 6.789062 -7.191406 6.414062 -5.785156 5.6875 -3.390625 Z M 8.25 -1.078125 C 8.238281 -1.054688 8.238281 -1.035156 8.25 -1.015625 Z M 8.25 -1.078125 "/></g></g></g><g fill="#f2f2f2" fill-opacity="1"><g transform="translate(45.901956, 40.169971)"><g><path d="M 6.984375 0.546875 C 6.535156 0.773438 6.039062 0.859375 5.5 0.796875 C 4.96875 0.742188 4.507812 0.5625 4.125 0.25 C 3.675781 0.476562 3.269531 0.570312 2.90625 0.53125 C 2.550781 0.5 2.257812 0.441406 2.03125 0.359375 C 1.8125 0.273438 1.628906 0.171875 1.484375 0.046875 C 1.148438 -0.203125 1 -0.488281 1.03125 -0.8125 C 1.039062 -0.976562 1.097656 -1.117188 1.203125 -1.234375 C 1.367188 -1.066406 1.585938 -0.972656 1.859375 -0.953125 C 2.585938 -0.878906 3.125 -1.140625 3.46875 -1.734375 L 4.078125 -7.765625 C 4.109375 -8.140625 4.054688 -8.425781 3.921875 -8.625 C 3.703125 -8.957031 3.304688 -9.300781 2.734375 -9.65625 C 3.316406 -9.851562 3.703125 -10.046875 3.890625 -10.234375 C 4.203125 -10.515625 4.378906 -10.859375 4.421875 -11.265625 L 4.953125 -16.484375 C 4.734375 -17.140625 4.257812 -17.503906 3.53125 -17.578125 C 3.257812 -17.597656 3.019531 -17.546875 2.8125 -17.421875 C 2.738281 -17.554688 2.707031 -17.703125 2.71875 -17.859375 C 2.738281 -18.023438 2.800781 -18.171875 2.90625 -18.296875 C 3.019531 -18.429688 3.164062 -18.546875 3.34375 -18.640625 C 3.726562 -18.828125 4.164062 -18.894531 4.65625 -18.84375 C 5.15625 -18.800781 5.597656 -18.625 5.984375 -18.3125 C 6.421875 -18.539062 6.90625 -18.628906 7.4375 -18.578125 C 7.96875 -18.523438 8.4375 -18.335938 8.84375 -18.015625 C 9.800781 -18.273438 10.84375 -18.347656 11.96875 -18.234375 C 13.101562 -18.128906 14.046875 -17.929688 14.796875 -17.640625 C 15.546875 -17.359375 16.175781 -17.003906 16.6875 -16.578125 C 17.71875 -15.703125 18.300781 -14.566406 18.4375 -13.171875 C 18.488281 -12.546875 18.832031 -12.046875 19.46875 -11.671875 C 18.800781 -11.367188 18.328125 -10.832031 18.046875 -10.0625 C 17.484375 -8.476562 16.375 -7.5625 14.71875 -7.3125 C 15.519531 -7.019531 16.148438 -6.5 16.609375 -5.75 C 17.085938 -4.976562 17.28125 -4.101562 17.1875 -3.125 L 17.0625 -1.90625 C 16.945312 -0.71875 17.242188 0.078125 17.953125 0.484375 C 18.179688 0.617188 18.429688 0.703125 18.703125 0.734375 C 18.972656 0.765625 19.207031 0.710938 19.40625 0.578125 C 19.476562 0.710938 19.503906 0.859375 19.484375 1.015625 C 19.472656 1.179688 19.421875 1.332031 19.328125 1.46875 C 19.234375 1.601562 19.113281 1.710938 18.96875 1.796875 C 18.632812 1.992188 18.269531 2.070312 17.875 2.03125 C 17.476562 2 17.109375 1.851562 16.765625 1.59375 C 16.035156 1.914062 15.382812 1.890625 14.8125 1.515625 C 14.5625 1.640625 14.3125 1.6875 14.0625 1.65625 C 13.8125 1.632812 13.570312 1.550781 13.34375 1.40625 C 13.125 1.269531 12.9375 1.054688 12.78125 0.765625 C 12.457031 0.171875 12.351562 -0.710938 12.46875 -1.890625 L 12.5625 -2.8125 C 12.75 -4.707031 12.328125 -6 11.296875 -6.6875 C 10.953125 -6.894531 10.535156 -7.023438 10.046875 -7.078125 L 8.609375 -7.21875 L 8.015625 -1.21875 C 8.171875 -0.613281 8.5625 -0.28125 9.1875 -0.21875 C 9.46875 -0.1875 9.707031 -0.238281 9.90625 -0.375 C 9.976562 -0.238281 10.003906 -0.0507812 9.984375 0.1875 C 9.960938 0.425781 9.804688 0.644531 9.515625 0.84375 C 9.234375 1.050781 8.832031 1.128906 8.3125 1.078125 C 7.800781 1.023438 7.359375 0.847656 6.984375 0.546875 Z M 11.953125 -16.578125 C 10.367188 -16.734375 9.515625 -16.203125 9.390625 -14.984375 L 8.890625 -9.953125 C 8.835938 -9.515625 8.972656 -9.207031 9.296875 -9.03125 C 9.609375 -8.851562 10.078125 -8.734375 10.703125 -8.671875 C 11.335938 -8.609375 11.78125 -8.597656 12.03125 -8.640625 C 12.289062 -8.691406 12.519531 -8.796875 12.71875 -8.953125 C 13.125 -9.273438 13.367188 -9.847656 13.453125 -10.671875 L 13.8125 -14.28125 C 13.914062 -15.3125 13.550781 -16.007812 12.71875 -16.375 C 12.488281 -16.476562 12.234375 -16.546875 11.953125 -16.578125 Z M 14.78125 -15.5 C 14.96875 -14.90625 15 -13.976562 14.875 -12.71875 C 14.65625 -10.53125 14.425781 -9.234375 14.1875 -8.828125 C 14.644531 -8.867188 15.019531 -9.441406 15.3125 -10.546875 L 15.484375 -11.03125 C 15.617188 -11.5625 15.910156 -11.878906 16.359375 -11.984375 C 16.046875 -12.128906 15.859375 -12.28125 15.796875 -12.4375 C 15.703125 -12.613281 15.640625 -12.910156 15.609375 -13.328125 C 15.578125 -13.753906 15.53125 -14.097656 15.46875 -14.359375 C 15.414062 -14.628906 15.359375 -14.84375 15.296875 -15 C 15.148438 -15.28125 14.976562 -15.445312 14.78125 -15.5 Z M 4.78125 -2.828125 C 5.195312 -2.941406 5.472656 -3.453125 5.609375 -4.359375 C 5.753906 -5.285156 5.90625 -6.5625 6.0625 -8.1875 C 6.226562 -9.8125 6.335938 -10.894531 6.390625 -11.4375 C 6.441406 -11.976562 6.476562 -12.414062 6.5 -12.75 C 6.570312 -13.71875 6.539062 -14.304688 6.40625 -14.515625 C 6.269531 -14.734375 6.132812 -14.890625 6 -14.984375 C 5.707031 -12.117188 5.492188 -10.492188 5.359375 -10.109375 C 5.210938 -9.796875 4.910156 -9.585938 4.453125 -9.484375 C 4.929688 -9.265625 5.191406 -9.023438 5.234375 -8.765625 C 5.285156 -8.367188 5.1875 -6.921875 4.9375 -4.421875 Z M 13.640625 -5.359375 C 13.929688 -4.953125 14.050781 -4.476562 14 -3.9375 L 13.828125 -2.328125 C 13.691406 -0.953125 13.882812 -0.195312 14.40625 -0.0625 C 14.550781 -0.0195312 14.703125 -0.0078125 14.859375 -0.03125 C 14.597656 -0.507812 14.492188 -1.007812 14.546875 -1.53125 L 14.71875 -3.265625 C 14.78125 -3.898438 14.742188 -4.363281 14.609375 -4.65625 C 14.335938 -5.144531 14.015625 -5.378906 13.640625 -5.359375 Z M 13.640625 -5.359375 "/></g></g></g><g fill="#f2f2f2" fill-opacity="1"><g transform="translate(69.394914, 42.070236)"><g><path d="M 5.578125 -0.296875 C 5.046875 -0.242188 4.550781 -0.332031 4.09375 -0.5625 C 3.707031 -0.25 3.332031 -0.0703125 2.96875 -0.03125 C 2.613281 0 2.3125 -0.00390625 2.0625 -0.046875 C 1.820312 -0.0859375 1.617188 -0.148438 1.453125 -0.234375 C 1.078125 -0.421875 0.875 -0.675781 0.84375 -1 C 0.832031 -1.164062 0.863281 -1.316406 0.9375 -1.453125 C 1.132812 -1.316406 1.367188 -1.265625 1.640625 -1.296875 C 2.367188 -1.367188 2.84375 -1.734375 3.0625 -2.390625 L 2.46875 -8.4375 C 2.4375 -8.789062 2.332031 -9.054688 2.15625 -9.234375 C 1.875 -9.535156 1.414062 -9.800781 0.78125 -10.03125 C 1.320312 -10.34375 1.664062 -10.601562 1.8125 -10.8125 C 2.0625 -11.164062 2.164062 -11.535156 2.125 -11.921875 L 1.609375 -17.140625 C 1.265625 -17.742188 0.726562 -18.007812 0 -17.9375 C -0.269531 -17.90625 -0.488281 -17.8125 -0.65625 -17.65625 C -0.75 -17.769531 -0.800781 -17.90625 -0.8125 -18.0625 C -0.832031 -18.21875 -0.800781 -18.367188 -0.71875 -18.515625 C -0.644531 -18.671875 -0.53125 -18.804688 -0.375 -18.921875 C -0.03125 -19.191406 0.382812 -19.347656 0.875 -19.390625 C 1.375 -19.441406 1.835938 -19.351562 2.265625 -19.125 C 2.671875 -19.4375 3.132812 -19.617188 3.65625 -19.671875 C 4.238281 -19.722656 4.757812 -19.617188 5.21875 -19.359375 C 6.082031 -19.835938 6.96875 -20.117188 7.875 -20.203125 C 8.789062 -20.296875 9.625 -20.289062 10.375 -20.1875 C 11.132812 -20.082031 11.832031 -19.898438 12.46875 -19.640625 C 13.84375 -19.078125 14.742188 -18.257812 15.171875 -17.1875 C 15.421875 -16.59375 15.859375 -16.175781 16.484375 -15.9375 C 15.859375 -15.414062 15.5 -14.851562 15.40625 -14.25 C 15.1875 -12.914062 14.570312 -11.992188 13.5625 -11.484375 C 15.15625 -11.210938 16.265625 -10.300781 16.890625 -8.75 C 17.109375 -8.207031 17.539062 -7.785156 18.1875 -7.484375 C 17.59375 -7.054688 17.222656 -6.472656 17.078125 -5.734375 C 16.929688 -5.003906 16.613281 -4.328125 16.125 -3.703125 C 15.644531 -3.085938 15.070312 -2.554688 14.40625 -2.109375 C 13.082031 -1.265625 11.550781 -0.753906 9.8125 -0.578125 C 8.769531 -0.484375 7.832031 -0.582031 7 -0.875 C 6.59375 -0.539062 6.117188 -0.347656 5.578125 -0.296875 Z M 9.078125 -11.671875 C 9.796875 -11.734375 10.289062 -11.953125 10.5625 -12.328125 C 10.84375 -12.703125 10.941406 -13.320312 10.859375 -14.1875 L 10.578125 -17.046875 C 10.535156 -17.546875 10.234375 -17.941406 9.671875 -18.234375 C 9.191406 -18.503906 8.753906 -18.617188 8.359375 -18.578125 C 7.960938 -18.546875 7.640625 -18.46875 7.390625 -18.34375 C 7.148438 -18.21875 6.941406 -18.066406 6.765625 -17.890625 C 6.378906 -17.492188 6.210938 -17.050781 6.265625 -16.5625 L 6.765625 -11.4375 Z M 11.140625 -18.5625 C 11.484375 -17.957031 11.71875 -17.054688 11.84375 -15.859375 C 12.007812 -14.085938 12.003906 -12.929688 11.828125 -12.390625 C 12.171875 -12.484375 12.429688 -12.84375 12.609375 -13.46875 C 12.679688 -13.707031 12.726562 -13.945312 12.75 -14.1875 C 12.769531 -14.4375 12.785156 -14.628906 12.796875 -14.765625 C 12.816406 -14.910156 12.851562 -15.035156 12.90625 -15.140625 C 13.007812 -15.367188 13.207031 -15.550781 13.5 -15.6875 C 13.175781 -15.757812 12.96875 -15.851562 12.875 -15.96875 C 12.75 -16.09375 12.632812 -16.335938 12.53125 -16.703125 C 12.425781 -17.066406 12.316406 -17.359375 12.203125 -17.578125 C 12.085938 -17.804688 11.96875 -17.992188 11.84375 -18.140625 C 11.613281 -18.410156 11.378906 -18.550781 11.140625 -18.5625 Z M 4.125 -3.703125 C 4.519531 -3.898438 4.691406 -4.457031 4.640625 -5.375 C 4.609375 -6.3125 4.507812 -7.59375 4.34375 -9.21875 C 4.1875 -10.851562 4.078125 -11.9375 4.015625 -12.46875 C 3.960938 -13.007812 3.914062 -13.445312 3.875 -13.78125 C 3.75 -14.738281 3.597656 -15.304688 3.421875 -15.484375 C 3.253906 -15.671875 3.09375 -15.796875 2.9375 -15.859375 C 3.21875 -13.003906 3.332031 -11.375 3.28125 -10.96875 C 3.195312 -10.625 2.9375 -10.359375 2.5 -10.171875 C 3.019531 -10.046875 3.320312 -9.863281 3.40625 -9.625 C 3.539062 -9.238281 3.726562 -7.800781 3.96875 -5.3125 Z M 7.5 -3.984375 C 7.550781 -3.410156 7.8125 -2.957031 8.28125 -2.625 C 8.738281 -2.332031 9.257812 -2.21875 9.84375 -2.28125 C 10.414062 -2.332031 10.878906 -2.492188 11.234375 -2.765625 C 11.929688 -3.328125 12.25 -3.921875 12.1875 -4.546875 L 11.828125 -8.171875 C 11.753906 -8.921875 11.457031 -9.457031 10.9375 -9.78125 C 10.5 -10.0625 9.945312 -10.171875 9.28125 -10.109375 L 6.921875 -9.875 Z M 12.484375 -10.03125 C 12.722656 -9.613281 12.925781 -8.597656 13.09375 -6.984375 C 13.289062 -4.941406 13.328125 -3.734375 13.203125 -3.359375 C 13.378906 -3.410156 13.539062 -3.632812 13.6875 -4.03125 C 13.832031 -4.4375 13.921875 -4.851562 13.953125 -5.28125 C 13.984375 -5.707031 14.003906 -5.988281 14.015625 -6.125 C 14.035156 -6.269531 14.066406 -6.40625 14.109375 -6.53125 C 14.210938 -6.789062 14.414062 -6.992188 14.71875 -7.140625 C 14.21875 -7.242188 13.898438 -7.523438 13.765625 -7.984375 C 13.628906 -8.453125 13.503906 -8.804688 13.390625 -9.046875 C 13.285156 -9.296875 13.179688 -9.488281 13.078125 -9.625 C 12.898438 -9.875 12.703125 -10.007812 12.484375 -10.03125 Z M 12.484375 -10.03125 "/></g></g></g><g fill="#f2f2f2" fill-opacity="1"><g transform="translate(92.352917, 39.361853)"><g><path d="M 5.421875 -1.359375 C 4.898438 -1.203125 4.394531 -1.191406 3.90625 -1.328125 C 3.59375 -0.953125 3.265625 -0.710938 2.921875 -0.609375 C 2.578125 -0.503906 2.28125 -0.445312 2.03125 -0.4375 C 1.78125 -0.425781 1.5625 -0.453125 1.375 -0.515625 C 0.976562 -0.617188 0.734375 -0.828125 0.640625 -1.140625 C 0.597656 -1.296875 0.59375 -1.441406 0.625 -1.578125 C 0.84375 -1.503906 1.085938 -1.503906 1.359375 -1.578125 C 2.054688 -1.785156 2.453125 -2.234375 2.546875 -2.921875 L 0.8125 -8.734375 C 0.707031 -9.097656 0.554688 -9.34375 0.359375 -9.46875 C 0.0351562 -9.695312 -0.457031 -9.863281 -1.125 -9.96875 C -0.65625 -10.382812 -0.375 -10.707031 -0.28125 -10.9375 C -0.101562 -11.332031 -0.0703125 -11.722656 -0.1875 -12.109375 L -1.671875 -17.125 C -2.128906 -17.65625 -2.707031 -17.816406 -3.40625 -17.609375 C -3.675781 -17.535156 -3.878906 -17.394531 -4.015625 -17.1875 C -4.117188 -17.289062 -4.191406 -17.414062 -4.234375 -17.5625 C -4.285156 -17.71875 -4.285156 -17.875 -4.234375 -18.03125 C -4.179688 -18.195312 -4.09375 -18.359375 -3.96875 -18.515625 C -3.675781 -18.835938 -3.289062 -19.066406 -2.8125 -19.203125 C -2.34375 -19.347656 -1.875 -19.347656 -1.40625 -19.203125 C -1.082031 -19.585938 -0.648438 -19.859375 -0.109375 -20.015625 C 0.421875 -20.171875 0.945312 -20.160156 1.46875 -19.984375 C 2.226562 -20.546875 3.15625 -20.988281 4.25 -21.3125 C 5.070312 -21.5625 5.789062 -21.691406 6.40625 -21.703125 L 7.546875 -21.71875 C 7.691406 -21.738281 7.820312 -21.765625 7.9375 -21.796875 C 8.15625 -21.867188 8.21875 -22.0625 8.125 -22.375 C 8.101562 -22.445312 8.039062 -22.566406 7.9375 -22.734375 C 8.15625 -22.835938 8.429688 -22.941406 8.765625 -23.046875 C 9.109375 -23.148438 9.425781 -23.125 9.71875 -22.96875 C 10.019531 -22.8125 10.234375 -22.519531 10.359375 -22.09375 C 10.492188 -21.664062 10.515625 -21.332031 10.421875 -21.09375 C 10.734375 -20.84375 10.957031 -20.488281 11.09375 -20.03125 C 11.226562 -19.582031 11.1875 -19.160156 10.96875 -18.765625 C 11.132812 -18.554688 11.25 -18.335938 11.3125 -18.109375 C 11.382812 -17.878906 11.40625 -17.660156 11.375 -17.453125 C 11.351562 -17.242188 11.3125 -17.054688 11.25 -16.890625 C 11.09375 -16.597656 10.894531 -16.421875 10.65625 -16.359375 C 10.332031 -16.253906 10.015625 -16.238281 9.703125 -16.3125 C 9.742188 -16.519531 9.707031 -16.8125 9.59375 -17.1875 C 9.34375 -18.050781 8.898438 -18.75 8.265625 -19.28125 C 7.398438 -20.007812 6.375 -20.195312 5.1875 -19.84375 C 4.582031 -19.664062 4.078125 -19.359375 3.671875 -18.921875 C 3.273438 -18.484375 3.054688 -17.957031 3.015625 -17.34375 L 4.390625 -12.75 C 4.722656 -12.664062 5.007812 -12.660156 5.25 -12.734375 C 5.488281 -12.804688 5.664062 -12.863281 5.78125 -12.90625 C 5.90625 -12.945312 6.03125 -13 6.15625 -13.0625 C 6.457031 -13.195312 6.6875 -13.332031 6.84375 -13.46875 C 7.132812 -13.71875 7.1875 -14.15625 7 -14.78125 C 6.894531 -15.125 6.734375 -15.363281 6.515625 -15.5 C 6.628906 -15.664062 6.804688 -15.785156 7.046875 -15.859375 C 7.578125 -16.015625 8.03125 -15.914062 8.40625 -15.5625 C 8.53125 -15.425781 8.617188 -15.269531 8.671875 -15.09375 C 8.722656 -14.914062 8.742188 -14.675781 8.734375 -14.375 C 9.171875 -14.113281 9.46875 -13.722656 9.625 -13.203125 C 9.78125 -12.691406 9.742188 -12.195312 9.515625 -11.71875 C 9.691406 -11.476562 9.8125 -11.25 9.875 -11.03125 C 9.945312 -10.8125 9.96875 -10.59375 9.9375 -10.375 C 9.90625 -10.15625 9.847656 -9.96875 9.765625 -9.8125 C 9.585938 -9.507812 9.34375 -9.3125 9.03125 -9.21875 C 8.8125 -9.15625 8.59375 -9.160156 8.375 -9.234375 C 8.457031 -9.566406 8.441406 -9.914062 8.328125 -10.28125 C 8.109375 -11.019531 7.78125 -11.414062 7.34375 -11.46875 C 6.925781 -11.519531 6.488281 -11.472656 6.03125 -11.328125 C 5.570312 -11.191406 5.222656 -10.992188 4.984375 -10.734375 L 6.75 -4.796875 C 7.445312 -4.117188 8.457031 -3.976562 9.78125 -4.375 C 11.269531 -4.8125 12.144531 -5.570312 12.40625 -6.65625 C 12.726562 -7.90625 12.707031 -9.132812 12.34375 -10.34375 C 12.238281 -10.695312 12.125 -10.957031 12 -11.125 C 12.144531 -11.363281 12.320312 -11.515625 12.53125 -11.578125 C 12.75 -11.648438 12.921875 -11.671875 13.046875 -11.640625 C 13.179688 -11.617188 13.300781 -11.578125 13.40625 -11.515625 C 13.664062 -11.359375 13.828125 -11.171875 13.890625 -10.953125 L 14 -10.328125 C 14.039062 -10.179688 14.113281 -10.078125 14.21875 -10.015625 C 14.4375 -9.890625 14.566406 -9.753906 14.609375 -9.609375 C 14.648438 -9.460938 14.65625 -9.273438 14.625 -9.046875 C 14.832031 -8.992188 15.035156 -8.882812 15.234375 -8.71875 C 15.441406 -8.5625 15.578125 -8.378906 15.640625 -8.171875 C 15.773438 -7.722656 15.710938 -7.257812 15.453125 -6.78125 C 15.679688 -6.59375 15.863281 -6.273438 16 -5.828125 C 16.132812 -5.378906 16.117188 -4.960938 15.953125 -4.578125 C 15.785156 -4.191406 15.5 -3.941406 15.09375 -3.828125 C 14.875 -3.753906 14.632812 -3.707031 14.375 -3.6875 C 14.351562 -3.863281 14.320312 -4.035156 14.28125 -4.203125 C 14.164062 -4.578125 13.941406 -4.71875 13.609375 -4.625 C 13.234375 -4.507812 12.878906 -4.320312 12.546875 -4.0625 C 11.785156 -3.4375 10.84375 -2.957031 9.71875 -2.625 C 8.601562 -2.300781 7.601562 -2.160156 6.71875 -2.203125 C 6.40625 -1.796875 5.972656 -1.515625 5.421875 -1.359375 Z M 3.34375 -4.421875 C 3.695312 -4.691406 3.757812 -5.273438 3.53125 -6.171875 C 3.320312 -7.066406 2.984375 -8.296875 2.515625 -9.859375 C 2.054688 -11.429688 1.742188 -12.476562 1.578125 -13 C 1.421875 -13.519531 1.289062 -13.941406 1.1875 -14.265625 C 0.882812 -15.191406 0.628906 -15.726562 0.421875 -15.875 C 0.210938 -16.019531 0.0234375 -16.109375 -0.140625 -16.140625 C 0.679688 -13.378906 1.109375 -11.796875 1.140625 -11.390625 C 1.117188 -11.035156 0.914062 -10.726562 0.53125 -10.46875 C 1.050781 -10.4375 1.378906 -10.3125 1.515625 -10.09375 C 1.710938 -9.75 2.171875 -8.375 2.890625 -5.96875 Z M 6.3125 -5.4375 C 6.3125 -5.414062 6.320312 -5.394531 6.34375 -5.375 Z M 6.3125 -5.4375 "/></g></g></g><g fill="#f2f2f2" fill-opacity="1"><g transform="translate(113.481526, 32.713598)"><g><path d="M 6.125 -3.390625 C 5.882812 -2.953125 5.523438 -2.609375 5.046875 -2.359375 C 4.566406 -2.109375 4.078125 -2.003906 3.578125 -2.046875 C 3.328125 -1.617188 3.039062 -1.320312 2.71875 -1.15625 C 2.40625 -0.988281 2.128906 -0.875 1.890625 -0.8125 C 1.660156 -0.757812 1.445312 -0.742188 1.25 -0.765625 C 0.832031 -0.796875 0.550781 -0.953125 0.40625 -1.234375 C 0.332031 -1.390625 0.300781 -1.539062 0.3125 -1.6875 C 0.550781 -1.644531 0.796875 -1.6875 1.046875 -1.8125 C 1.691406 -2.15625 1.988281 -2.671875 1.9375 -3.359375 L -0.875 -8.734375 C -1.039062 -9.066406 -1.234375 -9.273438 -1.453125 -9.359375 C -1.816406 -9.515625 -2.335938 -9.582031 -3.015625 -9.5625 C -2.640625 -10.050781 -2.421875 -10.425781 -2.359375 -10.6875 C -2.265625 -11.09375 -2.3125 -11.476562 -2.5 -11.84375 L -4.921875 -16.484375 C -5.460938 -16.921875 -6.054688 -16.96875 -6.703125 -16.625 C -6.953125 -16.5 -7.128906 -16.328125 -7.234375 -16.109375 C -7.359375 -16.179688 -7.457031 -16.289062 -7.53125 -16.4375 C -7.613281 -16.582031 -7.644531 -16.734375 -7.625 -16.890625 C -7.601562 -17.054688 -7.546875 -17.226562 -7.453125 -17.40625 C -7.222656 -17.78125 -6.890625 -18.082031 -6.453125 -18.3125 C -6.015625 -18.539062 -5.550781 -18.628906 -5.0625 -18.578125 C -4.8125 -19.015625 -4.445312 -19.359375 -3.96875 -19.609375 C -3.5 -19.859375 -3.015625 -19.960938 -2.515625 -19.921875 C -1.847656 -20.660156 -1.007812 -21.289062 0 -21.8125 C 1 -22.34375 1.890625 -22.691406 2.671875 -22.859375 C 3.453125 -23.035156 4.171875 -23.09375 4.828125 -23.03125 C 6.179688 -22.851562 7.296875 -22.21875 8.171875 -21.125 C 8.554688 -20.632812 9.117188 -20.410156 9.859375 -20.453125 C 9.453125 -19.828125 9.347656 -19.117188 9.546875 -18.328125 C 9.941406 -16.691406 9.515625 -15.316406 8.265625 -14.203125 C 9.097656 -14.398438 9.914062 -14.304688 10.71875 -13.921875 C 11.539062 -13.546875 12.179688 -12.925781 12.640625 -12.0625 L 13.203125 -10.96875 C 13.753906 -9.914062 14.445312 -9.414062 15.28125 -9.46875 C 15.550781 -9.46875 15.804688 -9.53125 16.046875 -9.65625 C 16.285156 -9.789062 16.445312 -9.957031 16.53125 -10.15625 C 16.675781 -10.101562 16.785156 -10.003906 16.859375 -9.859375 C 16.929688 -9.710938 16.960938 -9.554688 16.953125 -9.390625 C 16.953125 -9.222656 16.910156 -9.0625 16.828125 -8.90625 C 16.660156 -8.570312 16.398438 -8.3125 16.046875 -8.125 C 15.703125 -7.9375 15.316406 -7.851562 14.890625 -7.875 C 14.453125 -7.21875 13.890625 -6.882812 13.203125 -6.875 C 13.066406 -6.644531 12.882812 -6.46875 12.65625 -6.34375 C 12.425781 -6.226562 12.179688 -6.164062 11.921875 -6.15625 C 11.660156 -6.144531 11.390625 -6.21875 11.109375 -6.375 C 10.503906 -6.695312 9.925781 -7.382812 9.375 -8.4375 L 8.953125 -9.25 C 8.066406 -10.945312 7.007812 -11.789062 5.78125 -11.78125 C 5.363281 -11.78125 4.9375 -11.664062 4.5 -11.4375 L 3.21875 -10.765625 L 6.015625 -5.421875 C 6.492188 -5.003906 7.007812 -4.941406 7.5625 -5.234375 C 7.8125 -5.359375 7.976562 -5.523438 8.0625 -5.734375 C 8.207031 -5.671875 8.332031 -5.53125 8.4375 -5.3125 C 8.550781 -5.101562 8.546875 -4.835938 8.421875 -4.515625 C 8.296875 -4.191406 8 -3.910156 7.53125 -3.671875 C 7.070312 -3.429688 6.601562 -3.335938 6.125 -3.390625 Z M 0.859375 -20.421875 C -0.546875 -19.679688 -0.960938 -18.765625 -0.390625 -17.671875 L 1.953125 -13.1875 C 2.160156 -12.800781 2.445312 -12.625 2.8125 -12.65625 C 3.164062 -12.664062 3.625 -12.816406 4.1875 -13.109375 C 4.75 -13.398438 5.125 -13.640625 5.3125 -13.828125 C 5.5 -14.015625 5.628906 -14.226562 5.703125 -14.46875 C 5.867188 -14.957031 5.757812 -15.570312 5.375 -16.3125 L 3.703125 -19.515625 C 3.222656 -20.429688 2.535156 -20.816406 1.640625 -20.671875 C 1.367188 -20.628906 1.109375 -20.546875 0.859375 -20.421875 Z M 3.828125 -21.0625 C 4.304688 -20.664062 4.84375 -19.90625 5.4375 -18.78125 C 6.457031 -16.832031 6.976562 -15.628906 7 -15.171875 C 7.363281 -15.460938 7.363281 -16.144531 7 -17.21875 L 6.890625 -17.734375 C 6.710938 -18.242188 6.78125 -18.664062 7.09375 -19 C 6.75 -18.945312 6.503906 -18.96875 6.359375 -19.0625 C 6.191406 -19.164062 5.976562 -19.382812 5.71875 -19.71875 C 5.457031 -20.050781 5.226562 -20.3125 5.03125 -20.5 C 4.84375 -20.695312 4.675781 -20.835938 4.53125 -20.921875 C 4.257812 -21.085938 4.023438 -21.132812 3.828125 -21.0625 Z M 2.4375 -4.984375 C 2.738281 -5.304688 2.6875 -5.890625 2.28125 -6.734375 C 1.90625 -7.578125 1.335938 -8.722656 0.578125 -10.171875 C -0.171875 -11.617188 -0.675781 -12.582031 -0.9375 -13.0625 C -1.195312 -13.539062 -1.40625 -13.925781 -1.5625 -14.21875 C -2.039062 -15.070312 -2.394531 -15.550781 -2.625 -15.65625 C -2.863281 -15.757812 -3.066406 -15.8125 -3.234375 -15.8125 C -1.898438 -13.257812 -1.179688 -11.785156 -1.078125 -11.390625 C -1.015625 -11.035156 -1.148438 -10.691406 -1.484375 -10.359375 C -0.972656 -10.453125 -0.628906 -10.398438 -0.453125 -10.203125 C -0.191406 -9.898438 0.519531 -8.632812 1.6875 -6.40625 Z M 8.453125 -11.96875 C 8.910156 -11.78125 9.265625 -11.445312 9.515625 -10.96875 L 10.28125 -9.53125 C 10.914062 -8.3125 11.492188 -7.789062 12.015625 -7.96875 C 12.160156 -8.007812 12.285156 -8.082031 12.390625 -8.1875 C 11.910156 -8.445312 11.550781 -8.804688 11.3125 -9.265625 L 10.5 -10.8125 C 10.207031 -11.382812 9.914062 -11.753906 9.625 -11.921875 C 9.144531 -12.179688 8.753906 -12.195312 8.453125 -11.96875 Z M 8.453125 -11.96875 "/></g></g></g></g></g><g fill="#ffffff" fill-opacity="1"><g transform="translate(78.708399, 210.558003)"><g><path d="M 6.75 -8.6875 L 6.609375 -6.65625 L 6.5625 -6.640625 C 6.226562 -7.148438 5.648438 -7.484375 4.828125 -7.640625 C 4.566406 -7.691406 4.316406 -7.71875 4.078125 -7.71875 C 3.835938 -7.71875 3.632812 -7.695312 3.46875 -7.65625 C 3.300781 -7.613281 3.15625 -7.550781 3.03125 -7.46875 C 2.78125 -7.300781 2.65625 -7.085938 2.65625 -6.828125 C 2.65625 -6.472656 2.765625 -6.207031 2.984375 -6.03125 C 3.265625 -5.820312 3.722656 -5.671875 4.359375 -5.578125 C 5.003906 -5.492188 5.519531 -5.378906 5.90625 -5.234375 C 6.289062 -5.085938 6.609375 -4.898438 6.859375 -4.671875 C 7.335938 -4.253906 7.578125 -3.65625 7.578125 -2.875 C 7.578125 -1.863281 7.191406 -1.082031 6.421875 -0.53125 C 5.765625 -0.0625 4.9375 0.171875 3.9375 0.171875 C 3.132812 0.171875 2.34375 0.0195312 1.5625 -0.28125 C 1.300781 -0.382812 1.078125 -0.503906 0.890625 -0.640625 L 0.96875 -2.953125 L 0.984375 -2.96875 C 1.554688 -1.976562 2.5 -1.484375 3.8125 -1.484375 C 4.738281 -1.484375 5.347656 -1.707031 5.640625 -2.15625 C 5.742188 -2.3125 5.796875 -2.484375 5.796875 -2.671875 C 5.796875 -2.859375 5.765625 -3.007812 5.703125 -3.125 C 5.648438 -3.25 5.550781 -3.359375 5.40625 -3.453125 C 5.144531 -3.617188 4.695312 -3.734375 4.0625 -3.796875 C 3.425781 -3.859375 2.90625 -3.972656 2.5 -4.140625 C 2.101562 -4.304688 1.785156 -4.507812 1.546875 -4.75 C 1.117188 -5.195312 0.90625 -5.816406 0.90625 -6.609375 C 0.90625 -7.429688 1.191406 -8.09375 1.765625 -8.59375 C 2.347656 -9.113281 3.132812 -9.375 4.125 -9.375 C 5.125 -9.375 6 -9.144531 6.75 -8.6875 Z M 6.75 -8.6875 "/></g></g></g><g fill="#ffffff" fill-opacity="1"><g transform="translate(86.954691, 210.558003)"><g><path d="M 1.40625 -9.234375 C 1.863281 -9.210938 2.140625 -9.203125 2.234375 -9.203125 L 2.734375 -9.203125 C 2.984375 -9.203125 3.179688 -9.222656 3.328125 -9.265625 L 3.328125 0 L 1.40625 0 Z M 1.109375 -11.203125 C 1.410156 -11.679688 1.753906 -12.128906 2.140625 -12.546875 L 3.46875 -11.5 C 3.238281 -11.207031 3.082031 -11.007812 3 -10.90625 L 2.75 -10.5625 C 2.675781 -10.457031 2.59375 -10.335938 2.5 -10.203125 Z M 1.109375 -11.203125 "/></g></g></g><g fill="#ffffff" fill-opacity="1"><g transform="translate(91.682657, 210.558003)"><g><path d="M 1.25 0 C 1.28125 -0.15625 1.296875 -0.328125 1.296875 -0.515625 L 1.296875 -9.203125 L 2.671875 -9.203125 L 6.34375 -3.4375 L 6.34375 -8.734375 C 6.34375 -8.984375 6.320312 -9.140625 6.28125 -9.203125 L 8.140625 -9.203125 C 8.117188 -9.015625 8.109375 -8.8125 8.109375 -8.59375 L 8.109375 0 L 6.671875 0 L 3.0625 -5.546875 L 3.0625 0 Z M 1.25 0 "/></g></g></g><g fill="#ffffff" fill-opacity="1"><g transform="translate(101.076378, 210.558003)"><g><path d="M 5.3125 -9.375 C 6.175781 -9.375 6.910156 -9.222656 7.515625 -8.921875 L 7.515625 -6.796875 C 7.253906 -7.191406 6.707031 -7.453125 5.875 -7.578125 C 5.632812 -7.617188 5.328125 -7.640625 4.953125 -7.640625 C 4.578125 -7.640625 4.207031 -7.566406 3.84375 -7.421875 C 3.488281 -7.285156 3.195312 -7.09375 2.96875 -6.84375 C 2.519531 -6.332031 2.296875 -5.613281 2.296875 -4.6875 C 2.296875 -3.601562 2.578125 -2.796875 3.140625 -2.265625 C 3.609375 -1.816406 4.234375 -1.59375 5.015625 -1.59375 C 5.890625 -1.59375 6.597656 -1.78125 7.140625 -2.15625 C 7.335938 -2.289062 7.503906 -2.457031 7.640625 -2.65625 L 7.671875 -2.640625 L 7.671875 -0.703125 C 6.960938 -0.117188 6.007812 0.171875 4.8125 0.171875 C 3.40625 0.171875 2.304688 -0.273438 1.515625 -1.171875 C 0.742188 -2.023438 0.359375 -3.15625 0.359375 -4.5625 C 0.359375 -6.050781 0.78125 -7.222656 1.625 -8.078125 C 2.46875 -8.941406 3.695312 -9.375 5.3125 -9.375 Z M 5.3125 -9.375 "/></g></g></g><g fill="#ffffff" fill-opacity="1"><g transform="translate(109.288109, 210.558003)"><g><path d="M 5.8125 -1.65625 C 6.101562 -1.65625 6.304688 -1.6875 6.421875 -1.75 L 6.4375 -1.734375 L 6.375 0 L 1.1875 0 L 1.1875 -9.25 C 1.3125 -9.238281 1.453125 -9.234375 1.609375 -9.234375 L 2.09375 -9.21875 C 2.414062 -9.207031 2.765625 -9.203125 3.140625 -9.203125 C 4.191406 -9.203125 5.238281 -9.222656 6.28125 -9.265625 C 6.226562 -8.859375 6.203125 -8.3125 6.203125 -7.625 C 6.203125 -7.550781 6.207031 -7.5 6.21875 -7.46875 L 6.203125 -7.453125 C 5.960938 -7.515625 5.617188 -7.546875 5.171875 -7.546875 L 3 -7.546875 L 3 -5.78125 L 4.640625 -5.78125 C 5.140625 -5.78125 5.441406 -5.796875 5.546875 -5.828125 L 5.578125 -4.125 C 5.347656 -4.144531 5.0625 -4.15625 4.71875 -4.15625 L 3 -4.15625 L 3 -1.65625 Z M 5.8125 -1.65625 "/></g></g></g><g fill="#ffffff" fill-opacity="1"><g transform="translate(267.666756, 206.525259)"><g><path d="M 3.828125 -4.15625 C 4.503906 -5.019531 4.894531 -5.703125 5 -6.203125 C 5.03125 -6.359375 5.046875 -6.507812 5.046875 -6.65625 C 5.046875 -6.988281 4.921875 -7.253906 4.671875 -7.453125 C 4.421875 -7.660156 4.054688 -7.765625 3.578125 -7.765625 C 3.128906 -7.765625 2.664062 -7.648438 2.1875 -7.421875 C 1.75 -7.203125 1.4375 -6.953125 1.25 -6.671875 L 1.15625 -6.65625 L 1.21875 -8.734375 C 1.625 -9.003906 2.191406 -9.195312 2.921875 -9.3125 C 3.148438 -9.351562 3.367188 -9.375 3.578125 -9.375 C 4.734375 -9.375 5.597656 -9.097656 6.171875 -8.546875 C 6.660156 -8.078125 6.90625 -7.453125 6.90625 -6.671875 C 6.90625 -6.140625 6.738281 -5.5625 6.40625 -4.9375 C 6.125 -4.425781 5.75 -3.867188 5.28125 -3.265625 L 3.921875 -1.59375 L 6.171875 -1.59375 C 6.472656 -1.59375 6.707031 -1.601562 6.875 -1.625 C 7.050781 -1.65625 7.203125 -1.71875 7.328125 -1.8125 L 7.375 -1.78125 L 6.859375 0.109375 L 6.109375 0.0625 C 4.804688 -0.0078125 2.960938 -0.015625 0.578125 0.046875 Z M 3.828125 -4.15625 "/></g></g></g><g fill="#ffffff" fill-opacity="1"><g transform="translate(275.913047, 206.525259)"><g><path d="M 0.734375 -4.46875 C 0.734375 -5.164062 0.832031 -5.816406 1.03125 -6.421875 C 1.238281 -7.023438 1.53125 -7.546875 1.90625 -7.984375 C 2.695312 -8.910156 3.695312 -9.375 4.90625 -9.375 C 6.0625 -9.375 6.988281 -8.9375 7.6875 -8.0625 C 8.363281 -7.21875 8.703125 -6.097656 8.703125 -4.703125 C 8.703125 -3.117188 8.289062 -1.890625 7.46875 -1.015625 C 6.726562 -0.222656 5.785156 0.171875 4.640625 0.171875 C 3.523438 0.171875 2.597656 -0.253906 1.859375 -1.109375 C 1.109375 -1.984375 0.734375 -3.101562 0.734375 -4.46875 Z M 3.15625 -2.28125 C 3.351562 -2.019531 3.59375 -1.816406 3.875 -1.671875 C 4.15625 -1.523438 4.441406 -1.453125 4.734375 -1.453125 C 5.035156 -1.453125 5.3125 -1.515625 5.5625 -1.640625 C 5.8125 -1.773438 6.039062 -1.972656 6.25 -2.234375 C 6.707031 -2.816406 6.9375 -3.585938 6.9375 -4.546875 C 6.9375 -5.523438 6.742188 -6.304688 6.359375 -6.890625 C 5.960938 -7.460938 5.429688 -7.75 4.765625 -7.75 C 4.085938 -7.75 3.539062 -7.453125 3.125 -6.859375 C 2.707031 -6.253906 2.5 -5.472656 2.5 -4.515625 C 2.5 -3.597656 2.71875 -2.851562 3.15625 -2.28125 Z M 3.15625 -2.28125 "/></g></g></g><g fill="#ffffff" fill-opacity="1"><g transform="translate(285.34133, 206.525259)"><g><path d="M 3.828125 -4.15625 C 4.503906 -5.019531 4.894531 -5.703125 5 -6.203125 C 5.03125 -6.359375 5.046875 -6.507812 5.046875 -6.65625 C 5.046875 -6.988281 4.921875 -7.253906 4.671875 -7.453125 C 4.421875 -7.660156 4.054688 -7.765625 3.578125 -7.765625 C 3.128906 -7.765625 2.664062 -7.648438 2.1875 -7.421875 C 1.75 -7.203125 1.4375 -6.953125 1.25 -6.671875 L 1.15625 -6.65625 L 1.21875 -8.734375 C 1.625 -9.003906 2.191406 -9.195312 2.921875 -9.3125 C 3.148438 -9.351562 3.367188 -9.375 3.578125 -9.375 C 4.734375 -9.375 5.597656 -9.097656 6.171875 -8.546875 C 6.660156 -8.078125 6.90625 -7.453125 6.90625 -6.671875 C 6.90625 -6.140625 6.738281 -5.5625 6.40625 -4.9375 C 6.125 -4.425781 5.75 -3.867188 5.28125 -3.265625 L 3.921875 -1.59375 L 6.171875 -1.59375 C 6.472656 -1.59375 6.707031 -1.601562 6.875 -1.625 C 7.050781 -1.65625 7.203125 -1.71875 7.328125 -1.8125 L 7.375 -1.78125 L 6.859375 0.109375 L 6.109375 0.0625 C 4.804688 -0.0078125 2.960938 -0.015625 0.578125 0.046875 Z M 3.828125 -4.15625 "/></g></g></g><g fill="#ffffff" fill-opacity="1"><g transform="translate(293.587622, 206.525259)"><g><path d="M 1.8125 -1.09375 C 1.488281 -1.488281 1.242188 -1.945312 1.078125 -2.46875 C 0.910156 -3 0.828125 -3.519531 0.828125 -4.03125 C 0.828125 -4.550781 0.867188 -5.023438 0.953125 -5.453125 C 1.035156 -5.890625 1.160156 -6.300781 1.328125 -6.6875 C 1.492188 -7.070312 1.707031 -7.425781 1.96875 -7.75 C 2.238281 -8.082031 2.550781 -8.367188 2.90625 -8.609375 C 3.675781 -9.117188 4.59375 -9.375 5.65625 -9.375 C 6.46875 -9.375 7.164062 -9.238281 7.75 -8.96875 L 7.8125 -7.265625 L 7.78125 -7.21875 C 7.269531 -7.59375 6.519531 -7.78125 5.53125 -7.78125 C 4.789062 -7.78125 4.148438 -7.53125 3.609375 -7.03125 C 3.097656 -6.539062 2.757812 -5.921875 2.59375 -5.171875 C 3.164062 -5.742188 3.890625 -6.113281 4.765625 -6.28125 C 5.015625 -6.332031 5.316406 -6.359375 5.671875 -6.359375 C 6.023438 -6.359375 6.394531 -6.285156 6.78125 -6.140625 C 7.175781 -6.003906 7.515625 -5.804688 7.796875 -5.546875 C 8.378906 -4.992188 8.671875 -4.257812 8.671875 -3.34375 C 8.671875 -2.332031 8.289062 -1.488281 7.53125 -0.8125 C 6.789062 -0.15625 5.878906 0.171875 4.796875 0.171875 C 3.535156 0.171875 2.539062 -0.25 1.8125 -1.09375 Z M 2.65625 -3.078125 C 2.8125 -2.554688 3.0625 -2.148438 3.40625 -1.859375 C 3.757812 -1.566406 4.207031 -1.421875 4.75 -1.421875 C 5.363281 -1.421875 5.875 -1.585938 6.28125 -1.921875 C 6.695312 -2.265625 6.90625 -2.722656 6.90625 -3.296875 C 6.90625 -3.722656 6.765625 -4.078125 6.484375 -4.359375 C 6.191406 -4.648438 5.785156 -4.796875 5.265625 -4.796875 C 4.617188 -4.796875 4.054688 -4.628906 3.578125 -4.296875 C 3.117188 -3.960938 2.8125 -3.554688 2.65625 -3.078125 Z M 2.65625 -3.078125 "/></g></g></g><g clip-path="url(#6f4798fd04)"><path fill="#ffffff" d="M 223.5 217.867188 C 225.773438 201.03125 247.613281 188.933594 233.828125 173.964844 C 233.828125 173.964844 240.71875 176.390625 240.433594 185.148438 C 240.433594 185.148438 249.457031 174.621094 243.476562 162.964844 L 243.480469 162.964844 C 256.539062 113.363281 210.203125 132.410156 193.382812 117.261719 C 193.601562 118.019531 193.882812 118.734375 194.21875 119.429688 C 202.730469 140.535156 215.921875 146.246094 215.921875 146.246094 C 200.882812 145.386719 196.078125 123.652344 178.320312 125.796875 C 186.414062 126.917969 198.511719 140.847656 198.511719 140.847656 C 191.746094 137.78125 185.980469 133.101562 185.980469 133.101562 C 187.457031 136.320312 191.894531 139.632812 191.894531 139.632812 C 181.222656 137.941406 175.574219 119.070312 153.773438 124.140625 C 176.589844 121.167969 176.351562 145.121094 206.957031 149.554688 C 174.855469 152.382812 164.144531 104.933594 134.800781 137.894531 C 140.722656 132.0625 151.597656 133.195312 151.597656 133.195312 C 127.75 144.160156 127.925781 167.128906 127.925781 167.128906 C 134.539062 146.941406 150.035156 139.632812 150.035156 139.632812 C 124.445312 159.476562 131.410156 185.066406 131.410156 185.066406 C 131.582031 153.386719 155.429688 145.894531 155.429688 145.894531 C 141.503906 156.167969 138.71875 180.363281 138.71875 180.363281 C 147.425781 148.515625 167.007812 145.464844 167.007812 145.464844 C 146.984375 153.910156 146.464844 177.320312 146.464844 177.320312 C 152.472656 150.34375 169.09375 148.941406 169.09375 148.941406 C 153.863281 155.46875 153.601562 170.882812 153.601562 170.882812 C 157.171875 154.601562 169.789062 152.597656 169.789062 152.597656 C 162.046875 156.085938 159.957031 163.042969 159.957031 163.042969 C 165.613281 156.515625 172.75 154.511719 179.972656 155.738281 C 199.417969 159.015625 207.730469 154.207031 224.582031 154.832031 C 224.582031 154.832031 224.742188 148.0625 217.710938 140.410156 C 217.710938 140.410156 228.027344 145.710938 228.375 156.226562 C 228.375 156.226562 233.558594 156.929688 237.078125 160.671875 C 237.078125 160.671875 223.082031 156.792969 212.683594 159.804688 C 212.683594 159.804688 217.742188 157.371094 223.230469 157.761719 C 223.230469 157.761719 213.421875 155.367188 202.085938 162.832031 C 199.789062 164.515625 197.742188 166.214844 196.148438 167.628906 L 196.109375 167.664062 L 196.117188 167.648438 C 193.929688 169.585938 192.59375 170.964844 192.59375 170.964844 C 192.59375 170.964844 207.585938 167.234375 219.710938 174.039062 C 219.710938 174.039062 208.878906 170.171875 199.765625 172.332031 C 199.765625 172.332031 203.042969 176.472656 205.195312 182.472656 L 180.550781 182.300781 C 180.550781 182.300781 166.855469 176.453125 158.675781 182.910156 C 155.078125 185.378906 151.125 178.410156 147.058594 183.570312 C 145.609375 185.425781 144.003906 197.121094 154.804688 197.476562 C 154.804688 197.476562 153.65625 200.914062 152.289062 201.410156 C 152.289062 201.410156 157.816406 200.558594 157.382812 188.363281 C 157.382812 188.363281 159.125 186.765625 159.46875 189.121094 C 162.671875 211.046875 182.777344 201.609375 181.378906 187.566406 L 206.542969 187.332031 C 207.519531 192.4375 207.230469 198.265625 203.785156 203.824219 C 203.785156 203.824219 208.230469 198.726562 208.375 193.988281 C 208.375 193.988281 212.964844 219.171875 190.148438 210.132812 C 190.148438 210.132812 192.804688 213.144531 197.472656 214.578125 C 197.472656 214.578125 190.078125 214.578125 187.28125 207.980469 C 187.28125 207.980469 187.710938 212.066406 189.71875 214.644531 C 191.726562 217.226562 191.085938 222.613281 185.273438 222.324219 C 185.273438 222.324219 193.453125 225.125 194.027344 232.085938 C 194.027344 232.085938 192.628906 227.929688 188.214844 226.199219 C 188.214844 226.199219 195.460938 231.296875 192.300781 238.972656 C 192.300781 238.972656 193.308594 229.640625 183.769531 225.984375 C 183.769531 225.984375 186.707031 228.425781 188.503906 231.367188 C 188.503906 231.367188 183.910156 224.695312 173.863281 224.558594 C 173.863281 224.558594 182.191406 227.277344 176.160156 238.476562 C 176.160156 238.476562 180.605469 233.058594 179.785156 228.425781 C 179.785156 228.425781 182.582031 238.289062 171.746094 242.378906 C 171.746094 242.378906 177.667969 235.8125 175.769531 230.183594 C 175.769531 230.183594 175.835938 232.695312 175.191406 234.492188 C 175.191406 234.492188 176.234375 228.457031 172.109375 226.027344 C 172.109375 226.027344 177.238281 235.535156 162.566406 234.59375 C 162.566406 234.59375 168.769531 234.132812 170.707031 230.765625 C 170.707031 230.765625 165.46875 231.367188 162.492188 228.679688 C 159.519531 225.984375 153.378906 227.058594 153.808594 232.300781 C 153.808594 232.300781 152.414062 228.320312 155.679688 226.488281 C 155.679688 226.488281 150.621094 222.867188 153.132812 218.664062 C 155.640625 214.472656 160.625 215.980469 163.066406 218.355469 C 165.503906 220.714844 172.894531 224.953125 180.03125 220.136719 C 180.03125 220.136719 176.875 221.144531 173.398438 220.285156 C 173.398438 220.285156 187.496094 220.898438 185.058594 208.335938 C 185.058594 208.335938 183.800781 217.960938 171.675781 215.617188 C 171.675781 215.617188 177.339844 215.585938 180.070312 212.75 C 180.070312 212.75 173 215.25 167.191406 208.429688 C 167.191406 208.429688 167.90625 210.753906 169.308594 212.445312 C 169.308594 212.445312 165.398438 211.046875 164.824219 207.644531 C 164.824219 207.644531 164.679688 201.828125 158.9375 202.910156 C 158.9375 202.910156 162.5625 203.800781 161.703125 206.382812 C 161.703125 206.382812 157.433594 203.4375 154.492188 206.019531 C 154.492188 206.019531 155.425781 203.949219 156.5 203.695312 C 156.5 203.695312 154.804688 204.089844 153.191406 205.730469 C 151.488281 204.542969 151.644531 202.640625 151.644531 202.640625 C 150.082031 204.617188 152.085938 207.097656 152.085938 207.097656 C 151.554688 207.921875 151.082031 208.929688 150.761719 210.152344 C 150.761719 210.152344 151.976562 208.601562 152.632812 208.195312 C 152.632812 208.195312 152.921875 214.472656 145.675781 213.175781 C 145.675781 213.175781 147.269531 215.089844 150.089844 214.933594 C 150.089844 214.933594 146.210938 216.753906 143.988281 213.523438 C 143.988281 213.523438 144.617188 218.988281 151.074219 219.277344 C 151.074219 219.277344 152.6875 235.742188 142.714844 240.546875 C 142.714844 240.546875 148.164062 240.511719 150.644531 235.417969 C 150.644531 235.417969 149.519531 244.136719 142.644531 245.71875 C 142.644531 245.71875 145.835938 246.9375 149.316406 244.820312 C 149.316406 244.820312 141.675781 259.605469 161.621094 269.425781 C 161.621094 269.425781 151.785156 258.285156 157.816406 246.476562 C 157.816406 246.476562 151.714844 264.6875 172.664062 270.003906 C 172.664062 270.003906 178.695312 261.964844 172.882812 251.777344 C 172.882812 251.777344 180.773438 259.960938 175.464844 269.214844 C 175.464844 269.214844 194.617188 264.191406 197.773438 238.9375 C 197.773438 238.9375 197.773438 249.984375 194.761719 255.726562 C 194.761719 255.726562 214.40625 244.496094 210.613281 221.859375 C 210.613281 221.859375 213.558594 231.617188 211.765625 238.648438 C 211.765625 238.648438 219.296875 230.253906 215.136719 213.90625 C 210.976562 197.546875 213.128906 186.859375 216.644531 183.769531 C 216.644531 183.769531 213.273438 185.492188 211.910156 189.441406 C 213.921875 173.9375 235.339844 175.769531 230.023438 191.273438 C 226.195312 202.421875 222.347656 204.191406 223.5 217.867188 " fill-opacity="1" fill-rule="evenodd"/></g><g clip-path="url(#2f3d491bb5)"><g clip-path="url(#74139c886e)"><path stroke-linecap="butt" transform="matrix(0.75, 0, 0, 0.75, 5.724202, 5.448397)" fill="none" stroke-linejoin="miter" d="M 246.367731 0.0010962 C 110.300022 0.0010962 -0.00206149 110.30318 -0.00206149 246.36568 C -0.00206149 382.433389 110.300022 492.735472 246.367731 492.735472 C 382.430231 492.735472 492.732314 382.433389 492.732314 246.36568 C 492.732314 110.30318 382.430231 0.0010962 246.367731 0.0010962 Z M 246.367731 0.0010962 " stroke="#ffffff" stroke-width="4" stroke-opacity="1" stroke-miterlimit="4"/></g></g></svg>